<svg width="28" height="20" viewBox="0 0 28 20" fill="none" xmlns="http://www.w3.org/2000/svg">
<path d="M27.8182 14.3438C27.8182 16.9843 26.3521 19.125 23.4716 19.125H4.34659C1.46611 19.125 0 16.9843 0 14.3438V4.78125C0 2.1407 1.46611 0 4.34659 0H23.4716C26.3521 0 27.8182 2.1407 27.8182 4.78125V14.3438Z" fill="#128807"/>
<path d="M24.836 9.90507L13.9739 17.5377L3.11133 9.90507L13.9739 2.27246L24.836 9.90507Z" fill="#F9CB38"/>
<path fill-rule="evenodd" clip-rule="evenodd" d="M18.2599 11.2353C17.7653 12.9161 16.2175 14.1957 14.4649 14.3696C12.1234 14.6039 10.0749 13.1156 9.57674 10.815C9.42929 10.1389 9.44809 9.43712 9.63151 8.7699C9.69975 8.69601 9.79407 8.67819 9.88796 8.66515C10.5727 8.56944 11.2651 8.53931 11.9556 8.57517C12.6924 8.6169 13.423 8.71904 14.1333 8.91986C14.8622 9.12632 15.5681 9.39581 16.2344 9.75397C16.736 10.0202 17.215 10.3269 17.6666 10.6711C17.8196 10.7898 17.9757 10.9062 18.1226 11.0327C18.1882 11.0892 18.2399 11.1501 18.2599 11.2353Z" fill="#002776"/>
<path fill-rule="evenodd" clip-rule="evenodd" d="M9.87793 8.08927C10.4391 6.83528 11.3853 6.0003 12.6932 5.60824C15.3273 4.81846 18.0295 6.55927 18.4212 9.27416C18.482 9.6936 18.4846 10.1144 18.4203 10.5347C18.3538 10.5594 18.3042 10.5242 18.2586 10.4864C17.7812 10.0963 17.2719 9.74709 16.736 9.44237C16.3233 9.20818 15.8946 9.00366 15.4529 8.83037C15.3746 8.79951 15.2764 8.78342 15.2494 8.67867C15.2777 8.62825 15.3133 8.58435 15.3559 8.54349C15.3712 8.52785 15.3933 8.51263 15.3729 8.48655C15.3659 8.47829 15.3516 8.47829 15.3394 8.4796C15.3068 8.48308 15.3112 8.50568 15.3125 8.52958C15.3151 8.60739 15.2699 8.65737 15.2103 8.69736C15.1047 8.72127 15.0034 8.68954 14.9178 8.6439C14.6727 8.51524 14.4014 8.47134 14.1419 8.39962C13.7373 8.28965 13.3217 8.2275 12.9071 8.16273C12.5761 8.10999 12.243 8.07199 11.9087 8.04885C11.6044 8.02755 11.2945 8.0306 10.988 8.05146C10.6538 8.07493 10.3187 8.0984 9.98616 8.13839C9.9653 8.1416 9.94395 8.13866 9.92473 8.12994C9.90551 8.12122 9.88925 8.10709 9.87793 8.08927Z" fill="#002776"/>
<path fill-rule="evenodd" clip-rule="evenodd" d="M15.2509 8.65214C15.2492 8.70516 15.2965 8.69821 15.3252 8.70951C16.4477 9.14608 17.4915 9.76269 18.4156 10.5351C18.3891 10.7736 18.3364 11.0084 18.2583 11.2353C17.7145 10.7841 17.1577 10.3543 16.5418 10.0031C14.595 8.89424 12.5104 8.4548 10.2819 8.69038C10.0645 8.71255 9.84721 8.74211 9.62988 8.76862C9.68595 8.53347 9.75724 8.30267 9.87416 8.08882C11.5011 7.86931 13.0998 7.99406 14.6685 8.47958C14.8632 8.53999 15.0488 8.63736 15.2565 8.65561L15.2509 8.65083" fill="#FEFEFE"/>
<path fill-rule="evenodd" clip-rule="evenodd" d="M17.2771 11.4531C17.1463 11.4392 17.2884 11.5996 17.1563 11.5961C17.0411 11.5944 17.035 11.5022 16.9785 11.4509C17.022 11.4057 17.0989 11.3966 17.1233 11.3262C17.1398 11.4005 17.2098 11.4161 17.2771 11.4531Z" fill="#D9DFEA"/>
<path fill-rule="evenodd" clip-rule="evenodd" d="M12.3407 12.2569C12.2177 12.2712 12.3207 12.4051 12.2177 12.4073C12.1138 12.4095 12.0603 12.3325 12.0395 12.253C12.0321 12.2304 12.132 12.18 12.1811 12.1426C12.1872 12.2213 12.269 12.2178 12.3407 12.2569Z" fill="#E9ECF3"/>
<path fill-rule="evenodd" clip-rule="evenodd" d="M13.9704 12.014C13.7995 12.1244 13.9373 11.8749 13.8369 11.8993C13.8695 11.8471 13.9617 11.8593 13.9677 11.7793C14.0112 11.8245 14.0482 11.8767 14.1173 11.8862C14.0186 11.8727 14.126 12.0918 13.9704 12.014Z" fill="#EDEFF5"/>
<path fill-rule="evenodd" clip-rule="evenodd" d="M10.4392 9.08711C10.3983 9.16491 10.3675 9.25184 10.2436 9.19968C10.1801 9.17317 10.2479 9.08624 10.1719 9.07798L10.3127 8.9541L10.3431 9.01452C10.3544 9.06624 10.4574 8.99757 10.4392 9.08711Z" fill="#F0F2F6"/>
<path fill-rule="evenodd" clip-rule="evenodd" d="M10.8348 10.975C10.7701 10.9954 10.8166 11.1658 10.6775 11.0915C10.6636 11.0846 10.6027 11.118 10.614 11.0985C10.6505 11.0272 10.5688 10.9924 10.5814 10.9355C10.6575 10.9685 10.6531 10.8294 10.7309 10.8668C10.7366 10.8711 10.7366 10.8885 10.7405 10.8998C10.7488 10.9537 10.8539 10.8863 10.8348 10.975Z" fill="#ECEFF4"/>
<path fill-rule="evenodd" clip-rule="evenodd" d="M10.1504 11.4786C10.017 11.5252 10.1165 11.3639 10.04 11.3652C10.0757 11.3352 10.1157 11.2791 10.1513 11.2813C10.1939 11.2835 10.233 11.3361 10.2721 11.3661C10.2139 11.3856 10.2752 11.5434 10.1504 11.4786Z" fill="#D9DFEA"/>
<path fill-rule="evenodd" clip-rule="evenodd" d="M15.3087 13.0166C15.1675 13.0809 15.3048 12.891 15.2105 12.9157C15.201 12.8431 15.3187 12.887 15.304 12.8105L15.4313 12.9127C15.3796 12.9362 15.4313 13.0839 15.3087 13.0166Z" fill="#D8DEEA"/>
<path fill-rule="evenodd" clip-rule="evenodd" d="M16.2137 12.9116C16.0968 12.9603 16.1685 12.803 16.1055 12.7873C16.1481 12.7599 16.1928 12.7308 16.2346 12.7026C16.238 12.7669 16.3263 12.7434 16.3358 12.8004C16.2702 12.8043 16.3384 12.946 16.2137 12.9116ZM17.0265 12.3266C16.8935 12.3939 16.9917 12.217 16.9157 12.2244C16.9309 12.1679 17.0183 12.1892 17.0235 12.124L17.1482 12.2175C17.0722 12.2153 17.1656 12.4018 17.0265 12.3266Z" fill="#DCE1EC"/>
<path fill-rule="evenodd" clip-rule="evenodd" d="M11.6419 11.5151C11.5028 11.5937 11.5936 11.4177 11.5293 11.4142C11.5358 11.3495 11.634 11.3773 11.6384 11.3086C11.6514 11.3721 11.7358 11.3538 11.754 11.4107C11.671 11.3986 11.7892 11.5981 11.6419 11.5151Z" fill="#D4DAE7"/>
<path fill-rule="evenodd" clip-rule="evenodd" d="M12.2052 10.195C12.1265 10.1898 12.2274 10.0659 12.1309 10.0737C12.1474 10.0042 12.2217 10.0185 12.2626 9.98242C12.2834 10.0263 12.3425 10.0363 12.3456 10.0993C12.3525 10.2145 12.2504 10.155 12.2052 10.195Z" fill="#F2F4F7"/>
<path fill-rule="evenodd" clip-rule="evenodd" d="M14.4954 11.1134C14.375 11.1825 14.4384 11.0282 14.3828 11.0112L14.4954 10.916C14.498 10.9803 14.621 10.966 14.5862 11.0156C14.5654 11.0451 14.6327 11.1803 14.4954 11.1134Z" fill="#E6E9F1"/>
<path fill-rule="evenodd" clip-rule="evenodd" d="M13.9568 10.7251C13.8195 10.739 13.9612 10.6142 13.8721 10.6173C13.9068 10.5847 13.9403 10.529 13.9794 10.5255C14.0133 10.5221 14.0525 10.5773 14.0894 10.6077C14.0412 10.6542 14.0485 10.7742 13.9568 10.7251Z" fill="#EAEDF3"/>
<path fill-rule="evenodd" clip-rule="evenodd" d="M17.2915 11.7393C17.3197 11.814 17.3754 11.824 17.4188 11.8505C17.3745 11.9005 17.3571 11.977 17.265 11.977C17.1706 11.9779 17.2345 11.9062 17.2132 11.8727C17.1606 11.7892 17.3549 11.8597 17.2915 11.7393Z" fill="#E4E8F0"/>
<path fill-rule="evenodd" clip-rule="evenodd" d="M16.3082 13.2555C16.2751 13.3046 16.2977 13.3516 16.2099 13.3533C16.1095 13.3551 16.1417 13.2816 16.1374 13.259C16.1291 13.2216 16.1865 13.186 16.2195 13.1934C16.2482 13.1986 16.3038 13.2147 16.3082 13.2555Z" fill="#CED5E4"/>
<path fill-rule="evenodd" clip-rule="evenodd" d="M11.6117 11.8613C11.54 11.8696 11.5995 11.9635 11.5087 11.9604C11.4256 11.9578 11.4378 11.9018 11.4287 11.8678C11.4143 11.8205 11.4843 11.8218 11.5 11.7861C11.533 11.8092 11.5665 11.8322 11.6117 11.8613Z" fill="#DAE0EB"/>
<path fill-rule="evenodd" clip-rule="evenodd" d="M16.1113 12.3581C16.142 12.3355 16.1735 12.3134 16.2056 12.292C16.2083 12.3402 16.3121 12.3124 16.2774 12.3741C16.263 12.3989 16.2982 12.4667 16.2083 12.4606C16.1274 12.455 16.1465 12.3985 16.1113 12.3581Z" fill="#D8DEE9"/>
<path fill-rule="evenodd" clip-rule="evenodd" d="M15.7822 12.5062C15.7666 12.5918 15.7179 12.6057 15.6644 12.6157C15.5736 12.6309 15.6418 12.5627 15.627 12.5366C15.5888 12.4714 15.6853 12.484 15.6966 12.4414C15.7218 12.4744 15.7796 12.4736 15.7822 12.5062Z" fill="#CBD2E3"/>
<path fill-rule="evenodd" clip-rule="evenodd" d="M15.2738 9.68851C15.2434 9.70286 15.2838 9.77544 15.2186 9.75458C15.169 9.73763 15.1082 9.71416 15.1125 9.6533C15.1143 9.62983 15.1734 9.61027 15.2064 9.58984C15.2121 9.63374 15.3059 9.6194 15.2738 9.68851Z" fill="#D1D8E6"/>
<path fill-rule="evenodd" clip-rule="evenodd" d="M17.7337 11.5942C17.652 11.6264 17.6889 11.559 17.6746 11.5394C17.6198 11.4651 17.7281 11.476 17.7337 11.4316C17.7672 11.4538 17.8324 11.479 17.8298 11.4981C17.8279 11.523 17.8171 11.5463 17.7995 11.564C17.7819 11.5816 17.7586 11.5923 17.7337 11.5942Z" fill="#DADFEA"/>
<path fill-rule="evenodd" clip-rule="evenodd" d="M13.5311 10.9326C13.5311 10.983 13.6328 10.963 13.5984 11.0261C13.5845 11.0517 13.6141 11.1204 13.5437 11.106C13.4902 11.0952 13.4363 11.0639 13.4346 11.0109C13.4346 10.9861 13.4963 10.9596 13.5311 10.9326Z" fill="#CAD2E2"/>
<path fill-rule="evenodd" clip-rule="evenodd" d="M14.9227 12.5049C14.8827 12.4862 14.881 12.4336 14.8836 12.4084C14.8879 12.3749 14.9327 12.3297 14.971 12.3479C14.9944 12.3592 15.0609 12.3527 15.0449 12.4136C15.0301 12.4718 14.9718 12.4801 14.9227 12.5049Z" fill="#D0D7E5"/>
<path fill-rule="evenodd" clip-rule="evenodd" d="M16.6035 12.4273C16.6053 12.4268 16.6357 12.3847 16.67 12.3838C16.6948 12.3829 16.72 12.4342 16.7465 12.4629C16.7109 12.4729 16.7413 12.5385 16.6709 12.5377C16.6074 12.5364 16.6074 12.5077 16.6035 12.4273Z" fill="#EFF2F6"/>
<path fill-rule="evenodd" clip-rule="evenodd" d="M13.8075 11.3281C13.7958 11.375 13.7958 11.4042 13.754 11.4033C13.7114 11.4024 13.6906 11.3868 13.6914 11.3433C13.6914 11.309 13.714 11.2851 13.7397 11.2872C13.7692 11.2894 13.8114 11.2977 13.8075 11.3281Z" fill="#CCD4E3"/>
<path fill-rule="evenodd" clip-rule="evenodd" d="M11.1424 10.6494C11.1632 10.672 11.1871 10.6898 11.1963 10.7129C11.2041 10.732 11.1919 10.7611 11.165 10.7642C11.135 10.7668 11.1028 10.7659 11.0933 10.7285C11.0846 10.692 11.1163 10.679 11.1424 10.6494Z" fill="#E0E5EE"/>
<path fill-rule="evenodd" clip-rule="evenodd" d="M10.8346 10.975C10.8228 10.9251 10.7455 10.9568 10.7402 10.8994C10.7568 10.9429 10.8858 10.846 10.8346 10.975Z" fill="#7085B1"/>
<path fill-rule="evenodd" clip-rule="evenodd" d="M10.4408 9.08626C10.4312 9.0328 10.3491 9.07496 10.3447 9.01367C10.3678 9.05018 10.4843 8.96369 10.4408 9.08626Z" fill="#5C75A7"/>
<path fill-rule="evenodd" clip-rule="evenodd" d="M15.2602 8.65666C15.2685 8.62363 15.295 8.56973 15.2845 8.55973C15.1428 8.43368 15.3319 8.41238 15.3602 8.38674C15.4119 8.33675 15.4036 8.54756 15.5401 8.41412C15.4667 8.57712 15.3684 8.62406 15.2554 8.65188L15.2602 8.65666Z" fill="#E7EAF2"/>
<path fill-rule="evenodd" clip-rule="evenodd" d="M11.0701 8.52103C10.9318 8.50756 11.0549 8.32761 11.0249 8.22329C10.9875 8.08855 11.0857 8.09029 11.1813 8.08985C11.3296 8.08898 11.4134 8.15157 11.4134 8.30805C11.413 8.46192 11.3417 8.52277 11.0701 8.52103Z" fill="#15A24A"/>
<path fill-rule="evenodd" clip-rule="evenodd" d="M16.3522 9.38944C16.3218 9.48246 16.2092 9.5407 16.1901 9.65545C16.1884 9.67066 16.1449 9.66762 16.1367 9.62329C16.1019 9.41552 16.1001 9.41595 15.9467 9.52723C15.9345 9.53635 15.9132 9.54461 15.9015 9.5407C15.8789 9.5307 15.8698 9.5081 15.8832 9.48246C15.9341 9.38335 15.9819 9.28164 16.0389 9.18558C16.0771 9.12212 16.1236 9.17515 16.161 9.19341C16.2431 9.23383 16.3444 9.25687 16.3522 9.38944Z" fill="#13A248"/>
<path fill-rule="evenodd" clip-rule="evenodd" d="M16.7412 9.72745C16.6612 9.75962 16.6225 9.6992 16.5712 9.67747C16.5365 9.66269 16.5039 9.64878 16.4804 9.68747C16.4547 9.72832 16.4804 9.7518 16.5156 9.77005C16.5426 9.78353 16.5712 9.79396 16.5912 9.81526C16.6264 9.8522 16.7368 9.8422 16.6921 9.92088C16.6569 9.98347 16.5978 9.91045 16.5586 9.88741C16.4913 9.84612 16.3578 9.82351 16.3722 9.7518C16.3943 9.63661 16.46 9.51143 16.5473 9.43232C16.6173 9.36886 16.6947 9.48883 16.7734 9.51882C16.8073 9.53142 16.8651 9.54272 16.8551 9.59619C16.8455 9.65139 16.8046 9.61923 16.7734 9.61184C16.6999 9.59488 16.6286 9.47057 16.5708 9.55663C16.536 9.60792 16.679 9.62922 16.7242 9.68573C16.7312 9.69399 16.7329 9.70529 16.7412 9.72745ZM17.6779 10.3421C17.6909 10.4438 17.6496 10.5129 17.5431 10.4955C17.4327 10.4772 17.3488 10.4099 17.3297 10.289C17.328 10.2769 17.3428 10.2521 17.3549 10.2486C17.3619 10.2463 17.3694 10.2456 17.3767 10.2465C17.384 10.2473 17.391 10.2498 17.3973 10.2537C17.4035 10.2576 17.4089 10.2628 17.4129 10.269C17.4169 10.2752 17.4195 10.2822 17.4206 10.2895C17.4345 10.3725 17.4779 10.4094 17.5653 10.4112C17.5823 10.2751 17.3367 10.213 17.4779 10.0717C17.5488 10.0009 17.6353 10.0595 17.697 10.1165C17.7539 10.1682 17.8235 10.2251 17.7196 10.299C17.7048 10.2912 17.6848 10.2786 17.674 10.2873C17.6518 10.3021 17.6735 10.3234 17.6779 10.3421Z" fill="#11A147"/>
<path fill-rule="evenodd" clip-rule="evenodd" d="M14.6756 9.0479C14.6239 9.01877 14.6265 8.99096 14.6347 8.96053C14.6513 8.89576 14.6178 8.86186 14.5587 8.84361C14.4996 8.82448 14.4539 8.82709 14.4378 8.90098C14.4322 8.93402 14.4148 8.95705 14.3787 8.94488C14.337 8.92967 14.3579 8.89577 14.3657 8.87099C14.3822 8.81405 14.397 8.75667 14.4231 8.70234C14.4465 8.64801 14.43 8.54847 14.5156 8.55499C14.6065 8.56151 14.7047 8.58325 14.7738 8.65844C14.8047 8.69148 14.8173 8.74842 14.7921 8.77319C14.7186 8.84882 14.7247 8.95575 14.6756 9.0479Z" fill="#0FA046"/>
<path fill-rule="evenodd" clip-rule="evenodd" d="M11.993 8.49525C11.8526 8.54828 11.7418 8.51742 11.6335 8.5196C11.5844 8.5209 11.5801 8.48395 11.5801 8.44657C11.583 8.40513 11.5841 8.3637 11.5836 8.32226C11.5888 8.09319 11.6701 8.03452 11.8952 8.09841C11.9204 8.10537 11.9443 8.10971 11.9461 8.13796C11.9461 8.17708 11.9178 8.18404 11.883 8.18317C11.8781 8.18201 11.8726 8.18158 11.8665 8.18187C11.7991 8.19838 11.6783 8.12232 11.6761 8.22316C11.6735 8.30053 11.8052 8.24576 11.8726 8.27184C11.8816 8.27619 11.8932 8.28401 11.9074 8.29531C11.8648 8.37225 11.7939 8.32922 11.7392 8.33834C11.7066 8.34356 11.664 8.32922 11.6592 8.38224C11.6531 8.44483 11.6966 8.44179 11.7392 8.44614C11.8118 8.45483 11.8904 8.42745 11.993 8.49525Z" fill="#0B9F43"/>
<path fill-rule="evenodd" clip-rule="evenodd" d="M10.8395 8.5283C10.7639 8.51179 10.7743 8.46832 10.7612 8.43789C10.7386 8.38182 10.6939 8.38182 10.6448 8.38573C10.5887 8.39095 10.5583 8.41268 10.563 8.47484C10.5665 8.50527 10.5787 8.55438 10.5222 8.54743C10.4735 8.54134 10.4874 8.49396 10.4848 8.4618C10.4805 8.40921 10.4752 8.35531 10.4805 8.30315C10.4874 8.2449 10.4318 8.1558 10.5157 8.13494C10.6022 8.11233 10.7021 8.09625 10.7921 8.13928C10.8312 8.15797 10.8621 8.20361 10.8477 8.24056C10.8147 8.33358 10.8408 8.4279 10.8395 8.5283Z" fill="#079D3F"/>
<path fill-rule="evenodd" clip-rule="evenodd" d="M9.92188 8.38011C9.93578 8.26232 9.98751 8.16669 10.1166 8.17104C10.2405 8.17495 10.3065 8.26102 10.3065 8.38489C10.3065 8.5079 10.2492 8.59266 10.1183 8.59179C9.98534 8.59092 9.94013 8.49443 9.92188 8.38011Z" fill="#15A24A"/>
<path fill-rule="evenodd" clip-rule="evenodd" d="M18.1978 10.5883C18.1856 10.7052 18.1278 10.7934 17.9944 10.8052C17.8714 10.8152 17.8062 10.7448 17.7966 10.6291C17.7857 10.5122 17.9005 10.4005 18.0174 10.4014C18.12 10.4022 18.1952 10.4766 18.1978 10.5883Z" fill="#11A147"/>
<path fill-rule="evenodd" clip-rule="evenodd" d="M15.7561 9.2271C15.8543 9.30621 15.7353 9.35837 15.7309 9.42487C15.6492 9.38706 15.547 9.40227 15.481 9.33055C15.4106 9.25405 15.4236 9.16755 15.4697 9.08323C15.5205 8.99413 15.5988 8.95588 15.6948 8.98978C15.7826 9.02107 15.8483 9.08019 15.8057 9.19146C15.7383 9.20363 15.6831 9.11496 15.5883 9.17451C15.6514 9.20363 15.727 9.16321 15.7561 9.2271Z" fill="#0C9F43"/>
<path fill-rule="evenodd" clip-rule="evenodd" d="M13.3908 8.33209C13.3334 8.39946 13.2913 8.37338 13.2517 8.37425C13.2135 8.37425 13.1726 8.34252 13.1252 8.38207C13.1678 8.45162 13.2708 8.40685 13.3108 8.47596C13.3052 8.48596 13.3026 8.49943 13.2952 8.50638C13.2378 8.55159 13.1461 8.44206 13.1104 8.53246C13.0778 8.61027 13.1635 8.58332 13.2004 8.59636C13.2421 8.61288 13.2939 8.60679 13.3443 8.6633C13.2274 8.71459 13.0878 8.69068 13.0396 8.63417C12.9635 8.54507 13.017 8.38685 13.0748 8.30775C13.143 8.21429 13.2678 8.30557 13.3908 8.33209Z" fill="#19A44D"/>
<path fill-rule="evenodd" clip-rule="evenodd" d="M14.1323 8.71043C14.0336 8.7 13.9214 8.63045 13.8932 8.79302C13.8923 8.79823 13.858 8.80562 13.8476 8.79867C13.8358 8.79215 13.8293 8.76781 13.8315 8.7539C13.8571 8.65088 13.8702 8.54048 13.9158 8.4479C13.9688 8.34358 14.0588 8.43182 14.1331 8.44181C14.2218 8.45355 14.2709 8.50745 14.2613 8.6009C14.2527 8.68131 14.1918 8.70304 14.1323 8.71043Z" fill="#0D9F44"/>
<path fill-rule="evenodd" clip-rule="evenodd" d="M15.3086 8.96007C15.299 9.09091 15.2347 9.18132 15.1039 9.18523C14.9869 9.18957 14.9213 9.10742 14.9239 8.99093C14.9274 8.86488 14.9887 8.7736 15.1247 8.76969C15.2495 8.76535 15.2977 8.84924 15.3086 8.96007Z" fill="#0FA046"/>
<path fill-rule="evenodd" clip-rule="evenodd" d="M12.3786 8.48718C12.3642 8.51804 12.3525 8.56194 12.3112 8.55194C12.2395 8.53499 12.2716 8.46588 12.2542 8.42068C12.2012 8.36895 12.2151 8.44024 12.1986 8.45328C12.1925 8.48544 12.2073 8.53456 12.1638 8.54108C12.1104 8.5476 12.123 8.49631 12.1243 8.46588C12.1286 8.40242 12.1295 8.33592 12.1469 8.27507C12.1621 8.22291 12.1069 8.12685 12.2108 8.12598C12.3025 8.12554 12.2825 8.219 12.2942 8.27507C12.3064 8.3394 12.3129 8.36678 12.3655 8.30288C12.4198 8.28854 12.4311 8.3281 12.4438 8.36635C12.4507 8.42198 12.4259 8.46067 12.3786 8.48718Z" fill="#0EA044"/>
<path fill-rule="evenodd" clip-rule="evenodd" d="M17.008 10.084C17.0402 10.084 17.0728 10.1266 17.1041 10.0901C17.128 10.0627 17.1067 10.0358 17.0854 10.0136C17.0691 9.99708 17.0535 9.97998 17.0384 9.96231C16.9941 9.90885 16.9319 9.85756 16.9932 9.78019C17.0489 9.70934 17.1136 9.72672 17.1779 9.77149C17.1897 9.7941 17.1858 9.81583 17.1736 9.83626C17.1262 9.91059 17.2145 9.95579 17.2127 10.0192C17.2262 10.0788 17.2349 10.1388 17.1693 10.1731C17.0875 10.2166 17.0245 10.1766 16.9645 10.1244C16.958 10.0901 16.9706 10.0731 17.008 10.084Z" fill="#10A146"/>
<path fill-rule="evenodd" clip-rule="evenodd" d="M15.7567 9.22885C15.7233 9.25233 15.6559 9.17626 15.6581 9.23363C15.6624 9.33535 15.6116 9.32622 15.5642 9.29623C15.5003 9.25667 15.4968 9.18887 15.5372 9.12627C15.5763 9.06499 15.6315 9.02935 15.6985 9.07933C15.7393 9.10932 15.7702 9.15453 15.8054 9.19321L15.7567 9.22885Z" fill="#ECF7F0"/>
<path fill-rule="evenodd" clip-rule="evenodd" d="M12.407 8.38418C12.3944 8.35726 12.3805 8.331 12.3652 8.3055C12.3804 8.26682 12.3944 8.2277 12.4126 8.19032C12.4291 8.15511 12.4578 8.13555 12.4982 8.14859C12.5434 8.1638 12.54 8.19858 12.5374 8.23509C12.5278 8.34143 12.519 8.44778 12.5108 8.55413C12.4474 8.59455 12.4313 8.55761 12.4209 8.50284C12.413 8.46328 12.4335 8.42069 12.407 8.38418Z" fill="#17A34C"/>
<path fill-rule="evenodd" clip-rule="evenodd" d="M17.2132 10.0176C17.1741 9.97757 17.1324 9.93975 17.0959 9.89716C17.0533 9.84674 17.0698 9.81588 17.1333 9.80762C17.225 9.82805 17.2811 9.87238 17.2541 9.97757C17.2414 9.9909 17.2277 10.0042 17.2132 10.0176Z" fill="#D7EFE0"/>
<path fill-rule="evenodd" clip-rule="evenodd" d="M17.2556 9.97828C17.2134 9.92351 17.2021 9.84527 17.1348 9.80832L17.18 9.77051C17.253 9.82223 17.3864 9.85179 17.2556 9.97828Z" fill="#2BAB5B"/>
<path fill-rule="evenodd" clip-rule="evenodd" d="M17.6784 10.3442C17.6728 10.3407 17.6654 10.339 17.6628 10.3342C17.628 10.2699 17.5128 10.2121 17.5519 10.1551C17.6011 10.0865 17.6524 10.1677 17.6793 10.2264C17.6915 10.2512 17.7063 10.2755 17.7202 10.3012C17.7057 10.3157 17.6918 10.33 17.6784 10.3442Z" fill="#E6F5EC"/>
<path fill-rule="evenodd" clip-rule="evenodd" d="M17.0086 10.0841C16.9952 10.0977 16.9808 10.1113 16.9651 10.1249C16.9469 10.1119 16.9216 10.1027 16.9099 10.0841C16.8877 10.0419 16.8243 9.98582 16.8977 9.95279C16.9595 9.92323 16.9595 10.0019 16.9795 10.0402C16.9877 10.0562 16.9981 10.0697 17.0086 10.0841Z" fill="#29AA59"/>
<path fill-rule="evenodd" clip-rule="evenodd" d="M12.4071 8.38477C12.4705 8.40954 12.437 8.46257 12.4379 8.50212C12.4414 8.55646 12.4605 8.57471 12.5114 8.55559C12.4053 8.65817 12.4188 8.52125 12.3779 8.49082C12.3888 8.45475 12.3971 8.41954 12.4071 8.38477Z" fill="#DDF1E4"/>
<path fill-rule="evenodd" clip-rule="evenodd" d="M12.1963 8.45344V8.31348C12.2563 8.3326 12.258 8.37476 12.2519 8.42084L12.1963 8.45344Z" fill="#6FC690"/>
<path fill-rule="evenodd" clip-rule="evenodd" d="M11.1133 8.3104C11.1194 8.24694 11.0889 8.16436 11.1972 8.17131C11.2763 8.17609 11.3337 8.20782 11.338 8.29823C11.3423 8.39559 11.2854 8.43515 11.1954 8.44167C11.0811 8.4508 11.1276 8.36082 11.1133 8.3104Z" fill="#F5FBF7"/>
<path fill-rule="evenodd" clip-rule="evenodd" d="M16.1263 9.26691C16.1715 9.29168 16.2406 9.29647 16.2554 9.3634C16.2628 9.39818 16.2328 9.42121 16.2019 9.41122C16.1446 9.39383 16.0685 9.39296 16.0607 9.31211C16.0585 9.28864 16.0837 9.25908 16.1263 9.26691Z" fill="#EFF8F3"/>
<path fill-rule="evenodd" clip-rule="evenodd" d="M14.715 8.73319C14.7033 8.77839 14.6715 8.79404 14.635 8.78056C14.5859 8.76274 14.5068 8.7823 14.5059 8.69624C14.5042 8.65147 14.5346 8.638 14.5755 8.65147C14.6294 8.66886 14.6946 8.66668 14.715 8.73319Z" fill="#DEF2E5"/>
<path fill-rule="evenodd" clip-rule="evenodd" d="M10.6554 8.19727C10.698 8.20248 10.7654 8.17988 10.761 8.25247C10.7567 8.31593 10.6923 8.30593 10.6463 8.3068C10.6093 8.3081 10.5563 8.32723 10.5528 8.26073C10.5502 8.18162 10.6119 8.20639 10.6554 8.19727Z" fill="#F3FAF5"/>
<path fill-rule="evenodd" clip-rule="evenodd" d="M10.1052 8.25684C10.1839 8.26205 10.223 8.309 10.226 8.38289C10.2304 8.44896 10.1978 8.50546 10.13 8.51155C10.0517 8.51894 10.0165 8.45939 10.0122 8.3868C10.0078 8.31986 10.0339 8.27118 10.1052 8.25684Z" fill="#F3FAF6"/>
<path fill-rule="evenodd" clip-rule="evenodd" d="M18.1102 10.6036C18.0989 10.6758 18.0554 10.7266 17.9715 10.7266C17.9041 10.7257 17.8789 10.6766 17.8859 10.6171C17.8924 10.5362 17.9406 10.4841 18.0228 10.4854C18.0876 10.4871 18.1128 10.5336 18.1102 10.6036Z" fill="#F9FCFA"/>
<path fill-rule="evenodd" clip-rule="evenodd" d="M14.0312 8.4953C14.0751 8.52225 14.1633 8.49443 14.176 8.58136C14.1799 8.61439 14.1434 8.63135 14.1142 8.62483C14.0573 8.61222 13.9777 8.63265 13.9708 8.54094C13.9695 8.51268 13.9821 8.48226 14.0312 8.4953Z" fill="#E7F5EC"/>
<path fill-rule="evenodd" clip-rule="evenodd" d="M15.2213 8.97096C15.2131 9.04616 15.1761 9.09875 15.1001 9.09875C15.0253 9.09962 14.9988 9.04746 15.0023 8.97879C15.0083 8.90316 15.0514 8.85274 15.1248 8.84969C15.1978 8.84709 15.2213 8.90533 15.2213 8.97096Z" fill="#F5FBF7"/>
</svg>
