<svg width="28" height="18" viewBox="0 0 28 18" fill="none" xmlns="http://www.w3.org/2000/svg">
<path d="M25.752 18H2.248C1.65178 17.9995 1.08015 17.7623 0.658656 17.3406C0.23716 16.9189 0.00026475 16.3472 0 15.751V2.25C-2.35611e-07 1.65361 0.236778 1.08162 0.658302 0.659716C1.07983 0.237817 1.65161 0.000530125 2.248 0H25.752C26.3482 0.000529912 26.9198 0.23768 27.3413 0.659363C27.7628 1.08105 27.9997 1.65278 28 2.249V15.75C28.0007 16.0455 27.943 16.3382 27.8303 16.6113C27.7175 16.8845 27.552 17.1327 27.3432 17.3417C27.1343 17.5508 26.8862 17.7165 26.6132 17.8295C26.3401 17.9424 26.0475 18.0004 25.752 18Z" fill="#00A6ED"/>
<path d="M21.386 12H3.614C3.45105 11.9992 3.29504 11.934 3.18001 11.8186C3.06497 11.7032 3.00026 11.5469 3 11.384V8.616C3 8.283 3.272 8 3.614 8H21.386C21.718 8 22 8.273 22 8.616V11.394C21.9995 11.4741 21.9832 11.5533 21.952 11.6271C21.9209 11.7009 21.8755 11.7679 21.8185 11.8242C21.7615 11.8804 21.694 11.9249 21.6197 11.9551C21.5455 11.9853 21.4661 12.0005 21.386 12Z" fill="#F4F4F4"/>
<path d="M23.353 16H25.147C25.2591 16.0004 25.3702 15.9786 25.4739 15.9359C25.5776 15.8932 25.6718 15.8303 25.751 15.751C25.8303 15.6718 25.8932 15.5776 25.9359 15.4739C25.9786 15.3702 26.0004 15.2591 26 15.147V13.353C26.0004 13.2409 25.9786 13.1298 25.9359 13.0261C25.8932 12.9224 25.8303 12.8282 25.751 12.749C25.6718 12.6697 25.5776 12.6069 25.4739 12.5641C25.3702 12.5214 25.2591 12.4996 25.147 12.5H23.353C23.2409 12.4996 23.1298 12.5214 23.0261 12.5641C22.9224 12.6069 22.8282 12.6697 22.749 12.749C22.6697 12.8282 22.6069 12.9224 22.5641 13.0261C22.5214 13.1298 22.4996 13.2409 22.5 13.353V15.147C22.5018 15.3727 22.5923 15.5886 22.7519 15.7481C22.9114 15.9077 23.1273 15.9982 23.353 16Z" fill="#FFF478"/>
<path d="M28 3H0V6H28V3Z" fill="#321B41"/>
<path d="M4 10C4 9.86739 4.05268 9.74021 4.14645 9.64645C4.24021 9.55268 4.36739 9.5 4.5 9.5H15.5C15.6326 9.5 15.7598 9.55268 15.8536 9.64645C15.9473 9.74021 16 9.86739 16 10C16 10.1326 15.9473 10.2598 15.8536 10.3536C15.7598 10.4473 15.6326 10.5 15.5 10.5H4.5C4.36739 10.5 4.24021 10.4473 4.14645 10.3536C4.05268 10.2598 4 10.1326 4 10Z" fill="#9B9B9B"/>
</svg>
