<svg width="60" height="68" viewBox="0 0 60 68" fill="none" xmlns="http://www.w3.org/2000/svg">
<path d="M29.8183 1.00004C36.0548 0.990877 42.1646 2.76024 47.4311 6.1006C61.119 14.7773 62.1276 32.6984 51.2205 45.8014C44.9967 53.2761 38.1461 60.2057 30.7433 66.5149C30.484 66.732 30.1565 66.851 29.8183 66.851C29.48 66.851 29.1526 66.732 28.8933 66.5149C21.4906 60.2045 14.6401 53.2739 8.41609 45.7985C-2.48816 32.6984 -1.48245 14.7773 12.2055 6.1006C17.472 2.76024 23.5818 0.990877 29.8183 1.00004Z" fill="#E3E3E3"/>
<path d="M29.8185 1.00004C23.582 0.990877 17.4722 2.76024 12.2057 6.1006C-1.48225 14.7773 -2.49084 32.6984 8.41629 45.8014C14.6403 53.2768 21.4908 60.2074 28.8935 66.5177C29.153 66.7342 29.4805 66.8525 29.8185 66.852V1.00004Z" fill="white"/>
<path d="M38.4635 29.8167C38.4635 32.8738 37.2491 35.8057 35.0874 37.9673C32.9258 40.129 29.9939 41.3434 26.9368 41.3434C23.8798 41.3434 20.9479 40.129 18.7862 37.9673C16.6246 35.8057 15.4102 32.8738 15.4102 29.8167V18.29H38.4635V29.8167Z" fill="#FF808C"/>
<path d="M29.8185 18.29H15.4102V29.8167C15.4097 31.5762 15.812 33.3123 16.5863 34.8922C17.3606 36.4721 18.4862 37.8538 19.8771 38.9314C21.2679 40.009 22.8869 40.7539 24.6101 41.1091C26.3333 41.4642 28.115 41.4202 29.8185 40.9803V18.29Z" fill="#FFBFC5"/>
<path d="M38.29 31.8195C39.1551 32.3608 40.1484 32.6627 41.1684 32.6943C42.1884 32.726 43.1985 32.4862 44.0955 31.9996C44.9925 31.513 45.7441 30.7969 46.2737 29.9246C46.8033 29.0522 47.0917 28.055 47.1096 27.0346C47.1274 26.0143 46.8741 25.0076 46.3754 24.1172C45.8767 23.2269 45.1505 22.485 44.2711 21.9672C43.3917 21.4495 42.3906 21.1745 41.3702 21.1705C40.3497 21.1664 39.3464 21.4333 38.4629 21.944" stroke="#191919" stroke-linecap="round" stroke-linejoin="round"/>
<path d="M38.4635 29.8167C38.4635 32.8738 37.2491 35.8057 35.0874 37.9673C32.9258 40.129 29.9939 41.3434 26.9368 41.3434C23.8798 41.3434 20.9479 40.129 18.7862 37.9673C16.6246 35.8057 15.4102 32.8738 15.4102 29.8167V18.29H38.4635V29.8167Z" stroke="#191919" stroke-linecap="round" stroke-linejoin="round"/>
<path d="M29.8183 1.00004C36.0548 0.990877 42.1646 2.76024 47.4311 6.1006C61.119 14.7773 62.1276 32.6984 51.2205 45.8014C44.9967 53.2761 38.1461 60.2057 30.7433 66.5149C30.484 66.732 30.1565 66.851 29.8183 66.851C29.48 66.851 29.1526 66.732 28.8933 66.5149C21.4906 60.2045 14.6401 53.2739 8.41609 45.7985C-2.48816 32.6984 -1.48245 14.7773 12.2055 6.1006C17.472 2.76024 23.5818 0.990877 29.8183 1.00004Z" stroke="#191919" stroke-linecap="round" stroke-linejoin="round"/>
</svg>
