<svg width="501" height="320" viewBox="0 0 501 320" fill="none" xmlns="http://www.w3.org/2000/svg">
<path d="M500.207 7.16055C500.078 5.46527 499.181 3.86667 497.685 2.66731C496.189 1.46794 494.197 0.751031 492.087 0.652269C383.573 -4.55436 296.783 21.6523 259.899 70.5773C234.762 103.934 235.777 143.331 262.577 182.016C243.664 198.713 231.175 219.456 226.621 241.737L175.895 200.969C194.531 173.2 194.92 144.859 176.802 120.804C149.981 85.2079 87.1395 66.1864 8.64203 69.8831C6.54344 69.9896 4.56525 70.7076 3.07837 71.9026C1.59149 73.0976 0.698036 74.6874 0.565535 76.374C-4.03418 139.426 19.6338 189.931 63.925 211.486C78.1393 218.501 94.4942 222.214 111.175 222.212C129.586 221.959 147.629 218.022 163.672 210.757L224.591 259.769V312.408C224.591 314.249 225.501 316.015 227.121 317.317C228.741 318.619 230.938 319.35 233.229 319.35C235.52 319.35 237.717 318.619 239.337 317.317C240.957 316.015 241.867 314.249 241.867 312.408V261.227C241.786 235.597 253.553 210.856 274.886 191.805C299.698 202.843 324.705 208.397 348.827 208.397C371.55 208.4 393.831 203.348 413.201 193.801C474.056 164.14 506.599 94.3889 500.207 7.16055ZM72.8653 199.598C35.5709 181.478 15.1205 138.316 17.4528 83.455C85.7143 81.5633 139.421 98.0162 162.139 127.989C176.132 146.577 176.37 168.549 163.132 190.625L101.111 140.884C99.4683 139.688 97.3155 139.045 95.0989 139.089C92.8822 139.132 90.7714 139.86 89.2035 141.12C87.6356 142.38 86.7307 144.076 86.6761 145.858C86.6215 147.639 87.4215 149.369 88.9103 150.69L150.823 200.448C123.333 211.087 95.9935 210.896 72.8653 199.598ZM404.239 181.895C369.579 198.764 328.463 198.539 287.454 181.461L412.1 81.2682C413.653 79.9568 414.507 78.2097 414.48 76.3995C414.453 74.5892 413.548 72.8589 411.956 71.5776C410.365 70.2963 408.213 69.5654 405.961 69.5406C403.708 69.5159 401.533 70.1992 399.899 71.4451L275.231 171.638C253.982 138.663 253.636 105.687 274.691 77.7798C307.321 34.3912 384.998 10.9093 483.363 14.1895C487.466 93.2435 458.14 155.671 404.239 181.895Z" fill="#FAFAFA"/>
</svg>
