<svg width="1376" height="783" viewBox="0 0 1376 783" fill="none" xmlns="http://www.w3.org/2000/svg">
<path d="M571.515 643.836C528.218 643.836 515.229 628.444 500.267 598.946C499.332 596.907 499.111 594.782 499.615 592.695C500.116 590.608 501.336 588.598 503.199 586.78C505.158 584.495 508.614 582.746 512.818 581.91C530.903 579.327 549.455 579.139 567.404 578.951C592.067 578.7 615.414 578.466 638.323 572.688C645.919 570.526 653.244 568.066 660.245 565.329C681.181 557.641 704.884 548.936 726.258 553.007C740.645 555.747 748.592 559.755 749.907 564.922C752.949 576.9 718.23 590.757 695.266 599.932C691.183 601.498 687.648 602.97 684.908 604.144C675.895 608.251 667.337 612.674 659.286 617.39C639.638 628.35 617.332 640.876 591.107 642.99C584.619 643.537 578.072 643.818 571.515 643.836ZM514.845 586.467C512.872 587.037 511.291 587.968 510.351 589.113C507.729 591.69 506.961 594.751 508.214 597.646C524.875 630.636 536.274 642.708 590.094 638.355C613.66 636.445 633.938 625.062 653.668 614.055C661.971 609.19 670.803 604.631 680.112 600.402C682.852 599.18 686.552 597.756 690.69 596.096C709.406 588.627 744.208 574.724 741.906 565.611C741.056 562.338 734.973 559.614 723.792 557.485C706.145 554.118 684.195 562.182 664.821 569.29C657.458 572.175 649.739 574.749 641.721 576.994C617.277 583.257 592.039 583.46 567.733 583.711C550.14 583.82 532.027 584.071 514.845 586.467Z" fill="#FFEFE9"/>
<path d="M1300.16 336.542C1288.34 336.503 1276.84 334.345 1267.27 330.373C1231.65 316.015 1216.74 281.381 1213.87 265.066C1209.89 242.315 1225.21 224.09 1240.01 206.491C1248.01 196.971 1256.26 187.138 1261.55 176.585C1265.99 167.723 1266.42 156.387 1267.03 144.393C1268.15 116.679 1269.44 85.2701 1322.55 75.1554C1334.33 72.9007 1338.99 74.2317 1343.62 76.1731C1344.19 76.408 1344.77 76.6586 1345.4 76.8934C1345.67 76.9891 1345.93 77.0991 1346.17 77.2223L1351.32 80.2285C1351.51 80.3267 1351.67 80.4371 1351.81 80.5573C1358.58 86.3035 1355.68 97.6866 1352.28 103.527C1337.97 128.031 1323.37 157.311 1323.37 188.626C1323.37 203.532 1335.23 215.071 1347.81 227.3C1368.06 247.013 1391.03 269.356 1362.94 309.501C1353.18 323.437 1336.82 332.408 1315.67 335.43C1310.6 336.163 1305.39 336.537 1300.16 336.542ZM1332.68 78.6627C1330.03 78.7522 1327.42 79.0689 1324.93 79.6021C1277.3 88.6835 1276.15 117.055 1275.03 144.502C1274.54 156.81 1274.07 168.428 1269.33 177.885C1263.85 188.845 1255.44 198.834 1247.41 208.511C1232.45 226.329 1218.31 243.145 1222.06 264.596C1225.24 282.696 1241.24 314.12 1271.99 326.521C1277.9 328.979 1284.71 330.649 1291.9 331.402C1299.1 332.155 1306.5 331.975 1313.56 330.874C1336.93 327.539 1349.18 316.453 1355.18 307.748C1381.79 269.747 1360.85 249.377 1340.6 229.68C1328.03 217.451 1315.04 204.816 1315.04 188.626C1315.04 156.638 1329.86 126.903 1344.36 102.039C1347.48 96.7001 1349.4 87.337 1345.07 83.36L1340.52 80.7138C1339.89 80.479 1339.29 80.2285 1338.69 79.9779C1337.03 79.1357 1334.9 78.6679 1332.68 78.6627Z" fill="#FFEFE9"/>
<path d="M559.019 434.527C557.304 434.53 555.591 434.461 553.895 434.324C541.07 433.274 531.972 428.342 526.93 419.653C521.888 410.963 530.821 402.633 539.481 394.601C544.961 389.559 550.031 384.783 551.319 380.337C562.718 341.193 522.929 315.671 433.02 304.257L429.294 303.787C415.976 302.112 402.22 300.39 390.354 296.475C389.502 296.19 388.718 295.843 388.025 295.442C386.458 294.578 385.372 293.466 384.915 292.248C384.457 291.031 384.643 289.763 385.455 288.607C386.263 287.452 387.655 286.459 389.455 285.758C391.256 285.056 393.382 284.677 395.561 284.669C415.729 284.372 433.075 283.526 448.393 282.791C499.062 280.364 535.644 278.61 613.03 298.26C664.273 311.271 681.537 334.413 667.233 371.099C662.84 382.526 654.756 393.386 643.392 403.118C632.294 412.247 590.998 434.527 559.019 434.527ZM493.773 285.985C479.386 285.985 465.082 286.674 449.106 287.441C433.678 288.192 416.222 289.007 395.78 289.335C395.204 289.315 394.634 289.398 394.147 289.573C393.662 289.749 393.283 290.007 393.067 290.312C392.853 290.616 392.812 290.953 392.949 291.272C393.086 291.592 393.396 291.878 393.834 292.091C394.026 292.198 394.237 292.292 394.464 292.373C405.234 295.927 418.36 297.571 431.047 299.168L434.802 299.638C529.753 311.694 571.816 339.095 559.43 381.057C557.868 386.412 552.086 391.782 546.496 396.996C538.439 404.465 530.849 411.526 534.713 418.134C538.768 425.086 545.427 428.844 555.073 429.642C582.311 431.881 625.142 409.867 636.624 400.394C647.336 391.14 654.987 380.845 659.204 370.018C672.659 335.431 657.395 314.591 609.687 302.488C557.786 289.335 525.533 285.985 493.773 285.985Z" fill="#FFEFE9"/>
<path d="M438.118 17.9591C432.253 23.6115 426.17 29.4673 426.17 36.748C426.17 42.4631 430.363 47.583 434.391 52.5464C437.761 56.1874 440.241 60.0752 441.762 64.1017C444.913 75.0618 433.541 84.4564 423.621 90.5158C393.314 108.757 330.698 122.441 289.621 119.811C268.932 118.48 255.313 114.519 247.996 107.723C233.692 94.4614 246.078 72.4158 258.793 52.797C260.711 49.8533 262.575 46.628 264.548 43.2146C271.426 31.3618 279.208 17.9122 291.951 10.4593C293.321 9.6763 294.965 8.76813 296.828 7.75038C300.747 5.57406 305.488 2.95929 310.173 0.0468924H298.966C296.225 1.61266 293.485 3.08449 291.266 4.36843C289.375 5.41744 287.676 6.35687 286.278 7.15546C272.029 15.3912 263.918 29.389 256.765 41.7428C254.82 45.1247 252.984 48.3033 251.12 51.1372C237.72 71.8208 224.704 95.119 241.146 110.182C249.778 118.183 265.808 122.989 288.881 124.477C292.622 124.713 296.382 124.828 300.144 124.821C342.838 124.821 400.576 111.293 429.76 93.7411C445.955 84.0023 452.97 73.4962 450.038 63.35C448.402 58.8956 445.7 54.5913 442.009 50.558C438.172 45.8606 434.528 41.4295 434.528 36.748C434.528 30.7513 439.762 25.7878 445.325 20.3547C451.326 14.5615 457.957 8.12616 457.464 0H449.243C449.654 6.79532 443.927 12.2442 438.118 17.9591Z" fill="#FFEFE9"/>
<path d="M140.084 18.2253C149.839 22.2962 162.664 23.22 178.174 20.981C191.273 19.0864 205.906 10.5532 222.512 0.046875H211.359C198.069 8.2984 185.792 15.0312 176.174 16.4246C162.938 18.3348 152.744 17.6772 144.934 14.4361C137.7 11.3987 132.987 6.30996 129.781 0.046875H121.148C124.766 7.71911 130.52 14.2326 140.084 18.2253Z" fill="#FFEFE9"/>
<path d="M520.655 34.6029C518.134 44.154 514.188 56.5234 505.912 67.4836C491.572 86.0427 472.947 103.42 450.531 119.153C439.57 126.841 424.416 133.558 409.673 140.072C405.645 141.841 401.699 143.579 397.945 145.317C384.627 151.485 369.336 156.111 352.922 158.94C263.068 174.456 221.771 132.916 181.846 92.7392C151.291 62.0191 122.436 32.9276 73.4946 29.4986C48.8319 27.7449 24.3612 29.389 0 32.4735V37.296C24.1968 34.1645 48.5031 32.4422 72.4805 34.1645C117.339 37.296 145.208 65.3855 174.693 95.0565C208.536 129.111 246.242 167.081 316.558 167.081C329.722 167.006 342.794 165.829 355.361 163.59C372.789 160.599 389.025 155.69 403.151 149.137C406.878 147.431 410.797 145.708 414.77 143.939C429.897 137.269 445.516 130.38 456.998 122.269C479.893 106.17 498.916 88.3923 513.558 69.4094C522.217 57.8855 526.273 45.1247 528.849 35.2918C532.326 23.6374 532.548 11.7413 529.506 0.046875H521.285C524.19 9.64486 524.3 20.9652 520.655 34.6029Z" fill="#FFEFE9"/>
<path d="M1370.15 494.824C1359.92 494.377 1349.64 494.305 1339.4 494.604C1284.15 496.467 1234.56 511.828 1186.57 526.608C1151.94 537.302 1116.09 548.372 1078.85 554.04C987.08 568.038 913.531 551.613 866.206 506.535C851.161 492.224 840.721 480.935 843.16 465.685C846.64 443.764 860.588 424.975 875.358 405.169C882.702 395.305 890.293 385.096 896.486 374.465C905.008 359.84 906.296 345.827 907.666 330.984C908.105 326.286 908.543 321.276 909.283 316.36C910.543 307.576 915.421 298.682 920.244 290.086C924.149 283.446 927.333 276.674 929.781 269.81C937.316 246.167 916.6 204.205 887.936 185.119C851.764 160.99 799.37 150.578 732.233 154.163C664 157.812 602.014 174.785 571.131 184.586C525.231 199.163 443.982 220.599 415.784 200.463C414.061 199.262 412.806 197.867 412.096 196.37C411.386 194.872 411.244 193.305 411.674 191.773C414.058 180.969 437.679 168.287 451.244 162.431C461.821 157.906 473.166 153.396 484.127 149.043C537.727 127.78 593.136 105.782 603.96 65.5733C610.729 40.3961 606.015 20.4485 592.341 0.109375H583.463C597.548 20.3545 602.645 40.0046 595.821 64.8531C585.436 103.01 531.616 124.414 479.332 145.129C468.37 149.497 456.889 154.038 446.201 158.611C442.173 160.349 406.796 175.834 403.398 191.115C402.834 193.271 403.064 195.471 404.072 197.576C405.083 199.679 406.851 201.637 409.262 203.328C424.334 214.101 452.586 216.089 493.28 209.231C517.147 205.207 544.633 198.271 575.022 188.626C605.412 178.981 666.137 162.337 732.891 158.783C797.205 155.337 847.243 165.218 881.606 188.109C908.461 206.006 928.629 246.794 921.587 268.902C919.192 275.573 916.09 282.156 912.297 288.615C907.447 297.461 902.432 306.605 901.089 315.906C900.35 320.9 899.884 325.879 899.445 330.686C898.13 345.201 896.869 358.87 888.676 372.961C882.592 383.405 874.975 393.52 867.795 403.29C853.436 422.611 838.556 442.59 834.911 465.231C832.171 481.859 843.763 494.338 859.081 508.915C897.089 545.1 951.182 563.607 1017.66 563.607C1039.04 563.505 1060.3 561.805 1080.91 558.549C1119.11 552.74 1155.36 541.53 1190.52 530.71C1237.71 516.133 1286.43 501.055 1339.92 499.27C1349.97 498.974 1360.03 499.046 1370.06 499.489L1370.15 494.824Z" fill="#FFEFE9"/>
<path d="M1370.14 417.038C1326.99 425.286 1285.18 435.67 1245.19 448.071C1231 452.632 1217.35 457.732 1204.36 463.337C1190.3 469.115 1175.78 475.096 1160.27 479.527C1111.11 493.618 1021.94 493.618 980.667 472.669C924.546 444.157 940.906 409.099 956.717 375.185C962.746 362.283 972.857 346.235 983.599 329.231C1020.48 270.734 1066.41 197.927 1015.99 154.712C959.841 106.596 836.062 109.211 738.946 127.703C731.219 129.174 721.628 131.648 711.543 134.279C680.167 142.374 637.281 153.491 613.606 143.344C606.508 140.307 602.644 137.081 601.767 133.606C600.069 126.685 610.18 119.044 619.936 111.685C623.772 108.804 627.389 106.064 630.376 103.324C634.377 99.6757 638.597 95.9963 642.981 92.0976C671.069 67.3117 702.939 39.2379 697.102 9.11295C696.488 6.05175 695.472 3.02132 694.06 0.0473633H685.538C687.136 3.19246 688.273 6.40822 688.936 9.66098C694.417 38.0637 663.424 65.386 636.076 89.5141C631.637 93.4284 627.444 97.1236 623.416 100.803C620.675 103.371 617.086 106.017 613.386 108.835C602.589 116.977 591.464 125.401 593.629 134.263C594.807 138.96 599.877 143.329 608.673 147.102C636.076 158.909 679.921 147.619 714.887 138.553C724.834 135.985 734.205 133.559 741.522 132.165C835.761 114.222 955.566 111.403 1009.14 157.327C1057.26 198.569 1012.13 270.139 975.844 327.634C965.075 344.732 954.881 360.89 948.77 373.98C932.329 409.256 915.284 445.754 975.214 476.176C996.04 486.76 1028.98 493.07 1067.89 493.947C1070.91 493.947 1073.92 494.057 1076.93 494.057C1109 494.057 1140.95 490.283 1163.94 483.723C1180.05 479.12 1194.85 473.029 1209.15 467.142C1221.86 461.666 1235.19 456.676 1249.05 452.204C1287.85 440.195 1328.36 430.085 1370.14 421.986V417.038Z" fill="#FFEFE9"/>
<path d="M1370.14 0.046875H1369.49C1369.49 6.30996 1363.29 12.4164 1351.26 18.4288C1296.16 45.9233 1221.65 41.2887 1149.52 36.795C1114.31 34.6029 1077.92 32.3327 1045.06 34.0393C1016.21 35.605 991.519 43.1832 967.624 50.5579C943.728 57.9326 921.724 64.7593 895.444 66.4189C861.109 68.611 824.197 66.9356 796.794 61.9723C759.389 55.1926 738.481 42.8545 734.644 25.2868C732.781 16.8161 735.631 8.59585 739.193 0.046875H730.753C727.328 8.4236 724.532 17.0196 726.478 25.8817C734.397 62.3793 807.125 72.0712 864.917 72.0712C875.418 72.0712 885.911 71.7471 896.348 71.1005C924.217 69.3313 948.277 61.894 971.542 54.6914C995.766 47.2073 1018.65 40.1301 1045.8 38.7208C1077.84 37.0611 1112.23 39.1905 1148.62 41.4609C1222.61 46.0641 1298.95 50.8554 1356.69 21.9517C1361.84 19.4473 1366.36 16.5555 1370.14 13.3559V0.046875Z" fill="#FFEFE9"/>
<path d="M1019 0.046875C1014.18 0.955045 1009.22 1.89447 1004.12 2.89659C961.623 11.1011 913.448 20.4172 875.331 7.37459C869.664 5.53704 864.734 3.04077 860.862 0.046875H851.052C855.762 4.84212 862.744 8.78167 871.193 11.4143C885.856 16.3132 902.605 18.8004 919.586 18.601C948.524 18.601 978.804 12.7451 1006.75 7.34333C1015.55 5.63657 1023.88 4.0239 1031.88 2.64602C1038.71 1.51312 1045.67 0.644666 1052.71 0.046875H1019Z" fill="#FFEFE9"/>
<path d="M1370.15 112.781C1369.82 113.407 1369.43 114.049 1369.1 114.691C1358.75 135.422 1360.31 158.533 1370.15 181.439V112.781Z" fill="#FFEFE9"/>
<path d="M1370.14 394.929L1365.92 395.571C1346.74 398.577 1329.48 404.324 1312.9 409.866C1304.68 412.575 1296.46 415.393 1287.91 417.805C1238.91 431.802 1124.34 448.634 1081.46 424.068C983.49 368.155 1044.38 281.209 1088.83 217.686C1092.03 212.989 1096.12 208.495 1100.42 203.595C1108.91 194.028 1117.68 184.132 1119.98 173.642C1124.15 154.602 1096.94 143.892 1072.93 134.357C1045.17 123.397 1021.2 114.002 1038.46 94.1953C1043.04 88.9501 1050.27 84.018 1057.29 79.2268C1059.48 77.661 1061.67 76.2362 1063.75 74.7488C1074 67.4211 1092.91 69.0651 1109.57 70.5055C1112.48 70.7561 1115.27 71.0067 1117.96 71.1946C1154.43 73.8093 1239.87 83.1099 1245.74 113.266C1250.07 135.453 1231.81 151.721 1212.52 168.929C1204.64 175.718 1197.37 182.736 1190.77 189.957C1184.63 197.05 1178.63 203.595 1172.84 209.858C1134.29 251.522 1108.83 279.048 1162.6 332.8C1175.39 345.608 1202.93 368.123 1243.52 375.075C1276.95 380.806 1323.89 377.455 1370.17 367.247V362.08C1324.6 372.429 1277.85 376.078 1245.87 370.597C1208.03 364.115 1181.91 342.68 1169.72 330.483C1118.2 278.97 1141.49 253.761 1180.11 212.066C1185.94 205.802 1191.97 199.226 1198.16 192.165C1204.61 185.081 1211.71 178.197 1219.43 171.544C1238.61 154.32 1258.51 136.658 1253.87 112.828C1247.38 79.3521 1157.36 69.3626 1118.97 66.6226C1116.23 66.4347 1113.49 66.1842 1110.75 65.9492C1092.83 64.3836 1070.49 62.4421 1057.26 71.8991C1055.23 73.3553 1053.09 74.8115 1050.93 76.2989C1043.26 81.1352 1036.59 86.463 1031.06 92.1756C1010.59 115.552 1039.88 127.123 1068.19 138.302C1092.42 147.885 1115.33 156.92 1111.76 173.141C1109.65 182.817 1101.21 192.337 1093.02 201.544C1088.83 206.241 1084.5 211.173 1081.13 215.964C1035.83 280.676 973.789 369.282 1075.65 427.45C1093.29 437.549 1121.19 441.338 1151.88 441.338C1201.81 441.338 1259.11 431.286 1291.64 422.016C1300.35 419.527 1308.87 416.677 1317.09 413.922C1333.21 408.52 1349.98 402.961 1368.14 400.112L1370.2 399.783L1370.14 394.929Z" fill="#FFEFE9"/>
<path d="M1370.15 731.424C1359.57 732.755 1349.02 734.039 1338.63 735.292C1289.17 741.288 1242.47 746.956 1211.21 755.897C1187.75 762.587 1166.73 771.756 1149.25 782.922H1160.59C1176.28 773.599 1194.64 765.879 1214.88 760.093C1245.21 751.434 1291.42 745.829 1340.33 739.895C1350.17 738.705 1360.14 737.484 1370.15 736.231V731.424Z" fill="#FFEFE9"/>
<path d="M844.475 766.168C835.021 739.175 787.696 731.424 745.825 724.598C714.476 719.462 684.853 714.624 677.125 702.583C670.713 692.641 679.098 677.938 702.775 657.646C713.601 648.109 728.755 640.431 746.619 635.428C770.076 628.727 790.848 618.8 810.084 605.068C816.113 600.778 820.36 595.329 824.471 590.069C834.254 577.543 843.653 565.58 875.961 565.58C880.817 565.596 885.664 565.828 890.457 566.269C915.12 568.43 927.944 575.131 941.563 582.224C962.253 593.012 983.654 604.145 1045.89 598.242C1109.35 592.198 1177.42 574.85 1237.71 559.552L1248.34 556.843C1261.01 553.447 1273.33 549.63 1285.22 545.413C1304.93 538.728 1325.31 531.792 1348.25 529.192C1355.62 528.347 1362.99 527.721 1370.17 527.298V522.601C1362.34 523.055 1354.44 523.712 1346.52 524.62C1322.3 527.376 1301.31 534.516 1281 541.405C1269.38 545.531 1257.35 549.264 1244.97 552.585L1234.31 555.293C1174.65 570.481 1106.99 587.704 1044.54 593.638C986.312 599.197 967.267 589.286 947.126 578.78C933.206 571.53 918.819 564.046 891.745 561.65C841.159 557.188 828.307 573.66 816.99 588.19C813.581 593.144 809.117 597.839 803.7 602.172C785.203 615.355 765.335 624.875 742.975 631.263C723.889 636.651 707.68 644.863 696.034 655.047C670.439 676.968 661.999 692.625 669.48 704.212C678.66 718.476 710.228 723.642 743.632 729.107C785.065 735.887 827.924 742.901 836.391 767.092C838.211 772.317 839.43 777.604 840.036 782.922H848.257C847.64 777.296 846.377 771.698 844.475 766.168Z" fill="#FFEFE9"/>
<path d="M1370.14 689.274C1361.57 691.356 1353.1 693.454 1344.77 695.537C1291.55 708.736 1241.3 721.199 1182.08 727.979C1150.43 731.596 1113.57 735.181 1107.43 734.837C1086.61 726.617 1058.11 698.292 1052.63 685.594C1040.82 658.616 1086.22 639.671 1122.72 624.452C1128.89 621.868 1134.73 619.441 1140.1 617.046C1160.35 608.058 1181.69 606.524 1204.3 604.895C1218.54 604.135 1232.62 602.561 1246.31 600.198C1263.37 596.657 1280.01 592.473 1296.1 587.672C1315.97 582.067 1336.49 576.274 1356.77 573.377C1361.13 572.751 1365.62 572.281 1370.17 571.89V567.192C1364.99 567.603 1359.85 568.168 1354.77 568.883C1333.64 571.905 1312.71 577.808 1292.46 583.523C1276.7 588.222 1260.41 592.318 1243.71 595.783C1230.52 598.056 1216.97 599.572 1203.26 600.308C1180.54 601.952 1157.09 603.643 1135.05 613.429C1129.79 615.762 1124.09 618.126 1117.87 620.741C1079.51 636.79 1031.5 656.753 1044.65 686.815C1050.68 700.625 1080.03 730.108 1103.4 739.017C1103.9 739.205 1104.69 739.503 1108.39 739.503C1115.65 739.503 1134.21 738.313 1183.69 732.66C1243.79 725.787 1294.43 713.23 1348.11 699.921L1370.23 694.472L1370.14 689.274Z" fill="#FFEFE9"/>
<path d="M1370.15 655.767C1360.2 657.943 1350.36 660.198 1340.61 662.421C1299.86 671.816 1257.68 681.445 1212.96 683.763C1182.41 685.328 1164.02 683.293 1162.49 678.126C1159.23 667.166 1217.1 642.443 1251.24 637.557C1283.91 632.86 1318.57 627.568 1350.8 620.209C1355.65 619.097 1362.31 617.719 1370.15 616.201V611.3C1360.01 613.226 1352.06 614.854 1347.76 615.841C1315.97 623.106 1281.63 628.366 1249.24 633.064C1216.85 637.761 1149.8 663.517 1154.4 678.971C1156.9 687.411 1177.01 689.117 1194 689.117C1202 689.117 1209.29 688.742 1213.7 688.507C1259.63 686.127 1302.35 676.325 1343.67 666.853C1352.42 664.848 1361.24 662.829 1370.15 660.856V655.767Z" fill="#FFEFE9"/>
<path d="M1277.44 782.922H1276.98C1272.64 782.334 1268.11 782.36 1263.79 783L1277.44 782.922Z" fill="#FFEFE9"/>
<path d="M1370.14 769.362C1361.09 772.419 1353.99 777.049 1349.87 782.577C1349.79 782.688 1349.73 782.804 1349.67 782.922H1358.61C1361.37 779.847 1365.31 777.171 1370.14 775.093V769.362Z" fill="#FFEFE9"/>
<path d="M1028.16 721.653C1006.76 712.493 993.492 703.569 982.367 690.839C972.666 679.754 967.514 667.932 962.527 656.502C956.169 641.878 949.565 626.753 933.425 612.912C926.684 607.134 916.106 603.799 901.967 602.985C876.345 601.545 847.928 608.888 843.187 611.597C834.363 616.639 826.143 620.756 818.881 624.389C797.397 635.161 781.887 642.943 773.31 662.546C766.569 677.922 799.397 688.929 834.144 700.578C863.904 710.568 894.677 720.933 899.117 733.584C901.555 740.098 898.815 754.737 896.075 771.616C895.445 775.264 894.787 779.053 894.157 782.921H902.377C902.98 779.21 903.611 775.577 904.214 772.07C907.31 754.08 909.694 739.863 907.255 732.66C902.076 717.895 869.686 707.045 838.364 696.523C806.33 685.797 776.105 675.651 781.339 663.642C789.286 645.464 803.261 638.465 824.362 627.881C831.706 624.201 840.036 620.052 849.024 614.869C852.093 613.116 874.372 607.463 895.28 607.463C897.281 607.463 899.254 607.463 901.199 607.62C912.736 608.277 921.313 610.923 926.629 615.449C941.975 628.601 948.085 642.661 954.58 657.551C959.677 669.232 964.911 681.304 975.023 692.859C986.778 706.293 1000.75 715.703 1023.22 725.333C1046.93 735.479 1042.74 761.251 1036.21 782.842H1044.43C1051.26 760.28 1055.15 733.224 1028.16 721.653Z" fill="#FFEFE9"/>
<path d="M806.221 516.462C770.789 502.965 716.75 521.159 664.493 538.633C635.062 548.513 607.249 557.829 586.45 559.99C531.315 565.721 481.25 564.124 423.101 559.99C411.044 559.129 397.288 556.123 382.764 552.944C357.142 547.339 330.698 541.561 307.433 545.992C281.346 550.956 274.194 580.439 268.466 604.113C265.726 614.885 263.369 625.078 259.725 629.353C258.19 630.355 249.394 633.016 240.926 635.616C200.836 647.813 117.422 673.193 88.1278 718.271C78.1806 733.569 69.3022 752.577 89.0869 763.866C113.75 777.958 164.472 764.179 194.78 755.959C199.713 754.612 203.987 753.454 207.467 752.608C272.029 736.794 361.938 721.638 423.485 739.221C454.34 748.036 485.47 765.432 508.653 782.952H519.038C494.842 763.882 461.246 744.764 427.156 735.025C406.385 729.091 382.709 726.679 357.937 726.679C305.871 726.679 249.038 737.311 204.234 748.287C200.617 749.164 196.287 750.353 191.245 751.716C162.883 759.404 115.421 772.274 94.8964 760.546C78.4547 751.152 86.6757 733.929 95.8281 719.915C124.053 676.45 205.522 651.664 244.79 639.733C260.355 635.036 265.37 633.471 267.014 631.529C271.289 626.628 273.755 616.482 276.605 604.739C281.757 583.523 288.799 554.463 310.037 550.423C330.479 546.525 355.553 551.989 379.804 557.313C394.849 560.601 409.016 563.701 422.06 564.64C481.003 568.836 531.671 570.449 587.929 564.64C610.153 562.339 638.57 552.803 668.658 542.72C716.394 526.702 770.515 508.54 801.645 520.392C827.321 530.178 808.276 551.175 795.671 565.063C794.355 566.504 793.122 567.866 792.026 569.118C775.749 587.719 727.766 621.79 692.526 630.73L687.621 631.967C653.696 640.516 596.945 654.827 591.355 677.217C583.901 706.967 631.253 728.183 681.373 750.588C704.556 760.938 727.958 771.444 745.934 782.952H756.896C737.905 769.878 711.845 758.229 686.47 746.94C638.268 725.411 592.752 705.072 599.521 677.953C604.481 658.131 660.739 643.945 690.964 636.336L695.897 635.083C733.302 625.579 782.188 590.945 799.397 571.279L802.987 567.286C816.086 552.756 838.008 528.581 806.221 516.462Z" fill="#FFEFE9"/>
<path d="M624.211 767.843C612.729 758.652 602.535 748.475 592.67 738.626C586.532 732.504 580.174 726.1 573.488 720.151C561.705 709.378 556.443 696.977 551.374 684.968C545.729 671.722 539.919 658.022 525.341 646.357C505.145 630.183 478.263 622.871 452.285 615.668C436.528 611.331 420.196 606.837 405.124 600.387C400.247 598.288 394.876 594.217 389.203 589.912C374.954 579.077 357.197 565.596 332.233 572.689C319.298 576.384 311.434 580.924 308.2 586.577C302.72 595.971 312.009 606.18 320.093 615.152C326.396 622.119 332.342 628.727 329.027 632.531C323.19 639.202 305.624 642.349 290.115 645.057C282.932 646.208 275.914 647.674 269.124 649.441C255.258 653.403 133.945 689.039 146.332 719.556C146.73 720.887 147.732 722.134 149.237 723.176C150.742 724.215 152.697 725.014 154.909 725.49C171.679 729.028 206.618 715.203 243.996 699.483C250.594 696.534 257.464 693.791 264.575 691.263C315.709 676.67 390.354 667.949 433.404 683.324C513.722 712.009 532.767 732.332 561.595 763.083C567.349 769.221 573.488 775.766 580.53 782.827H590.012C582.01 774.905 575.187 767.64 568.829 760.907C540.44 730.61 519.943 708.721 437.761 679.363C419.648 672.912 397.917 670.423 375.502 670.423C332.835 670.423 287.812 679.425 260.903 687.098C253.3 689.72 245.979 692.601 238.981 695.725C215.442 705.636 171.625 724.065 157.622 721.106C156.693 720.894 155.882 720.542 155.278 720.086C154.675 719.631 154.3 719.091 154.196 718.522C145.29 696.602 227.8 666.492 272.659 653.669C279.071 652.028 285.683 650.657 292.444 649.567C309.488 646.513 328.835 643.053 336.288 634.598C341.495 628.664 334.617 621.039 327.327 612.959C320.038 604.88 311.626 595.58 315.955 588.002C318.449 583.617 324.971 579.969 335.823 576.869C353.305 571.859 366.212 580.267 382.572 592.667C388.6 597.255 394.3 601.592 400.11 604.082C415.811 610.814 432.5 615.402 448.64 619.833C474.837 627.036 499.582 633.831 518.572 649.019C532.274 659.979 537.59 672.614 543.235 686.017C548.469 698.387 553.895 711.163 566.39 722.578C572.885 728.512 579.188 734.806 585.271 740.897C595.246 750.839 605.549 761.126 617.278 770.505C623.027 774.864 629.357 778.963 636.213 782.765L636.378 782.859H647.832C645.941 781.716 643.995 780.588 642.105 779.477C635.64 775.858 629.658 771.97 624.211 767.843Z" fill="#FFEFE9"/>
<path d="M222.566 777.879C211.172 778.608 200.032 780.306 189.519 782.921H218.072C219.799 782.765 221.525 782.624 223.224 782.561C239.234 781.886 255.316 782.007 271.289 782.921H319.846C288.089 778.318 255.256 776.616 222.566 777.879Z" fill="#FFEFE9"/>
<path d="M194.259 531.149C185.6 528.488 177.434 525.967 170.145 523.461C154.826 518 140.176 511.947 126.3 505.346C92.3752 489.923 60.2862 475.346 0 477.601V482.298C57.5461 480.075 87.0316 493.493 121.148 509.025C135.321 515.752 150.271 521.924 165.897 527.501C173.378 530.053 181.626 532.59 190.368 535.33C210.81 541.593 231.965 548.138 244.68 555.403C247.119 556.796 246.626 562.449 246.379 565.173C246.379 566.191 246.215 567.115 246.215 567.85C246.215 587.407 237.145 604.567 192.889 624.812C184.668 628.57 174.666 630.731 164.089 633.001C152.607 635.491 140.714 638.059 131.013 642.897C58.3682 679.175 -18.8806 732.504 17.9764 782.921H26.9642C-11.2625 734.54 64.9721 682.119 136.576 646.388C145.126 642.098 155.758 639.797 167.13 637.354C177.845 635.037 189.052 632.657 198.15 628.429C232.02 612.944 254.573 596.723 254.573 567.803C254.573 567.13 254.573 566.238 254.737 565.361C255.148 560.664 255.642 554.902 250.627 552.036C236.925 544.286 215.25 537.616 194.259 531.149Z" fill="#FFEFE9"/>
<path d="M0 656.769V662.045C1.82754 662.67 3.51997 663.417 5.04213 664.269C7.07009 665.443 7.78246 668.089 6.63156 671.706C5.24646 675.863 3.02087 679.914 0 683.778V694.566C7.0701 687.035 12.9343 678.83 14.7429 672.458C16.2499 667.15 14.9346 663.283 10.8516 660.95C7.70375 659.194 4.02773 657.777 0 656.769Z" fill="#FFEFE9"/>
<path d="M90.731 551.316C85.2504 546.024 79.6053 540.544 68.5345 536.755C52.3119 531.196 28.2248 528.049 0.0273438 527.705V532.402C24.8545 532.746 48.4757 535.33 64.3418 540.763C73.604 543.894 78.4817 548.592 83.6609 553.696C86.5439 556.644 89.7951 559.469 93.389 562.151C113.996 576.869 121.34 588.769 115.311 597.537C103.747 613.977 47.4616 618.8 0.219114 622.385V627.082C49.9007 623.309 109.612 618.299 123.012 599.243C130.465 588.643 123.011 575.538 100.021 559.16C96.5997 556.676 93.4954 554.054 90.731 551.316Z" fill="#FFEFE9"/>
<path d="M709.735 224.795C704.035 223.589 698.774 222.227 693.622 220.912C681.181 217.702 669.425 214.649 653.559 213.866C612.866 211.752 563.129 216.167 510.598 220.833C419.401 228.944 325.081 237.305 256.957 215.071C207.138 198.803 182.695 170.244 159.046 142.639C136.028 115.787 114.325 90.4216 71.3572 75.6723C51.3805 68.8143 26.2521 66.2778 0.109703 66.6848V71.3822C22.7171 71.0533 47.2975 72.9479 67.2739 79.7118C108.214 93.8036 129.424 118.511 151.867 144.722C176.063 172.906 201.192 202.17 253.093 219.158C323.738 242.221 423.786 233.25 512.078 225.421C564.143 220.724 613.469 216.418 653.038 218.485C667.534 219.236 678.688 222.102 690.471 225.123C695.705 226.47 701.13 227.864 707.049 229.132C763.883 241.313 795.588 253.041 813.099 268.369C832.5 285.358 835.898 307.936 824.06 341.599C817.867 359.245 805.645 373.165 792.711 387.898C783.841 397.544 775.962 407.477 769.117 417.648C764.861 424.773 761.266 432.021 758.348 439.365C751.826 454.49 745.085 470.116 727.382 481.64C675.783 515.35 598.808 534.546 504.789 537.177C424.717 539.4 334.891 529.113 258.382 508.993C230.184 501.634 203.329 491.692 177.434 482.016C142.495 469.02 106.57 455.586 65.7668 447.851C46.5848 444.187 24.3339 443.028 0 444.344V449.041C23.5665 447.726 44.9133 448.806 63.2459 452.298C102.953 459.86 138.549 473.122 172.857 485.946C199.082 495.685 226.074 505.784 254.847 513.362C326.451 532.076 404.157 541.946 482.894 542.328C490.383 542.328 497.793 542.223 505.118 542.015C601.411 539.338 680.496 519.578 733.493 484.881C752.511 472.48 759.499 456.275 766.24 440.617C769.087 433.438 772.6 426.35 776.763 419.386C783.495 409.365 791.245 399.577 799.973 390.075C812.578 375.701 825.649 360.858 832.034 342.586C844.283 307.623 840.502 283.964 819.84 265.864C801.315 249.627 768.432 237.352 709.735 224.795Z" fill="#FFEFE9"/>
<path d="M585.627 256.83C550.195 251.773 514.654 254.983 480.263 258.083C469.987 259.006 459.382 259.962 449.024 260.682C440.337 261.277 431.595 261.903 422.827 262.529C352.264 267.587 279.318 272.816 210.18 263.845C154.498 256.658 88.3469 229.649 73.9878 196.971C70.206 188.329 70.6993 178.183 71.2475 167.222C72.371 144.174 73.659 118.042 26.4163 107.911C17.9348 106.192 8.99952 105.318 0 105.328V110.025C8.03257 110.018 16.0062 110.808 23.5665 112.358C65.3009 121.314 64.2048 143.563 63.0539 167.16C62.5333 177.822 62.0127 188.83 66.0683 198.115C75.0564 218.642 101.062 234.127 121.313 243.521C147.099 255.515 178.858 264.581 208.372 268.417C278.907 277.576 352.593 272.3 423.841 267.195C432.609 266.553 441.351 265.943 449.983 265.348C460.505 264.627 471.193 263.657 481.551 262.717C515.12 259.695 549.839 256.564 583.627 261.386C618.511 266.365 654.518 279.33 679.948 296.068C707.871 314.418 720.559 335.211 715.572 354.705C707.926 385.347 677.674 412.137 625.636 434.307C532.466 473.968 395.451 487.23 308.036 479.839C268.548 476.536 231.691 465.889 196.013 455.68C182.613 451.813 168.61 447.851 154.908 444.266C133.397 438.738 114.215 428.608 93.8822 417.93C65.7668 402.946 36.6102 387.664 0 384.908V389.699C33.8152 392.58 61.4647 407.142 88.4016 421.234C108.296 431.724 128.903 442.575 151.62 448.415C165.322 451.906 179.023 455.884 192.313 459.735C228.567 470.194 266.027 481.014 306.94 484.474C396.027 492.005 535.809 478.493 630.678 438.065C683.757 415.44 715.955 386.834 723.847 355.347C729.026 334.522 715.627 312.367 686.169 292.967C659.67 275.619 622.046 262.091 585.627 256.83Z" fill="#FFEFE9"/>
<path d="M384.216 310.786C366.815 306.809 348.592 302.957 331.027 299.247C295.951 291.809 259.505 284.121 227.444 274.993C217.25 272.081 203.877 272.378 190.943 272.676C183.64 272.997 176.299 272.919 169.021 272.441C150.168 270.64 127.067 263.313 109.036 257.144C77.2488 246.183 38.6656 219.91 31.8146 196.377C30.3075 191.257 29.5128 185.792 28.636 180.015C26.1424 162.886 23.2924 143.736 0 132.854V139.399C15.8664 149.404 18.2229 165.109 20.4974 180.438C21.3744 186.309 22.2238 191.852 23.7583 197.16C31.0202 222.024 71.4943 249.753 104.871 261.183C123.505 267.571 147.482 275.165 167.733 277.091C175.581 277.627 183.501 277.725 191.382 277.389C203.275 277.122 215.579 276.841 223.882 279.205C256.217 288.443 292.8 296.178 328.177 303.662C345.715 307.373 363.801 311.209 381.174 315.17C414.935 322.889 472.919 350.196 463.383 374.872C456.806 391.813 431.431 403.604 411.317 410.493C386.723 418.7 359.691 424.248 331.575 426.855C257.889 433.337 141.673 397.842 56.8335 371.944C39.4603 366.636 23.0733 361.642 9.18012 357.665C6.08361 356.772 3.01445 355.911 0 355.065V360.311L5.48066 361.876C19.182 365.822 35.6238 370.817 52.9149 376.093C131.671 400.143 237.09 432.335 312.968 432.335C319.6 432.349 326.223 432.072 332.781 431.505C381.448 427.231 458.478 408.896 471.302 375.89C482.072 348.254 421.292 319.257 384.216 310.786Z" fill="#FFEFE9"/>
<path d="M202.946 297.54L197.465 296.71L180.421 294.111C131.918 286.752 65.4927 276.684 32.4449 260.541C20.2782 254.466 8.60454 243.991 0 233.156V243.662C7.86453 251.789 17.2638 259.163 27.4028 264.017C61.7936 280.849 129.259 291.089 178.53 298.558C184.531 299.466 190.231 300.327 195.52 301.157L201 301.986C229.992 306.402 255.039 310.222 248.599 330.452C245.859 338.641 237.172 345.812 223.087 351.198C201.85 359.324 169.46 362.847 144.304 359.763C104.487 354.987 65.7669 336.856 28.4716 319.304C18.8806 314.81 9.28955 310.363 0 306.167V312.148C7.67276 315.64 15.4279 319.272 23.265 322.936C61.3824 340.833 100.815 359.34 142.413 364.428C149.422 365.272 156.569 365.687 163.732 365.665C186.286 365.714 208.394 362.074 227.444 355.175C243.42 349.068 253.449 340.833 256.464 331.36C264.328 306.934 231.719 301.908 202.946 297.54Z" fill="#FFEFE9"/>
</svg>
