<svg width="136" height="106" viewBox="0 0 136 106" fill="none" xmlns="http://www.w3.org/2000/svg">
<path d="M136 55.3431C136 88.5089 101.641 86.2523 60.3463 86.2523C19.0517 86.2523 0 108.821 0 75.6548C0 42.489 16.6967 10.5986 57.9913 10.5986C99.286 10.5986 136 22.1774 136 55.3431Z" fill="#FDECE5" fill-opacity="0.2"/>
<path d="M59.2289 56.9911L69.178 66.4632H83.0324C83.0947 61.7576 83.0933 59.7811 83.0933 59.7811C85.5142 58.7276 88.9547 56.4554 90.6994 54.8498V35.8241L68.6381 47.8644C71.0921 46.4426 72.9706 43.7563 74.4887 42.5515C76.6189 40.8606 79.1988 39.4249 81.2727 37.6652C83.3466 35.9054 85.1318 33.7193 86.017 31.1477C86.4312 29.9441 86.5805 28.4495 85.6876 27.5421C85.0499 26.8943 84.0332 26.7475 83.1452 26.9421C82.2571 27.1368 81.4639 27.6212 80.6897 28.0979C75.7688 31.1282 70.848 34.1584 65.9274 37.1887C63.9396 38.4127 61.9275 39.6563 60.321 41.3498C58.7145 43.0432 57.5329 45.2673 57.5802 47.6012C57.6431 50.7357 58.7516 53.8923 59.2289 56.9911Z" fill="#ED7B5F"/>
<path d="M54.526 29.6845C59.5502 27.1352 64.6731 25.0287 70.0478 23.3393C71.1211 23.0019 72.2891 22.6826 73.3503 23.0574C74.629 23.5089 75.4038 24.9285 75.3644 26.284C75.3253 27.6395 74.5975 28.9018 73.6392 29.8607C72.6806 30.8198 71.4996 31.5201 70.3319 32.2099C67.4195 33.9306 64.5071 35.6512 61.5944 37.3718C60.5567 37.9849 59.9661 38.2741 59.6619 39.4404C58.7885 42.7907 58.9675 44.5558 58.527 47.032C57.8752 50.6971 53.4849 53.6018 49.7649 53.7369L54.526 29.6845Z" fill="#ED7B5F"/>
<path d="M88.4093 2.2915H56.8164V62.1419H88.4093V2.2915Z" fill="white"/>
<path d="M54.5264 4.15827V62.3047C54.5264 64.6012 56.3881 66.463 58.6846 66.463H86.5413C88.8379 66.463 90.6996 64.6012 90.6996 62.3047V4.15827C90.6996 1.86172 88.8379 0 86.5413 0H58.6846C56.3881 0.00028328 54.5264 1.86172 54.5264 4.15827ZM88.409 4.24184V58.4705C88.409 60.4976 86.7657 62.141 84.7388 62.141H60.4872C58.46 62.141 56.8167 60.4976 56.8167 58.4705V4.24184C56.8167 3.16622 57.69 2.2906 58.7679 2.2906H62.8814C63.6962 2.2906 64.3565 2.95093 64.3565 3.76565C64.3565 4.84976 65.2352 5.7285 66.3193 5.7285H78.9058C79.9899 5.7285 80.8686 4.84976 80.8686 3.76565C80.8686 2.95093 81.5289 2.2906 82.3437 2.2906H86.4574C87.5359 2.2906 88.409 3.16622 88.409 4.24184Z" fill="#1C1B1E"/>
<path d="M79.0718 49.5375H66.1537C65.0106 49.5375 64.0755 48.6024 64.0755 47.4594V43.0781C64.0755 41.9351 65.0106 41 66.1537 41H79.0718C80.2149 41 81.15 41.9351 81.15 43.0781V47.4594C81.15 48.6024 80.2149 49.5375 79.0718 49.5375Z" fill="#BB9CFF"/>
<path d="M83.8705 10.2095H61.3551V32.7249H83.8705V10.2095Z" fill="#BB9CFF"/>
<path d="M63.6066 12.46V16.8664H68.0131V12.46H63.6066ZM67.1754 16.0287H64.4443V13.2976H67.1754V16.0287Z" fill="white"/>
<path d="M66.5655 13.9067H65.053V15.4192H66.5655V13.9067Z" fill="white"/>
<path d="M63.6066 26.0225V30.4289H68.0131V26.0225H63.6066ZM67.1754 29.5912H64.4443V26.8601H67.1754V29.5912Z" fill="white"/>
<path d="M66.5655 27.4697H65.053V28.9822H66.5655V27.4697Z" fill="white"/>
<path d="M77.2126 25.9761V30.3802H81.619V25.9761H77.2126ZM80.7814 29.5426H78.0503V26.8115H80.7814V29.5426Z" fill="white"/>
<path d="M80.1726 27.4219H78.6602V28.9343H80.1726V27.4219Z" fill="white"/>
<path d="M70.4108 19.2632V23.6693H74.8149V19.2632H70.4108ZM73.9795 22.832H71.2462V20.1008H73.9795V22.832Z" fill="white"/>
<path d="M73.3691 20.7104H71.8567V22.2229H73.3691V20.7104Z" fill="white"/>
<path d="M81.619 12.4609H70.1339V13.9074H81.619V12.4609Z" fill="white"/>
<path d="M81.6189 23.946V12.4609H80.1725V23.946H81.6189Z" fill="white"/>
<path d="M76.2132 29.3027H69.253V30.3795H76.2132V29.3027Z" fill="white"/>
<path d="M76.169 27.644H72.2705V28.7208H76.169V27.644Z" fill="white"/>
<path d="M64.4437 17.5977H63.6066V24.4258H64.4437V17.5977Z" fill="white"/>
<path d="M67.8431 18.519H64.4435V19.2641H67.8431V18.519Z" fill="white"/>
<path d="M67.8431 21.2095H64.4435V22.2225H67.8431V21.2095Z" fill="white"/>
<path d="M69.8158 15.7505H68.69V16.8762H69.8158V15.7505Z" fill="white"/>
<path d="M70.1339 13.9067H69.0082V15.0325H70.1339V13.9067Z" fill="white"/>
<path d="M72.733 15.7505H71.6073V16.8762H72.733V15.7505Z" fill="white"/>
<path d="M67.8431 19.2642H66.7173V20.3899H67.8431V19.2642Z" fill="white"/>
<path d="M67.8431 22.0815H66.7173V23.2073H67.8431V22.0815Z" fill="white"/>
<path d="M66.7173 23.3003H65.5916V24.426H66.7173V23.3003Z" fill="white"/>
<path d="M70.3787 26.0239H69.253V27.1497H70.3787V26.0239Z" fill="white"/>
<path d="M76.2131 25.9751H75.0873V27.1009H76.2131V25.9751Z" fill="white"/>
<path d="M73.296 24.6826H72.1702V25.8084H73.296V24.6826Z" fill="white"/>
<path d="M73.9318 26.5381H72.8061V27.6638H73.9318V26.5381Z" fill="white"/>
<path d="M71.5045 27.1011H70.3788V28.2268H71.5045V27.1011Z" fill="white"/>
<path d="M69.8158 23.3833H68.69V24.5091H69.8158V23.3833Z" fill="white"/>
<path d="M69.8158 19.8271H68.69V20.9529H69.8158V19.8271Z" fill="white"/>
<path d="M70.9416 16.8765H69.8158V18.0022H70.9416V16.8765Z" fill="white"/>
<path d="M69.8158 17.9561H68.69V19.0818H69.8158V17.9561Z" fill="white"/>
<path d="M80.1725 23.9453H79.0468V25.0711H80.1725V23.9453Z" fill="white"/>
<path d="M79.0467 22.8203H77.921V23.9461H79.0467V22.8203Z" fill="white"/>
<path d="M77.9211 21.7065H76.7954V22.8323H77.9211V21.7065Z" fill="white"/>
<path d="M76.7761 20.5806H75.6503V21.7063H76.7761V20.5806Z" fill="white"/>
<path d="M76.7761 16.0781H75.6503V17.2039H76.7761V16.0781Z" fill="white"/>
<path d="M66.4292 17.3931H65.3035V18.5188H66.4292V17.3931Z" fill="white"/>
<path d="M65.5692 19.79H64.4435V20.9158H65.5692V19.79Z" fill="white"/>
<path d="M73.7384 17.4395H72.6126V18.5652H73.7384V17.4395Z" fill="white"/>
<path d="M75.9902 17.4395H74.8645V18.5652H75.9902V17.4395Z" fill="white"/>
<path d="M74.8641 17.4395H73.7384V18.5652H74.8641V17.4395Z" fill="white"/>
<path d="M74.5245 13.8262H73.3987V14.9519H74.5245V13.8262Z" fill="white"/>
<path d="M76.7761 13.8262H75.6503V14.9519H76.7761V13.8262Z" fill="white"/>
<path d="M79.0276 13.8262H77.9018V14.9519H79.0276V13.8262Z" fill="white"/>
<path d="M79.0276 16.0781H77.9018V17.2039H79.0276V16.0781Z" fill="white"/>
<path d="M79.0276 18.3286H77.9018V19.4544H79.0276V18.3286Z" fill="white"/>
<path d="M79.0276 20.5806H77.9018V21.7063H79.0276V20.5806Z" fill="white"/>
<path d="M76.7954 22.8325H75.6696V23.9583H76.7954V22.8325Z" fill="white"/>
<path d="M59.1035 12.4605V7.95752H63.6066" stroke="#1C1B1E" stroke-width="0.6888" stroke-miterlimit="10" stroke-linecap="round" stroke-linejoin="round"/>
<path d="M86.1221 12.461V7.95801H81.6191" stroke="#1C1B1E" stroke-width="0.6888" stroke-miterlimit="10" stroke-linecap="round" stroke-linejoin="round"/>
<path d="M86.1221 30.4741V34.9771H81.6191" stroke="#1C1B1E" stroke-width="0.6888" stroke-miterlimit="10" stroke-linecap="round" stroke-linejoin="round"/>
<path d="M59.1038 30.4741V34.9771H63.6068" stroke="#1C1B1E" stroke-width="0.6888" stroke-miterlimit="10" stroke-linecap="round" stroke-linejoin="round"/>
<path d="M87.2483 18.8018H57.9781V19.2522H87.2483V18.8018Z" fill="black"/>
<path d="M65.2509 52.8378C64.0894 54.4837 63.4945 56.5006 63.5823 58.5091C66.2848 61.713 68.8967 65.2143 70.3896 69.1293C71.8825 73.0414 71.9079 77.7722 69.3952 81.1234C66.9647 84.3641 62.3954 85.7068 58.4975 84.5992C54.9253 83.5822 52.0642 80.7891 50.1803 77.588C49.4608 76.3699 48.8291 75.0952 48.2682 73.7921C47.356 71.6788 46.6252 69.4777 45.9935 67.2681C45.8886 63.8263 46.0076 59.2258 46.4665 56.2117C51.1463 53.4639 55.2227 49.6934 58.3247 45.2374C59.0017 44.2657 59.6617 43.2346 60.6447 42.5746C61.945 41.7077 63.5512 41.6397 65.1347 41.4698C66.0582 41.3706 66.9732 41.2346 67.8145 40.8834C68.6247 40.5434 69.3414 40.0165 70.1431 39.6596C70.7493 39.3905 71.4462 39.229 72.0892 39.3423C72.1941 39.3593 72.296 39.3848 72.3952 39.4217C72.4943 39.4528 72.5878 39.4925 72.6813 39.5406C73.7861 40.1157 74.075 41.5689 74.0099 42.8153C73.8909 45.2062 72.9476 47.5461 71.3725 49.3478C69.7975 51.1495 67.6049 52.3987 65.2509 52.8378Z" fill="#ECE3FE"/>
<path d="M46.4653 56.2129C46.4653 56.2129 48.5604 48.7757 48.9899 44.9579C49.4194 41.1401 49.1332 33.8383 50.6125 32.2635C52.0918 30.6888 54.5258 29.6865 54.5258 29.6865V49.8578L51.2805 54.7413L46.4653 56.2129Z" fill="#ECE3FE"/>
<path d="M45.9945 67.2692C45.4266 72.5745 40.0182 96.0542 39.0001 98.9176C50.2332 108.086 56.8025 108.284 69.0337 98.9176C69.0337 98.9176 68.0156 89.5639 68.5247 88.2277C75.0787 86.3824 83.0326 76.4109 83.0326 66.4658H69.1782L45.9945 67.2692Z" fill="#ECE3FE"/>
<path d="M96.1122 45.8656C96.0365 46.3829 95.8317 46.8755 95.617 47.3534C94.617 49.5633 93.3876 51.7245 91.8363 53.5952C91.4777 54.0295 91.0972 54.4513 90.6998 54.8513V45.0215C91.1363 44.7068 91.6754 44.3167 92.2292 44.0068C92.6219 43.7872 93.0218 43.609 93.3927 43.5263C94.2904 43.3286 95.3513 43.5728 95.8464 44.3484C96.1269 44.79 96.1878 45.3461 96.1122 45.8656Z" fill="#ECE3FE"/>
<path d="M95.8292 37.4768C95.7779 38.2233 95.4853 38.9329 95.151 39.6015C94.2972 41.2966 93.0437 42.9238 91.6165 44.2382C91.3188 44.5138 91.0117 44.7747 90.6993 45.0212V35.8253C91.0945 35.6157 91.497 35.4032 91.9114 35.2327C92.2262 35.1035 92.548 34.9984 92.8822 34.9353C93.653 34.7914 94.5139 34.9109 95.0995 35.4352C95.6561 35.933 95.8805 36.7307 95.8292 37.4768Z" fill="#ECE3FE"/>
<path d="M70.9788 42.5408C70.1519 43.253 69.0445 43.5215 67.9811 43.7677C67.5324 43.8725 67.0638 43.9773 66.6177 43.8702C66.0738 43.7411 65.6395 43.3068 65.4055 42.7994C65.2152 42.3873 65.1421 41.9286 65.1347 41.47C66.059 41.37 66.9738 41.2335 67.8154 40.8822C68.6253 40.5431 69.3423 40.0162 70.1423 39.6601C70.7496 39.3893 71.4473 39.2284 72.0887 39.3431C72.3008 40.5015 71.8742 41.7675 70.9788 42.5408Z" fill="#E9DFFF"/>
<path opacity="0.2" d="M63.5823 58.5096C63.4945 56.5011 64.0894 54.4842 65.2508 52.8383C67.6049 52.3992 69.7975 51.1499 71.3725 49.3483C72.7657 47.7548 73.6631 45.7401 73.9348 43.6416C73.8612 43.9192 73.7801 44.1954 73.6824 44.4676C72.9263 46.5761 71.5487 48.2472 69.691 49.4848C68.5655 50.2347 67.3165 50.8398 65.9928 51.1409C65.2823 51.3026 64.2959 51.5862 63.5585 51.3046C63.3954 51.3117 63.2328 51.3174 63.0724 51.3168C63.4917 52.076 63.0753 52.9598 62.8798 53.8068C62.3841 55.9371 61.3699 57.9484 59.945 59.6113C61.6928 59.4668 63.1319 60.835 64.2112 62.2174C66.3726 64.9766 67.891 68.24 68.6106 71.6705C69.0185 73.6025 69.1601 75.6732 68.4151 77.5004C67.3075 80.2171 64.3359 81.8856 61.4039 81.9734C58.4719 82.0641 55.6306 80.7865 53.3162 78.9848C51.4069 77.4976 49.8036 75.6704 48.2682 73.7923C48.8291 75.0954 49.4608 76.3701 50.1803 77.5882C52.0641 80.7893 54.9253 83.5824 58.4974 84.5994C62.3954 85.707 66.9647 84.3643 69.3952 81.1236C71.9079 77.7724 71.8824 73.0416 70.3896 69.1295C68.8967 65.2148 66.2848 61.7135 63.5823 58.5096Z" fill="#BB9CFF"/>
</svg>
