<svg width="179" height="189" viewBox="0 0 179 189" fill="none" xmlns="http://www.w3.org/2000/svg">
<path d="M160.431 113.818C157.932 112.984 147.741 109.582 146.117 112.331C144.298 115.412 153.026 126.567 164.488 129.109C170.311 130.401 178.11 129.751 178.928 126.963C179.977 123.388 169.39 116.809 160.431 113.818Z" fill="url(#paint0_linear_2869_2980)"/>
<path d="M66.1524 32.3265C57.7789 33.3022 54.9493 17.3779 40.7021 13.7942C31.0649 11.3702 22.6359 16.2108 20.9947 17.2008C14.2523 21.2682 8.24628 29.0148 7.71553 37.7503C6.9154 50.9205 19.0278 58.6516 15.3535 64.9801C12.5121 69.8738 4.07934 67.299 1.77241 72.5458C-0.12983 76.872 3.84294 82.6264 6.25 86.1127C12.8339 95.649 18.4411 94.8771 20.4829 99.8614C24.472 109.599 5.42244 118.285 0.974675 137.408C-2.42783 152.037 3.15568 170.879 16.5087 180.883C32.5042 192.867 54.8993 188.609 67.8021 180.883C81.7944 172.505 79.5769 163.07 90.8392 160.076C104.421 156.466 111.22 169.239 136.682 170.625C145.002 171.078 153.911 171.441 158.665 165.74C165.357 157.714 159.438 142.919 158.501 140.576C151.429 122.9 135.245 117.125 137.582 110.497C139.05 106.331 146.655 105.178 147.688 105.022C155.363 103.859 159.017 108.68 164.55 106.649C167.794 105.458 171.232 102.076 171.765 98.3524C173.308 87.5757 149.429 81.5624 149.852 70.1225C150.113 63.0596 159.321 62.4916 167.458 51.4286C175.482 40.5191 181.116 21.2392 172.831 9.90542C163.714 -2.5681 139.795 -2.6038 125.128 6.12739C107.673 16.5178 104.937 38.3622 96.6241 37.262C89.3993 36.3057 88.0836 19.3563 80.9919 19.1872C74.9029 19.0418 73.4261 31.4789 66.1524 32.3265Z" fill="url(#paint1_linear_2869_2980)"/>
<path d="M71.2966 19.0367C70.9796 22.1603 68.2305 25.7445 64.6005 25.7328C60.8214 25.7206 58.5021 21.819 57.9044 19.0367C57.124 15.4035 58.677 10.876 61.5682 9.90477C65.4638 8.59621 71.8351 13.7276 71.2966 19.0367Z" fill="url(#paint2_linear_2869_2980)"/>
<path d="M99.311 9.90623C95.7808 11.0116 90.4074 12.6941 89.2966 17.2339C88.255 21.4906 91.2888 26.9197 94.9145 27.7368C102 29.3335 112.524 13.5817 109.814 9.66195C108.083 7.15943 100.907 9.40634 99.311 9.90623Z" fill="url(#paint3_linear_2869_2980)"/>
<path d="M60.7724 54.3854C58.374 47.1871 54.8767 38.9283 51.0449 39.0994C48.1856 39.2271 47.5007 43.9435 44.4442 44.3105C37.7752 45.1115 32.293 23.7085 27.7686 24.5082C25.1756 24.9666 23.5548 32.6017 24.9893 39.0993C27.6503 51.153 40.9561 59.886 46.1813 57.1646C50.071 55.1387 48.4715 47.292 51.7398 46.3949C54.2709 45.7002 57.703 49.728 60.7724 54.3854Z" fill="white"/>
<path d="M72.9317 50.2161C74.2675 42.785 73.5981 40.5911 72.5843 40.1412C71.1476 39.5038 69.5365 42.5984 66.6783 42.5731C61.7902 42.53 58.2604 33.4057 57.9931 33.5405C56.953 34.0652 61.0523 49.0581 64.9413 48.8265C66.333 48.7437 66.9409 46.7454 68.7628 46.742C70.457 46.7389 71.8845 48.4631 72.9317 50.2161Z" fill="white"/>
<path d="M119.484 123.173C119.583 121.721 134.543 120.143 135.813 123.868C136.427 125.669 133.228 126.913 133.033 129.774C132.542 136.995 152.024 142.202 151.446 144.365C150.784 146.846 124.099 143.933 123.306 137.069C122.911 133.653 129.139 131.05 128.17 127.689C127.148 124.147 119.413 124.22 119.484 123.173Z" fill="white"/>
<path d="M123.306 109.623C123.712 107.595 131.462 105.916 133.381 108.928C134.347 110.444 133.813 113.112 132.339 114.139C129.409 116.181 122.901 111.65 123.306 109.623Z" fill="white"/>
<path d="M83.9573 141.009C110.05 141.009 131.201 119.857 131.201 93.7647C131.201 67.6724 110.05 46.5205 83.9573 46.5205C57.8651 46.5205 36.7132 67.6724 36.7132 93.7647C36.7132 119.857 57.8651 141.009 83.9573 141.009Z" fill="url(#paint4_linear_2869_2980)"/>
<path d="M89.3512 140.595C115.443 140.595 136.595 119.443 136.595 93.3506C136.595 67.2584 115.443 46.1064 89.3512 46.1064C63.259 46.1064 42.1071 67.2584 42.1071 93.3506C42.1071 119.443 63.259 140.595 89.3512 140.595Z" fill="url(#paint5_linear_2869_2980)"/>
<path d="M89.3513 135.318C112.529 135.318 131.318 116.528 131.318 93.3507C131.318 70.173 112.529 51.3838 89.3513 51.3838C66.1736 51.3838 47.3844 70.173 47.3844 93.3507C47.3844 116.528 66.1736 135.318 89.3513 135.318Z" fill="url(#paint6_linear_2869_2980)"/>
<mask id="mask0_2869_2980" style="mask-type:luminance" maskUnits="userSpaceOnUse" x="47" y="51" width="85" height="85">
<path d="M119.024 123.024C135.413 106.635 135.413 80.0637 119.024 63.6748C102.635 47.2859 76.0638 47.2859 59.6748 63.6748C43.2859 80.0637 43.2859 106.635 59.6748 123.024C76.0638 139.413 102.635 139.413 119.024 123.024Z" fill="white"/>
</mask>
<g mask="url(#mask0_2869_2980)">
<path d="M119.432 89.6506L119.42 101.575C119.416 102.717 118.956 103.808 118.131 104.613L107.747 114.796C106.91 115.614 105.773 116.08 104.59 116.078L88.8735 116.079C88.8735 116.079 78.0791 126.501 71.6719 132.707C64.7355 129.103 58.922 123.698 54.9081 117.118C61.376 110.91 72.4495 100.243 72.4495 100.243L72.3861 84.7846C72.3818 83.6117 72.8678 82.4886 73.7332 81.6703L84.4596 71.4945C85.3114 70.6893 86.4626 70.2486 87.6581 70.2682L100.103 70.4815C101.131 70.4985 102.06 71.1179 102.454 72.0482C102.844 72.9822 102.626 74.0427 101.9 74.7402L90.0414 86.1017C88.9856 87.111 88.9814 88.7697 90.037 89.7998L94.2821 93.95L95.4523 95.0917L99.6753 99.2242C100.72 100.244 102.413 100.247 103.455 99.2338L115.16 87.8748C115.877 87.1773 116.954 86.9758 117.893 87.365C118.826 87.7536 119.436 88.655 119.432 89.6506Z" fill="white"/>
</g>
<defs>
<linearGradient id="paint0_linear_2869_2980" x1="178.587" y1="52.5424" x2="131.917" y2="247.079" gradientUnits="userSpaceOnUse">
<stop stop-color="#FFC444"/>
<stop offset="0.9964" stop-color="#F36F56"/>
</linearGradient>
<linearGradient id="paint1_linear_2869_2980" x1="100.026" y1="33.642" x2="53.618" y2="227.091" gradientUnits="userSpaceOnUse">
<stop stop-color="#FFC444"/>
<stop offset="0.9964" stop-color="#F36F56"/>
</linearGradient>
<linearGradient id="paint2_linear_2869_2980" x1="62.7895" y1="24.7083" x2="16.3809" y2="218.158" gradientUnits="userSpaceOnUse">
<stop stop-color="#FFC444"/>
<stop offset="0.9964" stop-color="#F36F56"/>
</linearGradient>
<linearGradient id="paint3_linear_2869_2980" x1="95.4827" y1="32.5529" x2="49.0743" y2="226.002" gradientUnits="userSpaceOnUse">
<stop stop-color="#FFC444"/>
<stop offset="0.9964" stop-color="#F36F56"/>
</linearGradient>
<linearGradient id="paint4_linear_2869_2980" x1="36.7131" y1="93.7646" x2="131.201" y2="93.7646" gradientUnits="userSpaceOnUse">
<stop stop-color="#683273"/>
<stop offset="0.9964" stop-color="#26264F"/>
</linearGradient>
<linearGradient id="paint5_linear_2869_2980" x1="121.238" y1="35.7084" x2="63.7528" y2="139.625" gradientUnits="userSpaceOnUse">
<stop offset="0.0036" stop-color="#E38DDD"/>
<stop offset="0.2464" stop-color="#D086E3"/>
<stop offset="1" stop-color="#2B0036"/>
</linearGradient>
<linearGradient id="paint6_linear_2869_2980" x1="69.4913" y1="129.251" x2="12.0056" y2="233.168" gradientUnits="userSpaceOnUse">
<stop offset="0.0036" stop-color="#E38DDD"/>
<stop offset="1" stop-color="#9571F6"/>
</linearGradient>
</defs>
</svg>
