<svg width="144" height="126" viewBox="0 0 144 126" fill="none" xmlns="http://www.w3.org/2000/svg">
<path d="M143.559 125.736H0V36.3613H143.559V125.736ZM3.34022 122.396H140.219V39.7016H3.34022V122.396Z" fill="#E5E5E5"/>
<path d="M141.889 38.0312H1.67017V124.066H141.889V38.0312Z" fill="white"/>
<path d="M141.889 59.8363V54.5538H122.437V38.0312H117.155V54.5538H82.525V38.0312H77.2424V54.5538H23.8303V38.0312H18.5478V54.5538H1.67017V59.8363H18.5478V80.3795H1.67017V85.662H18.5478V107.672H1.67017V112.955H47.0148V124.066H52.2972V112.955H77.2424V124.066H82.525V112.955H141.889V107.672H82.525V85.662H141.889V80.3794H122.437V59.8363L141.889 59.8363ZM77.2424 59.8363V66.2927H23.8303V59.8363H77.2424ZM23.8303 71.5753H77.2424V80.3795H23.8303V71.5753ZM23.8303 107.672V85.662H47.0148V107.672L23.8303 107.672ZM77.2424 107.672H52.2972V85.662H77.2424V107.672ZM117.155 80.3795H82.525V59.8363H117.155V80.3795Z" fill="#E6E6E6"/>
<path d="M105.368 25.3299C105.368 39.3192 80.0379 70.4831 80.0379 70.4831C80.0379 70.4831 54.708 39.3192 54.708 25.3299C54.708 18.612 57.3767 12.1692 62.1269 7.41895C66.8772 2.66868 73.32 0 80.0379 0C86.7558 0 93.1985 2.66868 97.9488 7.41895C102.699 12.1692 105.368 18.612 105.368 25.3299Z" fill="#BB9CFF"/>
<path d="M91.6176 24.2288C91.6176 26.519 90.9385 28.7577 89.6661 30.6619C88.3938 32.5662 86.5853 34.0503 84.4695 34.9267C82.3536 35.8032 80.0254 36.0325 77.7792 35.5857C75.533 35.1389 73.4698 34.036 71.8504 32.4166C70.231 30.7972 69.1282 28.734 68.6814 26.4878C68.2346 24.2416 68.4639 21.9134 69.3403 19.7976C70.2167 17.6817 71.7009 15.8733 73.6051 14.6009C75.5093 13.3285 77.7481 12.6494 80.0382 12.6494C81.5591 12.6487 83.0651 12.9477 84.4703 13.5294C85.8755 14.1111 87.1523 14.964 88.2277 16.0394C89.303 17.1148 90.1559 18.3915 90.7376 19.7967C91.3193 21.2019 91.6183 22.708 91.6176 24.2288Z" fill="white"/>
<path d="M80.0379 88.7645C83.8089 88.7645 86.8659 85.7075 86.8659 81.9364C86.8659 78.1654 83.8089 75.1084 80.0379 75.1084C76.2669 75.1084 73.2098 78.1654 73.2098 81.9364C73.2098 85.7075 76.2669 88.7645 80.0379 88.7645Z" fill="#BB9CFF"/>
</svg>
