<svg width="52" height="52" viewBox="0 0 52 52" fill="none" xmlns="http://www.w3.org/2000/svg">
<path d="M26 11.5555L15.8889 0H0L20.2222 24.5555L36.8636 17.6944L26 11.5555Z" fill="#55ACEE"/>
<path d="M36.1111 0L26 11.5555L33.7855 22.1173L35.5579 19.9665L52 0H36.1111Z" fill="#3B88C3"/>
<path d="M33.5976 23.1487C33.7132 22.8352 33.7869 22.5016 33.7869 22.1477C33.7869 20.553 32.4926 19.2588 30.898 19.2588H21.2679C19.6718 19.2588 18.379 20.553 18.379 22.1477C18.379 22.5016 18.4512 22.8352 18.5682 23.1487C13.8622 25.7862 10.6758 30.8143 10.6758 36.5921C10.6758 45.1013 17.573 52 26.0836 52C34.5929 52 41.4915 45.1013 41.4915 36.5921C41.4901 30.8143 38.3051 25.7862 33.5976 23.1487Z" fill="#FFAC33"/>
<path d="M26.0829 48.1462C32.4648 48.1462 37.6384 42.9726 37.6384 36.5907C37.6384 30.2087 32.4648 25.0352 26.0829 25.0352C19.7009 25.0352 14.5273 30.2087 14.5273 36.5907C14.5273 42.9726 19.7009 48.1462 26.0829 48.1462Z" fill="#FFD983"/>
<path d="M30.7352 44.2492C30.5301 44.2492 30.325 44.1856 30.1488 44.06L26.0003 41.0859L21.8533 44.06C21.4994 44.3127 21.0257 44.3127 20.6747 44.0556C20.3237 43.8014 20.1763 43.3493 20.3063 42.9376L21.8533 37.9456L17.7439 35.0495C17.3943 34.7924 17.2499 34.3389 17.3828 33.9258C17.5171 33.5141 17.8999 33.2339 18.3347 33.231L23.4249 33.2238L25.0455 28.356C25.1828 27.9443 25.567 27.667 26.0018 27.667C26.4351 27.667 26.8208 27.9443 26.958 28.356L28.5512 33.2238L33.6674 33.231C34.1022 33.2339 34.4864 33.5141 34.6193 33.9258C34.7536 34.3389 34.6078 34.791 34.2582 35.0495L30.1473 37.9456L31.6943 42.9376C31.8272 43.3507 31.677 43.8014 31.3274 44.0556C31.1498 44.1856 30.9418 44.2492 30.7352 44.2492Z" fill="#FFAC33"/>
</svg>
