<svg width="237" height="323" viewBox="0 0 237 323" fill="none" xmlns="http://www.w3.org/2000/svg">
<path d="M91.0407 41.6281C80.2579 42.8846 76.614 22.3782 58.2673 17.7634C45.8571 14.6419 35.0027 20.8753 32.8893 22.1501C24.2068 27.3879 16.4726 37.3636 15.7891 48.6127C14.7588 65.5725 30.3564 75.5282 25.6248 83.6775C21.9659 89.9795 11.1067 86.6637 8.13592 93.4202C5.68633 98.9913 10.8022 106.401 13.9019 110.891C22.3802 123.171 29.6009 122.177 32.2303 128.596C37.3672 141.135 12.8362 152.32 7.10864 176.946C2.72709 195.784 9.91721 220.049 27.1124 232.931C47.7106 248.363 76.5496 242.88 93.1651 232.931C111.184 222.142 108.328 209.992 122.831 206.137C140.321 201.488 149.076 217.936 181.864 219.721C192.579 220.304 204.051 220.772 210.173 213.43C218.79 203.095 211.169 184.043 209.961 181.026C200.855 158.263 180.014 150.826 183.023 142.291C184.914 136.926 194.707 135.443 196.038 135.241C205.921 133.743 210.627 139.952 217.751 137.337C221.929 135.803 226.356 131.448 227.043 126.653C229.029 112.775 198.28 105.031 198.825 90.2996C199.161 81.2045 211.017 80.4731 221.496 66.2268C231.83 52.1781 239.084 27.3506 228.416 12.7556C216.675 -3.30705 185.873 -3.35302 166.986 7.8905C144.509 21.2706 140.985 49.4006 130.28 47.9838C120.977 46.7524 119.282 24.9259 110.15 24.7081C102.309 24.5209 100.407 40.5366 91.0407 41.6281Z" fill="url(#paint0_linear_2706_2657)"/>
<path d="M211.292 145.75C208.093 144.682 195.043 140.325 192.964 143.846C190.634 147.79 201.81 162.075 216.488 165.33C223.945 166.984 233.932 166.153 234.979 162.583C236.322 158.004 222.765 149.58 211.292 145.75Z" fill="url(#paint1_linear_2706_2657)"/>
<path d="M97.6649 24.5148C97.2568 28.5372 93.7167 33.1527 89.0421 33.1376C84.1756 33.1219 81.1889 28.0977 80.4193 24.5148C79.4143 19.8361 81.4142 14.006 85.1374 12.7552C90.1538 11.0701 98.3585 17.678 97.6649 24.5148Z" fill="url(#paint2_linear_2706_2657)"/>
<path d="M133.74 12.7559C129.194 14.1793 122.275 16.346 120.844 22.192C119.503 27.6736 123.41 34.6649 128.079 35.717C137.203 37.7732 150.756 17.4889 147.265 12.4413C145.037 9.21873 135.796 12.1122 133.74 12.7559Z" fill="url(#paint3_linear_2706_2657)"/>
<path d="M87.6731 229.769C81.9373 230.683 75.5493 228.854 71.5395 224.8L17.6334 170.294C12.9571 165.565 13.261 158.279 18.3855 153.871C23.6471 149.346 34.5779 148.508 39.6241 153.393L97.9979 209.907C103.796 215.52 102.837 223.343 95.9751 227.215C94.3076 228.156 89.5855 229.464 87.6731 229.769Z" fill="url(#paint4_linear_2706_2657)"/>
<path opacity="0.3" d="M18.3855 153.871C23.647 149.346 34.5778 148.508 39.6239 153.393L92.776 204.851C87.147 205.04 81.1418 206.662 73.7692 203.865C61.7611 199.31 62.737 189.124 52.4235 183.27C47.7821 180.635 40.4313 178.669 28.384 181.164L17.6332 170.294C12.9571 165.565 13.2608 158.279 18.3855 153.871Z" fill="url(#paint5_linear_2706_2657)"/>
<path d="M33.625 159.64C36.9761 168.942 32.4116 179.106 23.43 182.341C14.4484 185.577 4.45077 180.66 1.09975 171.358C-2.25128 162.056 2.31318 151.893 11.2947 148.657C20.2763 145.421 30.274 150.339 33.625 159.64Z" fill="url(#paint6_linear_2706_2657)"/>
<path d="M10.5101 149.412C10.766 161.936 14.6979 172.85 22.4826 182.644L131.122 190.308L90.1484 72.7607L10.5101 149.412Z" fill="url(#paint7_linear_2706_2657)"/>
<path opacity="0.3" d="M88.6083 165.392C77.4801 164.512 69.1741 150.513 58.5587 153.82C50.5914 156.303 51.4134 165.811 43.7236 167.41C36.1376 168.986 31.606 160.127 22.76 159.804C18.8546 159.662 15.4777 161.275 12.6001 163.756C14.5201 170.477 17.7906 176.741 22.4825 182.644L131.122 190.308L109.895 152.863C101.176 163.078 94.186 165.834 88.6083 165.392Z" fill="url(#paint8_linear_2706_2657)"/>
<path d="M132.301 189.799C156.651 181.027 166.953 147.718 155.312 115.4C143.67 83.0827 114.493 63.9948 90.143 72.7663C65.793 81.5377 55.4909 114.847 67.1325 147.165C78.7741 179.482 107.951 198.57 132.301 189.799Z" fill="#D8DEE8"/>
<path d="M131.596 187.809C136.766 185.946 141.348 182.736 145.216 178.268C149.153 173.72 152.173 168.105 154.191 161.579C158.433 147.86 157.726 131.857 152.2 116.517C146.674 101.178 137.012 88.4012 124.996 80.5402C119.279 76.8007 113.372 74.4016 107.44 73.4091C101.61 72.434 96.0333 72.884 90.8638 74.7463C85.6943 76.6087 81.1117 79.8188 77.2437 84.2876C73.307 88.8357 70.2875 94.4507 68.2693 100.977C66.4954 106.713 65.5869 112.848 65.5341 119.168C65.4606 127.962 76.6725 133.075 79.8881 142.001C83.3073 151.492 78.6815 164.038 84.8454 171.01C88.6436 175.306 92.8829 179.018 97.4646 182.015C103.181 185.754 109.088 188.154 115.021 189.146C120.85 190.121 126.427 189.671 131.596 187.809Z" fill="url(#paint9_linear_2706_2657)"/>
<mask id="mask0_2706_2657" style="mask-type:luminance" maskUnits="userSpaceOnUse" x="65" y="72" width="92" height="118">
<path d="M131.596 187.809C136.766 185.946 141.348 182.736 145.216 178.268C149.153 173.72 152.173 168.105 154.191 161.579C158.433 147.86 157.726 131.857 152.2 116.517C146.674 101.178 137.012 88.4012 124.996 80.5402C119.279 76.8007 113.372 74.4016 107.44 73.4091C101.61 72.434 96.0333 72.884 90.8638 74.7463C85.6943 76.6087 81.1117 79.8188 77.2437 84.2876C73.307 88.8357 70.2875 94.4507 68.2693 100.977C64.0269 114.695 64.7338 130.698 70.26 146.038C75.7863 161.377 85.4477 174.154 97.4646 182.015C103.181 185.754 109.088 188.154 115.021 189.146C120.85 190.121 126.427 189.671 131.596 187.809Z" fill="white"/>
</mask>
<g mask="url(#mask0_2706_2657)">
<path d="M115.135 130.739C120.476 145.564 112.062 161.895 96.5634 167.139C81.3045 172.302 64.8974 164.746 59.705 150.333C54.5126 135.92 62.3832 119.782 77.4946 114.209C92.8436 108.549 109.794 115.913 115.135 130.739Z" fill="url(#paint10_linear_2706_2657)"/>
</g>
<mask id="mask1_2706_2657" style="mask-type:luminance" maskUnits="userSpaceOnUse" x="65" y="72" width="92" height="118">
<path d="M131.596 187.809C136.766 185.946 141.348 182.736 145.216 178.268C149.153 173.72 152.173 168.105 154.191 161.579C158.433 147.86 157.726 131.857 152.2 116.517C146.674 101.178 137.012 88.4012 124.996 80.5402C119.279 76.8007 113.372 74.4016 107.44 73.4091C101.61 72.434 96.0333 72.884 90.8638 74.7463C85.6943 76.6087 81.1117 79.8188 77.2437 84.2876C73.307 88.8357 70.2875 94.4507 68.2693 100.977C64.0269 114.695 64.7338 130.698 70.26 146.038C75.7863 161.377 85.4477 174.154 97.4646 182.015C103.181 185.754 109.088 188.154 115.021 189.146C120.85 190.121 126.427 189.671 131.596 187.809Z" fill="white"/>
</mask>
<g mask="url(#mask1_2706_2657)">
<path opacity="0.3" d="M112.617 131.373C116.583 142.382 113.566 153.344 105.987 155.823C98.5247 158.263 89.434 151.538 85.5783 140.835C81.7225 130.133 84.4743 119.263 91.8267 116.519C99.2947 113.731 108.651 120.364 112.617 131.373Z" fill="url(#paint11_linear_2706_2657)"/>
</g>
<path d="M126.051 117.512C126.051 117.512 133.4 111.659 137.113 103.413C129.155 96.2319 123.877 86.8797 122.647 76.3958C119.698 51.2575 140.918 27.3822 171.334 22.8777C202.444 18.2706 231.431 35.4676 235.896 61.7441C235.898 61.753 235.9 61.7619 235.901 61.7708C235.956 62.0971 236.008 62.4246 236.055 62.7536C236.062 62.8015 236.069 62.8495 236.076 62.8975C236.121 63.2203 236.164 63.544 236.202 63.8694C236.379 65.3716 236.471 66.8641 236.484 68.344C236.489 68.9782 236.48 69.6101 236.456 70.2395C236.408 71.4982 236.303 72.7466 236.141 73.9828C236.06 74.6009 235.966 75.2159 235.858 75.8278C235.785 76.2356 235.707 76.642 235.623 77.047C233.642 86.5612 228.346 95.2289 220.746 102.124C220.585 102.271 220.422 102.417 220.258 102.562C217.638 104.884 214.754 106.998 211.644 108.867C211.45 108.984 211.255 109.1 211.059 109.215C209.686 110.02 208.271 110.777 206.817 111.484C206.194 111.787 205.564 112.081 204.927 112.366C204.502 112.555 204.074 112.741 203.643 112.922C202.996 113.193 202.343 113.455 201.684 113.708C201.244 113.876 200.801 114.039 200.356 114.199C194.787 116.189 188.78 117.484 182.487 117.942C182.022 117.976 181.558 118.005 181.095 118.029C180.96 118.036 180.826 118.04 180.692 118.047C180.361 118.062 180.031 118.077 179.702 118.088C179.556 118.093 179.41 118.095 179.264 118.099C178.944 118.107 178.624 118.115 178.306 118.118C178.169 118.12 178.033 118.12 177.896 118.12C177.565 118.122 177.234 118.123 176.904 118.12C176.786 118.119 176.669 118.117 176.552 118.115C176.198 118.11 175.845 118.103 175.492 118.093C175.403 118.09 175.313 118.087 175.223 118.084C174.836 118.071 174.45 118.055 174.064 118.035C174.012 118.033 173.959 118.03 173.907 118.027C173.473 118.004 173.04 117.977 172.609 117.945C172.606 117.945 172.604 117.945 172.602 117.945C168.956 117.68 165.414 117.125 162.013 116.302C162.016 116.297 162.02 116.293 162.023 116.289C160.014 115.8 158.053 115.217 156.145 114.548C152.193 118.482 141.778 126.07 126.051 117.512Z" fill="url(#paint12_linear_2706_2657)"/>
<path d="M118.559 76.7005C121.508 101.839 147.717 120.482 178.399 118.247C210.62 115.899 235.337 91.6416 232.114 64.1741C228.892 36.7066 199.187 18.4521 167.246 23.1824C136.83 27.6868 115.61 51.5623 118.559 76.7005Z" fill="url(#paint13_linear_2706_2657)"/>
<path d="M118.559 76.7005C121.508 101.839 147.717 120.482 178.399 118.247C210.62 115.899 235.337 91.6416 232.114 64.1741C228.892 36.7066 199.187 18.4521 167.246 23.1824C136.83 27.6868 115.61 51.5623 118.559 76.7005Z" fill="white"/>
<path d="M153.838 112.833C153.838 112.833 142.375 128.924 121.963 117.816C121.963 117.816 135.947 106.681 135.083 93.4873L153.838 112.833Z" fill="white"/>
<g opacity="0.3">
<path d="M163.323 107.264C168.433 92.7469 160.097 80.4018 168.155 70.4162C176.46 60.1236 189.88 67.3401 202.606 58.1365C207.598 54.5263 212.914 48.0755 216.01 35.6748C224.843 42.9675 230.783 52.828 232.114 64.1738C235.337 91.6413 210.62 115.899 178.399 118.247C171.239 118.768 164.334 118.156 157.925 116.606C160.615 113.429 162.276 110.237 163.323 107.264Z" fill="url(#paint14_linear_2706_2657)"/>
</g>
<path d="M84.1127 70.0335C81.0242 60.764 76.5206 50.1288 71.5862 50.3491C67.9041 50.5135 67.0221 56.587 63.0861 57.0597C54.4983 58.0912 47.4385 30.5296 41.6123 31.5594C38.2732 32.1497 36.1861 41.9818 38.0333 50.349C41.46 65.871 58.5944 77.1169 65.3231 73.6124C70.3321 71.0036 68.2723 60.899 72.481 59.7438C75.7405 58.8493 80.1601 64.0361 84.1127 70.0335Z" fill="white"/>
<path d="M99.7708 64.6652C101.491 55.0958 100.629 52.2706 99.3234 51.6914C97.4732 50.8705 95.3985 54.8555 91.718 54.823C85.4233 54.7674 80.8779 43.0177 80.5337 43.1914C79.1943 43.867 84.4732 63.1739 89.4811 62.8757C91.2733 62.7691 92.0562 60.1958 94.4023 60.1914C96.584 60.1874 98.4221 62.4077 99.7708 64.6652Z" fill="white"/>
<path d="M159.719 158.614C159.845 156.744 179.11 154.712 180.745 159.509C181.536 161.828 177.417 163.43 177.166 167.114C176.533 176.413 201.621 183.118 200.877 185.904C200.024 189.099 165.661 185.348 164.64 176.509C164.131 172.109 172.152 168.757 170.903 164.43C169.587 159.868 159.627 159.963 159.719 158.614Z" fill="white"/>
<path d="M188.359 48.6303L174.93 62.0586L161.502 48.6303C159.328 46.4566 155.804 46.4566 153.63 48.6303C151.457 50.804 151.457 54.3283 153.63 56.5021L167.059 69.9304L153.63 83.3586C151.459 85.5344 151.462 89.0587 153.638 91.2304C155.811 93.3992 159.329 93.3992 161.502 91.2304L174.93 77.8021L188.359 91.2304C190.534 93.4021 194.059 93.3988 196.23 91.223C198.399 89.0501 198.399 85.5315 196.23 83.3586L182.802 69.9304L196.23 56.5021C198.404 54.3283 198.404 50.804 196.23 48.6303C194.057 46.4566 190.532 46.4566 188.359 48.6303Z" fill="url(#paint15_linear_2706_2657)"/>
<path d="M164.64 141.166C165.162 138.555 175.142 136.393 177.613 140.271C178.857 142.223 178.17 145.659 176.271 146.982C172.498 149.611 164.118 143.777 164.64 141.166Z" fill="white"/>
<path d="M98.1136 293.545C98.1136 297.352 97.392 300.591 95.9489 303.261C94.517 305.932 92.5625 307.972 90.0852 309.381C87.6193 310.778 84.8466 311.477 81.767 311.477C78.6648 311.477 75.8807 310.773 73.4148 309.364C70.9489 307.955 69 305.915 67.5682 303.244C66.1364 300.574 65.4205 297.341 65.4205 293.545C65.4205 289.739 66.1364 286.5 67.5682 283.83C69 281.159 70.9489 279.125 73.4148 277.727C75.8807 276.318 78.6648 275.614 81.767 275.614C84.8466 275.614 87.6193 276.318 90.0852 277.727C92.5625 279.125 94.517 281.159 95.9489 283.83C97.392 286.5 98.1136 289.739 98.1136 293.545ZM90.6307 293.545C90.6307 291.08 90.2614 289 89.5227 287.307C88.7955 285.614 87.767 284.33 86.4375 283.455C85.108 282.58 83.5511 282.142 81.767 282.142C79.983 282.142 78.4261 282.58 77.0966 283.455C75.767 284.33 74.733 285.614 73.9943 287.307C73.267 289 72.9034 291.08 72.9034 293.545C72.9034 296.011 73.267 298.091 73.9943 299.784C74.733 301.477 75.767 302.761 77.0966 303.636C78.4261 304.511 79.983 304.949 81.767 304.949C83.5511 304.949 85.108 304.511 86.4375 303.636C87.767 302.761 88.7955 301.477 89.5227 299.784C90.2614 298.091 90.6307 296.011 90.6307 293.545ZM103.445 320.818V284.818H110.604V289.216H110.928C111.246 288.511 111.706 287.795 112.308 287.068C112.922 286.33 113.717 285.716 114.695 285.227C115.683 284.727 116.911 284.477 118.376 284.477C120.286 284.477 122.047 284.977 123.661 285.977C125.274 286.966 126.564 288.46 127.53 290.46C128.496 292.449 128.979 294.943 128.979 297.943C128.979 300.864 128.507 303.33 127.564 305.341C126.632 307.341 125.359 308.858 123.746 309.892C122.143 310.915 120.348 311.426 118.359 311.426C116.95 311.426 115.751 311.193 114.763 310.727C113.786 310.261 112.984 309.676 112.359 308.972C111.734 308.256 111.257 307.534 110.928 306.807H110.706V320.818H103.445ZM110.553 297.909C110.553 299.466 110.768 300.824 111.2 301.983C111.632 303.142 112.257 304.045 113.075 304.693C113.893 305.33 114.888 305.648 116.058 305.648C117.24 305.648 118.24 305.324 119.058 304.676C119.876 304.017 120.496 303.108 120.916 301.949C121.348 300.778 121.564 299.432 121.564 297.909C121.564 296.398 121.354 295.068 120.933 293.92C120.513 292.773 119.893 291.875 119.075 291.227C118.257 290.58 117.251 290.256 116.058 290.256C114.876 290.256 113.876 290.568 113.058 291.193C112.251 291.818 111.632 292.705 111.2 293.852C110.768 295 110.553 296.352 110.553 297.909ZM155.604 292.284L148.956 292.693C148.842 292.125 148.598 291.614 148.223 291.159C147.848 290.693 147.354 290.324 146.74 290.051C146.138 289.767 145.416 289.625 144.575 289.625C143.45 289.625 142.501 289.864 141.729 290.341C140.956 290.807 140.57 291.432 140.57 292.216C140.57 292.841 140.82 293.369 141.32 293.801C141.82 294.233 142.678 294.58 143.893 294.841L148.632 295.795C151.178 296.318 153.075 297.159 154.325 298.318C155.575 299.477 156.2 301 156.2 302.886C156.2 304.602 155.695 306.108 154.683 307.403C153.683 308.699 152.308 309.71 150.558 310.438C148.82 311.153 146.814 311.511 144.541 311.511C141.075 311.511 138.314 310.79 136.257 309.347C134.212 307.892 133.013 305.915 132.661 303.415L139.803 303.04C140.018 304.097 140.541 304.903 141.371 305.46C142.2 306.006 143.263 306.278 144.558 306.278C145.831 306.278 146.854 306.034 147.626 305.545C148.411 305.045 148.808 304.403 148.82 303.619C148.808 302.96 148.53 302.42 147.984 302C147.439 301.568 146.598 301.239 145.462 301.011L140.928 300.108C138.371 299.597 136.467 298.71 135.217 297.449C133.979 296.187 133.359 294.58 133.359 292.625C133.359 290.943 133.814 289.494 134.723 288.278C135.643 287.062 136.933 286.125 138.592 285.466C140.263 284.807 142.217 284.477 144.456 284.477C147.763 284.477 150.365 285.176 152.263 286.574C154.172 287.972 155.286 289.875 155.604 292.284ZM169.449 276.091L168.784 300.534H162.545L161.864 276.091H169.449ZM165.665 311.443C164.54 311.443 163.574 311.045 162.767 310.25C161.96 309.443 161.563 308.477 161.574 307.352C161.563 306.239 161.96 305.284 162.767 304.489C163.574 303.693 164.54 303.295 165.665 303.295C166.744 303.295 167.693 303.693 168.511 304.489C169.33 305.284 169.744 306.239 169.756 307.352C169.744 308.102 169.545 308.79 169.159 309.415C168.784 310.028 168.29 310.523 167.676 310.898C167.062 311.261 166.392 311.443 165.665 311.443Z" fill="url(#paint16_linear_2706_2657)"/>
<defs>
<linearGradient id="paint0_linear_2706_2657" x1="134.662" y1="43.3222" x2="74.8997" y2="292.435" gradientUnits="userSpaceOnUse">
<stop stop-color="#FFC444"/>
<stop offset="0.9964" stop-color="#F36F56"/>
</linearGradient>
<linearGradient id="paint1_linear_2706_2657" x1="234.542" y1="67.2832" x2="174.78" y2="316.397" gradientUnits="userSpaceOnUse">
<stop stop-color="#FFC444"/>
<stop offset="0.9964" stop-color="#F36F56"/>
</linearGradient>
<linearGradient id="paint2_linear_2706_2657" x1="86.71" y1="31.8183" x2="26.9477" y2="280.932" gradientUnits="userSpaceOnUse">
<stop stop-color="#FFC444"/>
<stop offset="0.9964" stop-color="#F36F56"/>
</linearGradient>
<linearGradient id="paint3_linear_2706_2657" x1="128.811" y1="41.9189" x2="69.0484" y2="291.032" gradientUnits="userSpaceOnUse">
<stop stop-color="#FFC444"/>
<stop offset="0.9964" stop-color="#F36F56"/>
</linearGradient>
<linearGradient id="paint4_linear_2706_2657" x1="68.1479" y1="163.148" x2="47.8209" y2="217.558" gradientUnits="userSpaceOnUse">
<stop stop-color="#311944"/>
<stop offset="1" stop-color="#893976"/>
</linearGradient>
<linearGradient id="paint5_linear_2706_2657" x1="61.7373" y1="160.753" x2="41.5931" y2="214.674" gradientUnits="userSpaceOnUse">
<stop stop-color="#311944"/>
<stop offset="1" stop-color="#893976"/>
</linearGradient>
<linearGradient id="paint6_linear_2706_2657" x1="23.5384" y1="148.968" x2="11.1865" y2="182.03" gradientUnits="userSpaceOnUse">
<stop stop-color="#311944"/>
<stop offset="1" stop-color="#893976"/>
</linearGradient>
<linearGradient id="paint7_linear_2706_2657" x1="11.1492" y1="158.366" x2="114.956" y2="130.369" gradientUnits="userSpaceOnUse">
<stop offset="0.0036" stop-color="#E38DDD"/>
<stop offset="1" stop-color="#9571F6"/>
</linearGradient>
<linearGradient id="paint8_linear_2706_2657" x1="26.31" y1="99.4909" x2="116.564" y2="255.449" gradientUnits="userSpaceOnUse">
<stop stop-color="#AA80F9"/>
<stop offset="0.9964" stop-color="#6165D7"/>
</linearGradient>
<linearGradient id="paint9_linear_2706_2657" x1="55.2874" y1="149.834" x2="150.149" y2="118.368" gradientUnits="userSpaceOnUse">
<stop stop-color="#311944"/>
<stop offset="1" stop-color="#893976"/>
</linearGradient>
<linearGradient id="paint10_linear_2706_2657" x1="59.032" y1="148.192" x2="115.809" y2="132.879" gradientUnits="userSpaceOnUse">
<stop stop-color="#FF9085"/>
<stop offset="1" stop-color="#FB6FBB"/>
</linearGradient>
<linearGradient id="paint11_linear_2706_2657" x1="76.555" y1="97.1469" x2="121.814" y2="175.355" gradientUnits="userSpaceOnUse">
<stop stop-color="#FF9085"/>
<stop offset="1" stop-color="#FB6FBB"/>
</linearGradient>
<linearGradient id="paint12_linear_2706_2657" x1="68.2567" y1="-120.367" x2="286.742" y2="282.176" gradientUnits="userSpaceOnUse">
<stop stop-color="#311944"/>
<stop offset="1" stop-color="#893976"/>
</linearGradient>
<linearGradient id="paint13_linear_2706_2657" x1="191.811" y1="29.0347" x2="131.09" y2="182.069" gradientUnits="userSpaceOnUse">
<stop stop-color="#FF9085"/>
<stop offset="1" stop-color="#FB6FBB"/>
</linearGradient>
<linearGradient id="paint14_linear_2706_2657" x1="213.741" y1="34.5749" x2="155.142" y2="197.361" gradientUnits="userSpaceOnUse">
<stop stop-color="#FF9085"/>
<stop offset="1" stop-color="#FB6FBB"/>
</linearGradient>
<linearGradient id="paint15_linear_2706_2657" x1="174.93" y1="47" x2="175" y2="108" gradientUnits="userSpaceOnUse">
<stop stop-color="#FF9085"/>
<stop offset="1" stop-color="#FB6FBB"/>
</linearGradient>
<linearGradient id="paint16_linear_2706_2657" x1="118.5" y1="265" x2="118.5" y2="323" gradientUnits="userSpaceOnUse">
<stop stop-color="#FF9085"/>
<stop offset="1" stop-color="#FB6FBB"/>
</linearGradient>
</defs>
</svg>
