<svg width="24" height="320" viewBox="0 0 24 320" fill="none" xmlns="http://www.w3.org/2000/svg">
<path d="M23.9703 0.957L23.9153 0L22.9563 0.0149999C16.2483 0.119 13.2953 4.247 12.0003 7.621C10.7053 4.246 7.75233 0.119 1.04433 0.0149999L0.0853275 0L0.0303275 0.957C-0.188672 4.755 0.779328 7.747 2.90433 9.85C5.53933 12.456 9.20733 12.935 11.0003 13.004V16.026H13.0003V13.004C14.7933 12.935 18.4603 12.455 21.0963 9.85C23.2213 7.747 24.1893 4.756 23.9703 0.957ZM4.30233 8.419C2.78833 6.916 2.01733 4.783 2.00033 2.066C8.83833 2.686 10.4893 8.544 10.8823 10.993C9.32033 10.903 6.35033 10.452 4.30233 8.419ZM13.1143 10.993C13.4983 8.546 15.1333 2.684 22.0003 2.066C21.9833 4.783 21.2123 6.916 19.6983 8.419C17.6483 10.453 14.6763 10.903 13.1143 10.993Z" fill="white"/>
<path d="M23.9703 318.069L23.9153 319.026L22.9563 319.011C16.2483 318.907 13.2953 314.779 12.0003 311.405C10.7053 314.78 7.75233 318.907 1.04433 319.011L0.0853275 319.026L0.0303275 318.069C-0.188672 314.271 0.779328 311.279 2.90433 309.176C5.53933 306.57 9.20733 306.091 11.0003 306.022V303H13.0003V306.022C14.7933 306.091 18.4603 306.571 21.0963 309.176C23.2213 311.279 24.1893 314.27 23.9703 318.069ZM4.30233 310.607C2.78833 312.11 2.01733 314.243 2.00033 316.96C8.83833 316.34 10.4893 310.482 10.8823 308.033C9.32033 308.123 6.35033 308.574 4.30233 310.607ZM13.1143 308.033C13.4983 310.48 15.1333 316.342 22.0003 316.96C21.9833 314.243 21.2123 312.11 19.6983 310.607C17.6483 308.573 14.6763 308.123 13.1143 308.033Z" fill="white"/>
<line x1="12" y1="15" x2="12" y2="304" stroke="white" stroke-width="2"/>
</svg>
