<svg width="16" height="18" viewBox="0 0 16 18" fill="none" xmlns="http://www.w3.org/2000/svg">
<path d="M12.9497 13.0208C12.1713 13.8039 10.5858 15.3988 9.4181 16.5735C8.6361 17.3601 7.36425 17.3605 6.58225 16.5738C5.43534 15.4201 3.87937 13.8549 3.05025 13.0208C0.316582 10.2709 0.316582 5.81237 3.05025 3.06245C5.78392 0.312518 10.2161 0.312518 12.9497 3.06245C15.6834 5.81237 15.6834 10.2709 12.9497 13.0208Z" stroke="#2B0036" stroke-linecap="round" stroke-linejoin="round"/>
<path d="M10.625 8.04163C10.625 9.5 9.44975 10.6822 8 10.6822C6.55025 10.6822 5.375 9.5 5.375 8.04163C5.375 6.58326 6.55025 5.40102 8 5.40102C9.44975 5.40102 10.625 6.58326 10.625 8.04163Z" stroke="#2B0036" stroke-linecap="round" stroke-linejoin="round"/>
</svg>
