<svg width="60" height="68" viewBox="0 0 60 68" fill="none" xmlns="http://www.w3.org/2000/svg">
<path d="M29.8173 1.00004C36.0538 0.990877 42.1636 2.76024 47.4301 6.1006C61.118 14.7773 62.1266 32.6984 51.2195 45.8014C44.9957 53.2761 38.1451 60.2057 30.7423 66.5149C30.483 66.732 30.1555 66.851 29.8173 66.851C29.4791 66.851 29.1516 66.732 28.8923 66.5149C21.4897 60.2045 14.6391 53.2739 8.41512 45.7985C-2.48913 32.6984 -1.48343 14.7773 12.2045 6.1006C17.471 2.76024 23.5808 0.990877 29.8173 1.00004Z" fill="white"/>
<path d="M29.9995 1.00004C36.236 0.990877 42.3458 2.76024 47.6123 6.1006C61.3002 14.7773 62.3088 32.6984 51.4017 45.8014C45.1777 53.2768 38.3272 60.2074 30.9245 66.5177C30.665 66.7342 30.3375 66.8525 29.9995 66.852V1.00004Z" fill="#E3E3E3"/>
<path d="M29.8173 1.00004C36.0538 0.990877 42.1636 2.76024 47.4301 6.1006C61.118 14.7773 62.1266 32.6984 51.2195 45.8014C44.9957 53.2761 38.1451 60.2057 30.7423 66.5149C30.483 66.732 30.1555 66.851 29.8173 66.851C29.4791 66.851 29.1516 66.732 28.8923 66.5149C21.4897 60.2045 14.6391 53.2739 8.41512 45.7985C-2.48913 32.6984 -1.48343 14.7773 12.2045 6.1006C17.471 2.76024 23.5808 0.990877 29.8173 1.00004Z" stroke="#191919" stroke-linecap="round" stroke-linejoin="round"/>
<path d="M36.217 38.9706C35.0494 40.1924 32.5441 42.814 30.9448 44.4876C30.1571 45.3119 28.8424 45.3124 28.0547 44.4881C26.4827 42.8431 24.0278 40.2742 22.782 38.9706C19.072 35.0883 19.072 28.7939 22.782 24.9117C26.492 21.0294 32.507 21.0294 36.217 24.9117C39.927 28.7939 39.927 35.0883 36.217 38.9706Z" fill="#66FFA6"/>
<path d="M33.062 31.9411C33.062 34 31.467 35.669 29.4995 35.669C27.532 35.669 25.937 34 25.937 31.9411C25.937 29.8823 27.532 28.2132 29.4995 28.2132C31.467 28.2132 33.062 29.8823 33.062 31.9411Z" fill="#66FFA6"/>
<path d="M36.217 38.9706C35.0494 40.1924 32.5441 42.814 30.9448 44.4876C30.1571 45.3119 28.8424 45.3124 28.0547 44.4881C26.4827 42.8431 24.0278 40.2742 22.782 38.9706C19.072 35.0883 19.072 28.7939 22.782 24.9117C26.492 21.0294 32.507 21.0294 36.217 24.9117C39.927 28.7939 39.927 35.0883 36.217 38.9706Z" stroke="#191919" stroke-linecap="round" stroke-linejoin="round"/>
<path d="M33.062 31.9411C33.062 34 31.467 35.669 29.4995 35.669C27.532 35.669 25.937 34 25.937 31.9411C25.937 29.8823 27.532 28.2132 29.4995 28.2132C31.467 28.2132 33.062 29.8823 33.062 31.9411Z" stroke="#191919" stroke-linecap="round" stroke-linejoin="round"/>
</svg>
