<svg width="1375" height="654" viewBox="0 0 1375 654" fill="none" xmlns="http://www.w3.org/2000/svg">
<path d="M570.684 537.763C527.45 537.763 514.48 524.908 499.54 500.269C498.607 498.566 498.385 496.792 498.889 495.048C499.39 493.305 500.607 491.626 502.468 490.108C504.424 488.199 507.875 486.739 512.072 486.04C530.132 483.882 548.657 483.726 566.579 483.569C591.206 483.359 614.52 483.163 637.395 478.337C644.98 476.531 652.294 474.477 659.286 472.191C680.191 465.77 703.86 458.498 725.203 461.899C739.569 464.187 747.504 467.535 748.818 471.851C751.855 481.855 717.186 493.429 694.256 501.093C690.179 502.401 686.649 503.63 683.912 504.611C674.913 508.041 666.367 511.736 658.328 515.675C638.709 524.829 616.435 535.292 590.249 537.057C583.769 537.514 577.232 537.749 570.684 537.763ZM514.097 489.846C512.127 490.322 510.548 491.1 509.61 492.056C506.991 494.209 506.225 496.766 507.475 499.184C524.112 526.739 535.495 536.822 589.236 533.186C612.768 531.591 633.017 522.083 652.719 512.889C661.01 508.826 669.829 505.018 679.124 501.485C681.86 500.465 685.554 499.275 689.686 497.889C708.375 491.651 743.126 480.038 740.828 472.426C739.979 469.693 733.905 467.417 722.741 465.639C705.119 462.827 683.201 469.562 663.855 475.5C656.503 477.909 648.795 480.059 640.788 481.934C616.38 487.165 591.179 487.335 566.908 487.544C549.341 487.636 531.254 487.845 514.097 489.846Z" fill="#DB008f"/>
<path d="M1298.27 281.097C1286.46 281.065 1274.98 279.263 1265.43 275.945C1229.86 263.952 1214.98 235.024 1212.1 221.397C1208.13 202.395 1223.43 187.172 1238.21 172.473C1246.2 164.521 1254.43 156.308 1259.71 147.494C1264.15 140.092 1264.58 130.623 1265.19 120.605C1266.31 97.4571 1267.59 71.2229 1320.62 62.7746C1332.39 60.8914 1337.04 62.0031 1341.67 63.6246C1342.24 63.8209 1342.82 64.0301 1343.44 64.2262C1343.72 64.3062 1343.97 64.3981 1344.21 64.5009L1349.36 67.0118C1349.54 67.0939 1349.71 67.1861 1349.85 67.2865C1356.61 72.086 1353.71 81.5937 1350.31 86.4718C1336.03 106.939 1321.45 131.395 1321.45 157.551C1321.45 170.001 1333.29 179.639 1345.85 189.853C1366.07 206.318 1389 224.98 1360.96 258.512C1351.22 270.151 1334.88 277.645 1313.76 280.169C1308.69 280.781 1303.49 281.094 1298.27 281.097ZM1330.75 65.704C1328.1 65.7788 1325.49 66.0433 1323 66.4887C1275.45 74.0739 1274.3 97.771 1273.18 120.697C1272.68 130.976 1272.22 140.68 1267.49 148.579C1262.01 157.734 1253.61 166.077 1245.59 174.16C1230.65 189.042 1216.54 203.088 1220.28 221.005C1223.46 236.123 1239.44 262.37 1270.14 272.728C1276.04 274.781 1282.84 276.175 1290.03 276.804C1297.21 277.433 1304.6 277.283 1311.65 276.363C1334.99 273.578 1347.22 264.318 1353.21 257.047C1379.78 225.307 1358.88 208.293 1338.66 191.841C1326.1 181.627 1313.13 171.073 1313.13 157.551C1313.13 130.832 1327.93 105.997 1342.41 85.2294C1345.52 80.7697 1347.44 72.9493 1343.12 69.6275L1338.57 67.4172C1337.95 67.2211 1337.34 67.0118 1336.74 66.8026C1335.09 66.0992 1332.96 65.7084 1330.75 65.704Z" fill="#DB008f"/>
<path d="M558.207 362.939C556.494 362.942 554.784 362.884 553.09 362.769C540.284 361.893 531.2 357.773 526.165 350.515C521.13 343.257 530.05 336.3 538.697 329.591C544.17 325.38 549.232 321.391 550.518 317.677C561.901 284.982 522.17 263.665 432.391 254.131L428.67 253.739C415.372 252.339 401.635 250.901 389.787 247.631C388.936 247.393 388.154 247.103 387.461 246.768C385.896 246.046 384.813 245.118 384.356 244.1C383.899 243.084 384.085 242.025 384.895 241.06C385.702 240.095 387.092 239.266 388.89 238.68C390.688 238.094 392.811 237.777 394.986 237.771C415.125 237.522 432.446 236.816 447.742 236.201C498.337 234.174 534.866 232.71 612.14 249.122C663.309 259.99 680.547 279.319 666.264 309.961C661.878 319.505 653.805 328.576 642.458 336.705C631.376 344.329 590.14 362.939 558.207 362.939ZM493.056 238.869C478.69 238.869 464.406 239.445 448.454 240.086C433.048 240.713 415.618 241.393 395.205 241.668C394.631 241.651 394.061 241.72 393.574 241.867C393.09 242.013 392.712 242.229 392.496 242.484C392.283 242.738 392.242 243.019 392.379 243.286C392.515 243.553 392.825 243.792 393.262 243.97C393.454 244.059 393.664 244.137 393.892 244.205C404.645 247.174 417.752 248.547 430.421 249.881L434.17 250.273C528.983 260.343 570.986 283.229 558.618 318.278C557.058 322.751 551.284 327.237 545.702 331.591C537.657 337.83 530.078 343.728 533.936 349.247C537.986 355.053 544.635 358.192 554.267 358.859C581.466 360.729 624.234 342.342 635.699 334.429C646.395 326.7 654.035 318.102 658.246 309.058C671.682 280.169 656.441 262.763 608.801 252.653C556.976 241.668 524.769 238.869 493.056 238.869Z" fill="#DB008f"/>
<path d="M437.48 15.0015C431.625 19.7227 425.55 24.6138 425.55 30.695C425.55 35.4685 429.737 39.7449 433.759 43.8905C437.124 46.9317 439.601 50.179 441.12 53.5421C444.266 62.6965 432.911 70.5434 423.005 75.6045C392.742 90.8402 330.217 102.27 289.2 100.073C268.541 98.9616 254.941 95.6528 247.635 89.977C233.352 78.9 245.72 60.4864 258.416 44.0998C260.332 41.6412 262.192 38.9472 264.162 36.0962C271.031 26.1962 278.802 14.9624 291.526 8.73731C292.894 8.08334 294.536 7.32479 296.396 6.47472C300.309 4.65695 305.043 2.47296 309.722 0.0403876H298.531C295.794 1.3482 293.058 2.57754 290.842 3.64995C288.954 4.52613 287.257 5.31079 285.862 5.97782C271.633 12.8567 263.533 24.5484 256.392 34.8668C254.449 37.6916 252.615 40.3465 250.755 42.7136C237.374 59.9895 224.377 79.4493 240.795 92.0302C249.414 98.7131 265.421 102.728 288.461 103.97C292.196 104.168 295.95 104.264 299.707 104.258C342.339 104.258 399.993 92.9587 429.135 78.2984C445.306 70.1641 452.311 61.3888 449.383 52.9143C447.75 49.1937 445.052 45.5985 441.366 42.2297C437.535 38.3063 433.896 34.6052 433.896 30.695C433.896 25.6862 439.122 21.5404 444.677 17.0025C450.669 12.1637 457.291 6.78858 456.799 0.0012207H448.59C449 5.67701 443.281 10.2282 437.48 15.0015Z" fill="#DB008f"/>
<path d="M139.881 15.2239C149.622 18.6241 162.428 19.3957 177.915 17.5256C190.995 15.9431 205.607 8.81576 222.189 0.0403748H211.052C197.781 6.93245 185.522 12.556 175.918 13.7198C162.701 15.3154 152.522 14.7661 144.724 12.059C137.5 9.52196 132.794 5.27161 129.592 0.0403748H120.973C124.585 6.4486 130.331 11.889 139.881 15.2239Z" fill="#DB008f"/>
<path d="M519.898 28.9033C517.381 36.8808 513.441 47.2123 505.177 56.3668C490.858 71.8683 472.259 86.383 449.876 99.5239C438.931 105.945 423.799 111.556 409.078 116.996C405.056 118.474 401.115 119.925 397.367 121.377C384.068 126.529 368.8 130.393 352.409 132.755C262.685 145.715 221.449 111.019 181.581 77.4615C151.071 51.8026 122.258 27.5039 73.3878 24.6399C48.7609 23.1751 24.3258 24.5483 0 27.1247V31.1527C24.1617 28.537 48.4326 27.0985 72.3752 28.537C117.169 31.1527 144.997 54.6143 174.44 79.397C208.233 107.841 245.885 139.556 316.098 139.556C329.243 139.493 342.296 138.51 354.844 136.639C372.247 134.142 388.46 130.041 402.566 124.568C406.287 123.142 410.2 121.704 414.167 120.226C429.272 114.655 444.869 108.901 456.334 102.126C479.196 88.6796 498.191 73.8307 512.812 57.9753C521.458 48.35 525.508 37.6916 528.08 29.4786C531.552 19.7443 531.774 9.80808 528.737 0.0403442H520.528C523.428 8.05705 523.538 17.5124 519.898 28.9033Z" fill="#DB008f"/>
<path d="M1368.15 413.302C1357.94 412.929 1347.68 412.869 1337.45 413.119C1282.29 414.675 1232.76 427.505 1184.85 439.85C1150.26 448.782 1114.47 458.028 1077.28 462.763C985.645 474.454 912.203 460.736 864.947 423.084C849.924 411.131 839.499 401.702 841.934 388.964C845.41 370.655 859.337 354.962 874.086 338.418C881.419 330.179 888.999 321.652 895.183 312.772C903.693 300.558 904.979 288.853 906.347 276.455C906.785 272.532 907.223 268.347 907.962 264.24C909.22 256.904 914.091 249.475 918.907 242.296C922.806 236.749 925.986 231.093 928.429 225.36C935.954 205.612 915.268 170.563 886.646 154.621C850.526 134.468 798.208 125.771 731.169 128.766C663.035 131.814 601.139 145.99 570.301 154.177C524.468 166.352 443.337 184.256 415.18 167.438C413.459 166.435 412.205 165.27 411.497 164.019C410.788 162.768 410.646 161.459 411.075 160.18C413.456 151.156 437.043 140.563 450.588 135.672C461.15 131.892 472.478 128.125 483.423 124.489C536.946 106.73 592.274 88.3552 603.082 54.7713C609.841 33.7421 605.134 17.0808 591.48 0.0925903H582.615C596.679 17.0023 601.769 33.415 594.955 54.1697C584.585 86.0404 530.843 103.918 478.635 121.22C467.689 124.869 456.225 128.661 445.553 132.481C441.53 133.932 406.205 146.866 402.812 159.63C402.248 161.431 402.478 163.269 403.485 165.026C404.494 166.783 406.259 168.419 408.667 169.831C423.717 178.829 451.928 180.489 492.563 174.761C516.396 171.4 543.841 165.607 574.187 157.551C604.532 149.495 665.169 135.593 731.825 132.624C796.046 129.747 846.012 137.999 880.325 157.119C907.141 172.067 927.28 206.135 920.247 224.601C917.856 230.174 914.758 235.672 910.971 241.066C906.128 248.455 901.121 256.093 899.78 263.861C899.041 268.033 898.576 272.192 898.138 276.207C896.825 288.33 895.566 299.747 887.385 311.517C881.31 320.24 873.703 328.688 866.534 336.849C852.196 352.987 837.338 369.674 833.698 388.585C830.962 402.474 842.537 412.897 857.832 425.072C895.785 455.295 949.8 470.753 1016.18 470.753C1037.53 470.668 1058.76 469.248 1079.34 466.529C1117.48 461.677 1153.68 452.313 1188.79 443.277C1235.91 431.101 1284.56 418.507 1337.97 417.016C1348 416.769 1358.06 416.829 1368.07 417.199L1368.15 413.302Z" fill="#DB008f"/>
<path d="M1368.15 348.332C1325.07 355.221 1283.32 363.894 1243.38 374.252C1229.21 378.062 1215.59 382.321 1202.61 387.003C1188.57 391.829 1174.07 396.824 1158.58 400.525C1109.49 412.296 1020.45 412.296 979.243 394.797C923.204 370.983 939.539 341.701 955.328 313.374C961.348 302.598 971.445 289.193 982.171 274.991C1019 226.132 1064.86 165.32 1014.51 129.224C958.447 89.0357 834.848 91.2197 737.873 106.665C730.157 107.894 720.58 109.96 710.51 112.157C679.18 118.919 636.356 128.204 612.715 119.729C605.628 117.192 601.769 114.498 600.894 111.595C599.197 105.815 609.294 99.4327 619.036 93.2861C622.866 90.8797 626.478 88.5911 629.461 86.3025C633.456 83.2552 637.67 80.182 642.048 76.9256C670.095 56.2233 701.918 32.7746 696.09 7.6128C695.477 5.05593 694.462 2.52477 693.053 0.0407715H684.543C686.138 2.66771 687.274 5.35367 687.936 8.07054C693.408 31.7939 662.461 54.6148 635.152 74.7677C630.72 78.0372 626.533 81.1236 622.511 84.197C619.774 86.3417 616.19 88.5519 612.496 90.9059C601.715 97.7064 590.605 104.742 592.767 112.144C593.944 116.068 599.006 119.716 607.789 122.868C635.152 132.73 678.933 123.3 713.849 115.728C723.782 113.583 733.139 111.556 740.445 110.392C834.547 95.4047 954.178 93.0507 1007.67 131.409C1055.72 165.856 1010.66 225.635 974.427 273.657C963.674 287.938 953.494 301.434 947.393 312.367C930.975 341.832 913.955 372.316 973.798 397.727C994.594 406.567 1027.48 411.838 1066.34 412.57C1069.35 412.57 1072.36 412.662 1075.37 412.662C1107.38 412.662 1139.29 409.51 1162.25 404.03C1178.34 400.185 1193.11 395.098 1207.4 390.181C1220.09 385.608 1233.4 381.44 1247.24 377.705C1285.98 367.674 1326.43 359.229 1368.15 352.464V348.332Z" fill="#DB008f"/>
<path d="M1341.14 0H1340.51C1340.51 5.21747 1334.59 10.3045 1323.08 15.3131C1270.37 38.2174 1199.1 34.3565 1130.11 30.6131C1096.43 28.787 1061.62 26.8957 1030.19 28.3174C1002.59 29.6218 978.971 35.9348 956.114 42.0783C933.257 48.2218 912.208 53.9088 887.071 55.2913C854.227 57.1174 818.92 55.7218 792.708 51.587C756.928 45.9392 736.928 35.6609 733.258 21.0261C731.476 13.9696 734.202 7.12174 737.61 0H729.536C726.26 6.97824 723.586 14.1392 725.447 21.5217C733.022 51.9261 802.59 60 857.871 60C867.915 60 877.952 59.73 887.936 59.1914C914.594 57.7175 937.608 51.5218 959.862 45.5217C983.034 39.287 1004.92 33.3914 1030.9 32.2174C1061.54 30.8347 1094.44 32.6087 1129.24 34.5C1200.02 38.3348 1273.04 42.3261 1328.27 18.2479C1333.2 16.1616 1337.52 13.7525 1341.14 11.0871V0Z" fill="#DB008f"/>
<path d="M1017.52 0.0403748C1012.71 0.798923 1007.75 1.58358 1002.66 2.42059C960.225 9.27337 912.12 17.0547 874.058 6.16085C868.399 4.62603 863.477 2.54102 859.61 0.0403748H849.814C854.518 4.0456 861.49 7.3361 869.926 9.53501C884.568 13.6268 901.292 15.7042 918.249 15.5377C947.145 15.5377 977.381 10.6466 1005.29 6.13473C1014.07 4.70916 1022.39 3.36219 1030.38 2.21131C1037.2 1.26506 1044.15 0.539679 1051.18 0.0403748H1017.52Z" fill="#DB008f"/>
<path d="M1374.11 94.201C1373.79 94.7242 1373.4 95.2604 1373.07 95.7966C1362.73 113.112 1364.29 132.415 1374.11 151.548V94.201Z" fill="#DB008f"/>
<path d="M1368.15 329.865L1363.94 330.402C1344.79 332.912 1327.55 337.712 1310.99 342.342C1302.78 344.604 1294.57 346.958 1286.04 348.972C1237.11 360.664 1122.71 374.723 1079.88 354.203C982.06 307.502 1042.86 234.881 1087.24 181.824C1090.45 177.9 1094.52 174.147 1098.82 170.054C1107.3 162.063 1116.06 153.798 1118.36 145.035C1122.51 129.132 1095.34 120.187 1071.37 112.223C1043.65 103.068 1019.71 95.2213 1036.95 78.6777C1041.52 74.2966 1048.74 70.1771 1055.75 66.1752C1057.94 64.8674 1060.13 63.6774 1062.21 62.435C1072.44 56.3145 1091.32 57.6877 1107.96 58.8908C1110.86 59.1001 1113.65 59.3094 1116.33 59.4663C1152.75 61.6503 1238.07 69.4186 1243.92 94.6066C1248.25 113.138 1230.02 126.726 1210.76 141.099C1202.89 146.77 1195.63 152.631 1189.03 158.663C1182.91 164.587 1176.91 170.054 1171.14 175.285C1132.64 210.085 1107.22 233.076 1160.91 277.972C1173.68 288.67 1201.18 307.476 1241.71 313.283C1275.09 318.069 1321.96 315.27 1368.18 306.744V302.428C1322.68 311.072 1275.99 314.12 1244.06 309.542C1206.27 304.128 1180.2 286.224 1168.02 276.037C1116.58 233.01 1139.84 211.955 1178.39 177.129C1184.22 171.897 1190.24 166.405 1196.42 160.507C1202.86 154.59 1209.95 148.84 1217.66 143.283C1236.81 128.897 1256.68 114.145 1252.05 94.2404C1245.57 66.2799 1155.68 57.9362 1117.34 55.6476C1114.61 55.4907 1111.87 55.2814 1109.13 55.0852C1091.24 53.7775 1068.94 52.1558 1055.72 60.0548C1053.7 61.271 1051.56 62.4873 1049.4 63.7297C1041.74 67.7692 1035.08 72.2192 1029.56 76.9907C1009.12 96.5159 1038.37 106.181 1066.64 115.518C1090.83 123.522 1113.7 131.068 1110.15 144.617C1108.04 152.699 1099.61 160.65 1091.43 168.34C1087.24 172.264 1082.92 176.383 1079.56 180.385C1034.32 234.436 972.374 308.444 1074.08 357.028C1091.7 365.463 1119.56 368.628 1150.21 368.628C1200.06 368.628 1257.28 360.232 1289.76 352.49C1298.46 350.411 1306.97 348.031 1315.18 345.729C1331.27 341.217 1348.01 336.574 1366.16 334.194L1368.21 333.919L1368.15 329.865Z" fill="#DB008f"/>
<path d="M1368.15 610.922C1357.59 612.033 1347.06 613.106 1336.69 614.152C1287.3 619.161 1240.67 623.895 1209.45 631.362C1186.03 636.95 1165.03 644.609 1147.58 653.935H1158.91C1174.57 646.148 1192.9 639.699 1213.11 634.867C1243.41 627.635 1289.54 622.953 1338.38 617.997C1348.21 617.003 1358.17 615.983 1368.15 614.937V610.922Z" fill="#DB008f"/>
<path d="M843.247 639.942C833.807 617.395 786.551 610.922 744.74 605.22C713.437 600.93 683.857 596.889 676.141 586.832C669.738 578.528 678.111 566.248 701.753 549.299C712.564 541.333 727.696 534.92 745.534 530.741C768.956 525.144 789.698 516.853 808.907 505.383C814.926 501.8 819.168 497.249 823.272 492.855C833.041 482.392 842.426 472.401 874.687 472.401C879.536 472.414 884.376 472.607 889.162 472.976C913.789 474.781 926.595 480.378 940.194 486.303C960.854 495.313 982.224 504.612 1044.37 499.681C1107.74 494.633 1175.71 480.143 1235.91 467.366L1246.52 465.103C1259.18 462.267 1271.48 459.078 1283.36 455.556C1303.03 449.972 1323.39 444.179 1346.29 442.008C1353.65 441.302 1361.01 440.779 1368.18 440.425V436.502C1360.35 436.881 1352.47 437.431 1344.57 438.189C1320.38 440.491 1299.42 446.454 1279.14 452.209C1267.54 455.655 1255.52 458.772 1243.16 461.546L1232.51 463.809C1172.95 476.494 1105.39 490.88 1043.03 495.836C984.878 500.479 965.861 492.201 945.749 483.425C931.849 477.37 917.483 471.119 890.448 469.118C839.936 465.391 827.103 479.149 815.802 491.285C812.398 495.423 807.941 499.345 802.531 502.964C784.061 513.975 764.223 521.927 741.894 527.263C722.836 531.763 706.651 538.622 695.021 547.128C669.464 565.437 661.036 578.515 668.506 588.192C677.673 600.106 709.195 604.422 742.551 608.986C783.924 614.649 826.72 620.508 835.175 640.713C836.992 645.077 838.21 649.494 838.814 653.935H847.023C846.408 649.236 845.146 644.561 843.247 639.942Z" fill="#DB008f"/>
<path d="M1368.15 575.715C1359.59 577.455 1351.13 579.207 1342.81 580.947C1289.68 591.971 1239.49 602.381 1180.36 608.044C1148.76 611.065 1111.95 614.06 1105.82 613.772C1085.03 606.906 1056.57 583.248 1051.1 572.642C1039.3 550.109 1084.64 534.285 1121.09 521.573C1127.25 519.415 1133.08 517.388 1138.44 515.387C1158.66 507.88 1179.98 506.599 1202.55 505.239C1216.77 504.603 1230.83 503.289 1244.5 501.315C1261.54 498.357 1278.15 494.863 1294.22 490.853C1314.06 486.171 1334.55 481.332 1354.8 478.913C1359.15 478.39 1363.64 477.997 1368.18 477.671V473.747C1363.01 474.09 1357.87 474.562 1352.8 475.16C1331.71 477.684 1310.8 482.614 1290.58 487.387C1274.84 491.312 1258.58 494.733 1241.9 497.627C1228.73 499.526 1215.2 500.792 1201.51 501.407C1178.83 502.78 1155.41 504.193 1133.41 512.366C1128.15 514.315 1122.46 516.29 1116.25 518.474C1077.94 531.878 1030 548.553 1043.13 573.662C1049.15 585.197 1078.46 609.823 1101.8 617.264C1102.29 617.421 1103.09 617.669 1106.78 617.669C1114.03 617.669 1132.56 616.675 1181.97 611.954C1241.98 606.213 1292.55 595.725 1346.15 584.608L1368.23 580.057L1368.15 575.715Z" fill="#DB008f"/>
<path d="M1368.16 547.729C1358.22 549.547 1348.4 551.43 1338.66 553.287C1297.97 561.134 1255.86 569.177 1211.2 571.112C1180.69 572.42 1162.33 570.72 1160.8 566.404C1157.54 557.25 1215.33 536.6 1249.43 532.52C1282.04 528.596 1316.66 524.176 1348.84 518.029C1353.68 517.101 1360.33 515.95 1368.16 514.681V510.588C1358.03 512.196 1350.1 513.556 1345.8 514.38C1314.06 520.449 1279.77 524.843 1247.43 528.766C1215.09 532.689 1148.13 554.203 1152.73 567.11C1155.22 574.159 1175.3 575.585 1192.27 575.585C1200.26 575.585 1207.53 575.271 1211.94 575.075C1257.8 573.087 1300.46 564.9 1341.72 556.988C1350.45 555.314 1359.26 553.627 1368.16 551.979V547.729Z" fill="#DB008f"/>
<path d="M1275.58 653.935H1275.12C1270.79 653.443 1266.27 653.466 1261.96 654L1275.58 653.935Z" fill="#DB008f"/>
<path d="M1356.61 635C1347.57 637.553 1340.47 641.42 1336.36 646.038C1336.28 646.131 1336.22 646.227 1336.17 646.325H1345.09C1347.84 643.757 1351.78 641.522 1356.61 639.787V635Z" fill="#DB008f"/>
<path d="M1026.66 602.76C1005.29 595.11 992.048 587.655 980.939 577.023C971.252 567.764 966.108 557.89 961.128 548.343C954.779 536.128 948.185 523.495 932.068 511.935C925.337 507.109 914.775 504.323 900.655 503.643C875.071 502.44 846.695 508.573 841.961 510.836C833.15 515.047 824.942 518.486 817.69 521.521C796.238 530.518 780.75 537.018 772.186 553.391C765.454 566.234 798.235 575.428 832.932 585.158C862.648 593.501 893.377 602.159 897.809 612.726C900.245 618.166 897.508 630.394 894.772 644.492C894.143 647.539 893.486 650.704 892.857 653.934H901.066C901.668 650.835 902.297 647.801 902.899 644.871C905.991 629.845 908.372 617.97 905.936 611.954C900.765 599.622 868.421 590.559 837.146 581.77C805.158 572.812 774.977 564.338 780.203 554.307C788.138 539.123 802.093 533.278 823.163 524.437C830.496 521.364 838.815 517.898 847.79 513.569C850.854 512.104 873.101 507.383 893.979 507.383C895.976 507.383 897.946 507.383 899.889 507.514C911.409 508.063 919.974 510.274 925.282 514.053C940.605 525.038 946.707 536.782 953.192 549.22C958.282 558.976 963.508 569.059 973.605 578.71C985.344 589.931 999.299 597.791 1021.74 605.834C1045.41 614.308 1041.22 635.834 1034.71 653.869H1042.92C1049.73 635.024 1053.61 612.425 1026.66 602.76Z" fill="#DB008f"/>
<path d="M805.049 431.375C769.669 420.102 715.709 435.298 663.527 449.893C634.14 458.145 606.366 465.927 585.597 467.732C530.543 472.518 480.551 471.184 422.486 467.732C410.446 467.012 396.71 464.501 382.208 461.846C356.623 457.165 330.218 452.339 306.986 456.04C280.937 460.186 273.795 484.811 268.076 504.585C265.34 513.583 262.987 522.096 259.347 525.667C257.815 526.504 249.031 528.727 240.576 530.898C200.544 541.085 117.251 562.285 87.9997 599.936C78.0669 612.713 69.2014 628.59 88.9574 638.019C113.584 649.789 164.233 638.28 194.497 631.414C199.422 630.29 203.691 629.322 207.166 628.616C271.633 615.407 361.412 602.748 422.869 617.434C453.68 624.797 484.764 639.326 507.913 653.961H518.284C494.122 638.032 460.576 622.064 426.536 613.929C405.794 608.973 382.153 606.959 357.417 606.959C305.427 606.959 248.676 615.839 203.937 625.006C200.325 625.739 196.002 626.732 190.967 627.87C162.646 634.292 115.253 645.041 94.7585 635.246C78.3406 627.399 86.5497 613.014 95.6889 601.309C123.873 565.005 205.223 544.302 244.435 534.337C259.977 530.414 264.984 529.106 266.626 527.484C270.895 523.391 273.357 514.917 276.203 505.108C281.347 487.388 288.38 463.115 309.586 459.741C329.999 456.485 355.036 461.049 379.252 465.495C394.275 468.241 408.422 470.831 421.446 471.616C480.304 475.121 530.899 476.467 587.075 471.616C609.267 469.693 637.642 461.729 667.687 453.307C715.353 439.928 769.395 424.758 800.48 434.658C826.119 442.831 807.102 460.369 794.514 471.969C793.201 473.172 791.97 474.31 790.875 475.356C774.622 490.892 726.709 519.35 691.52 526.817L686.622 527.85C652.746 534.991 596.077 546.944 590.495 565.646C583.053 590.494 630.336 608.214 680.383 626.929C703.532 635.573 726.9 644.348 744.85 653.961H755.796C736.833 643.04 710.811 633.311 685.473 623.882C637.341 605.899 591.891 588.911 598.65 566.26C603.602 549.704 659.779 537.855 689.96 531.499L694.886 530.453C732.236 522.515 781.052 493.586 798.236 477.161L801.82 473.826C814.9 461.69 836.791 441.497 805.049 431.375Z" fill="#DB008f"/>
<path d="M623.303 641.341C611.838 633.664 601.659 625.163 591.808 616.937C585.679 611.824 579.33 606.475 572.654 601.506C560.888 592.508 555.634 582.15 550.572 572.119C544.935 561.056 539.134 549.612 524.577 539.869C504.41 526.36 477.567 520.253 451.627 514.237C435.893 510.614 419.585 506.861 404.535 501.473C399.665 499.72 394.301 496.32 388.637 492.724C374.408 483.674 356.677 472.414 331.749 478.338C318.834 481.424 310.981 485.217 307.752 489.938C302.279 497.785 311.555 506.311 319.627 513.805C325.921 519.625 331.859 525.144 328.548 528.322C322.719 533.893 305.18 536.521 289.692 538.784C282.521 539.745 275.513 540.969 268.732 542.446C254.887 545.754 133.75 575.52 146.118 601.008C146.517 602.12 147.517 603.162 149.019 604.032C150.522 604.9 152.475 605.567 154.683 605.965C171.429 608.921 206.317 597.373 243.64 584.243C250.23 581.78 257.089 579.489 264.19 577.377C315.249 565.188 389.786 557.904 432.774 570.746C512.975 594.705 531.992 611.68 560.778 637.365C566.524 642.492 572.654 647.958 579.686 653.856H589.154C581.164 647.239 574.35 641.171 568.002 635.547C539.654 610.241 519.186 591.959 437.124 567.438C419.038 562.049 397.339 559.97 374.956 559.97C332.351 559.97 287.394 567.49 260.524 573.898C252.932 576.089 245.621 578.495 238.633 581.104C215.128 589.382 171.375 604.775 157.392 602.303C156.464 602.127 155.655 601.832 155.052 601.452C154.449 601.071 154.076 600.62 153.972 600.145C145.079 581.836 227.469 556.688 272.262 545.977C278.665 544.606 285.268 543.461 292.018 542.55C309.038 540 328.356 537.11 335.799 530.048C340.998 525.091 334.13 518.722 326.851 511.974C319.573 505.226 311.172 497.458 315.495 491.128C317.986 487.466 324.498 484.419 335.334 481.83C352.791 477.645 365.679 484.668 382.015 495.025C388.035 498.857 393.727 502.48 399.528 504.559C415.207 510.183 431.871 514.014 447.988 517.715C474.147 523.731 498.855 529.407 517.818 542.093C531.5 551.247 536.808 561.801 542.445 572.996C547.671 583.327 553.089 593.999 565.567 603.533C572.052 608.489 578.345 613.746 584.42 618.834C594.38 627.138 604.669 635.73 616.38 643.564C622.121 647.205 628.442 650.629 635.288 653.804L635.452 653.882H646.89C645.002 652.928 643.059 651.986 641.171 651.058C634.716 648.035 628.743 644.788 623.303 641.341Z" fill="#DB008f"/>
<path d="M222.243 649.723C210.865 650.331 199.741 651.75 189.243 653.934H217.756C219.479 653.803 221.203 653.686 222.9 653.633C238.886 653.07 254.945 653.17 270.895 653.934H319.382C287.671 650.089 254.885 648.668 222.243 649.723Z" fill="#DB008f"/>
<path d="M194.275 443.178C185.615 440.992 177.448 438.921 170.158 436.863C154.838 432.377 140.188 427.404 126.31 421.982C92.3827 409.313 60.2911 397.338 0 399.19V403.049C57.5508 401.222 87.0386 412.245 121.158 425.004C135.332 430.53 150.283 435.6 165.911 440.182C173.392 442.278 181.641 444.362 190.383 446.613C210.828 451.757 231.984 457.134 244.7 463.102C247.139 464.246 246.646 468.89 246.399 471.128C246.399 471.964 246.235 472.723 246.235 473.327C246.235 489.392 237.164 503.489 192.905 520.119C184.683 523.206 174.68 524.981 164.102 526.846C152.619 528.891 140.725 531 131.024 534.975C58.3729 564.776 -18.8821 608.584 17.9779 650H26.9664C-11.2634 610.256 64.9774 567.194 136.587 537.843C145.137 534.319 155.771 532.428 167.144 530.422C177.859 528.518 189.068 526.563 198.166 523.09C232.039 510.37 254.594 497.045 254.594 473.288C254.594 472.735 254.594 472.002 254.758 471.282C255.169 467.423 255.662 462.69 250.647 460.336C236.944 453.97 215.267 448.49 194.275 443.178Z" fill="#DB008f"/>
<path d="M0 548.566V552.973C1.82488 553.495 3.51486 554.119 5.03481 554.83C7.05982 555.811 7.77115 558.021 6.62193 561.042C5.23884 564.514 3.01648 567.898 0 571.125V580.136C7.05982 573.845 12.9155 566.993 14.7214 561.67C16.2263 557.236 14.9129 554.006 10.8359 552.058C7.69255 550.592 4.02188 549.408 0 548.566Z" fill="#DB008f"/>
<path d="M90.5992 460.487C85.1265 456.066 79.4896 451.489 68.435 448.324C52.236 443.681 28.1838 441.053 0.0273438 440.765V444.688C24.8184 444.976 48.4053 447.134 64.2484 451.672C73.4971 454.288 78.3677 458.211 83.5394 462.474C86.4182 464.937 89.6646 467.296 93.2533 469.536C113.83 481.83 121.164 491.769 115.144 499.092C103.597 512.824 47.3926 516.852 0.218836 519.847V523.77C49.8282 520.619 109.452 516.434 122.833 500.518C130.276 491.664 122.833 480.718 99.8753 467.039C96.4594 464.963 93.3595 462.774 90.5992 460.487Z" fill="#DB008f"/>
<path d="M708.704 187.761C703.012 186.754 697.758 185.616 692.614 184.517C680.191 181.836 668.453 179.286 652.609 178.632C611.975 176.867 562.311 180.555 509.856 184.452C418.792 191.226 324.608 198.21 256.584 179.639C206.837 166.051 182.43 142.197 158.815 119.14C135.83 96.7119 114.159 75.5257 71.2535 63.2063C51.3058 57.4781 26.214 55.3596 0.109543 55.6995V59.623C22.6841 59.3483 47.2287 60.9308 67.1762 66.5803C108.057 78.3505 129.236 98.9874 151.646 120.88C175.808 144.42 200.9 168.863 252.725 183.053C323.267 202.316 423.17 194.823 511.334 188.284C563.324 184.36 612.577 180.764 652.089 182.49C666.564 183.118 677.701 185.511 689.467 188.035C694.694 189.16 700.112 190.324 706.022 191.383C762.773 201.558 794.432 211.353 811.917 224.156C831.29 238.346 834.683 257.204 822.862 285.322C816.678 300.06 804.475 311.687 791.559 323.993C782.702 332.049 774.835 340.346 767.999 348.841C763.75 354.793 760.16 360.846 757.246 366.98C750.733 379.613 744.002 392.665 726.325 402.29C674.801 430.447 597.938 446.48 504.055 448.677C424.1 450.534 334.404 441.942 258.007 425.137C229.85 418.991 203.034 410.686 177.176 402.604C142.288 391.749 106.415 380.529 65.6713 374.068C46.5171 371.008 24.2985 370.04 0 371.139V375.062C23.5323 373.964 44.848 374.866 63.154 377.782C102.803 384.099 138.348 395.176 172.606 405.887C198.793 414.021 225.745 422.456 254.477 428.786C325.976 444.417 403.57 452.661 482.192 452.98C489.671 452.98 497.069 452.892 504.384 452.718C600.537 450.482 679.507 433.978 732.427 404.997C751.417 394.64 758.395 381.104 765.126 368.026C767.969 362.03 771.477 356.11 775.634 350.293C782.357 341.923 790.095 333.748 798.81 325.811C811.397 313.805 824.45 301.407 830.825 286.145C843.056 256.943 839.28 237.182 818.649 222.064C800.151 208.502 767.315 198.249 708.704 187.761Z" fill="#DB008f"/>
<path d="M584.776 214.518C549.396 210.294 513.906 212.975 479.565 215.564C469.304 216.336 458.714 217.134 448.371 217.735C439.697 218.232 430.968 218.755 422.212 219.279C351.752 223.503 278.912 227.871 209.875 220.377C154.273 214.374 88.2185 191.815 73.8803 164.521C70.104 157.302 70.5965 148.828 71.144 139.673C72.2659 120.422 73.552 98.5953 26.3779 90.134C17.9088 88.698 8.98644 87.968 0 87.9761V91.8995C8.0209 91.8939 15.983 92.5532 23.5323 93.8481C65.2061 101.329 64.1115 119.912 62.9622 139.621C62.4424 148.527 61.9226 157.721 65.9723 165.476C74.9473 182.621 100.915 195.555 121.136 203.402C146.885 213.42 178.599 220.992 208.069 224.196C278.501 231.846 352.081 227.439 423.225 223.176C431.981 222.64 440.71 222.13 449.329 221.633C459.836 221.031 470.508 220.22 480.851 219.436C514.371 216.911 549.04 214.296 582.779 218.324C617.612 222.483 653.567 233.311 678.96 247.291C706.843 262.619 719.512 279.986 714.532 296.268C706.898 321.862 676.689 344.238 624.726 362.756C531.692 395.882 394.876 406.959 307.588 400.787C268.158 398.027 231.355 389.134 195.728 380.607C182.348 377.377 168.365 374.068 154.683 371.074C133.203 366.457 114.049 357.996 93.7458 349.077C65.6713 336.561 36.557 323.797 0 321.495V325.497C33.7661 327.904 61.3754 340.066 88.2731 351.836C108.139 360.598 128.716 369.661 151.4 374.539C165.081 377.456 178.763 380.777 192.034 383.995C228.235 392.731 265.641 401.767 306.494 404.658C395.451 410.948 535.03 399.662 629.761 365.895C682.763 346.997 714.915 323.104 722.795 296.804C727.967 279.411 714.587 260.906 685.171 244.702C658.711 230.212 621.142 218.913 584.776 214.518Z" fill="#DB008f"/>
<path d="M383.658 259.585C366.282 256.263 348.086 253.046 330.546 249.946C295.521 243.734 259.128 237.313 227.113 229.689C216.935 227.256 203.581 227.505 190.666 227.753C183.373 228.021 176.043 227.956 168.775 227.557C149.95 226.053 126.883 219.932 108.878 214.78C77.1365 205.625 38.6094 183.681 31.7684 164.025C30.2635 159.748 29.4699 155.184 28.5944 150.358C26.1044 136.051 23.2586 120.056 0 110.967V116.434C15.8433 124.79 18.1964 137.908 20.4676 150.711C21.3434 155.615 22.1916 160.245 23.7238 164.678C30.9751 185.446 71.3904 208.607 104.719 218.154C123.325 223.49 147.268 229.832 167.489 231.441C175.326 231.888 183.234 231.971 191.104 231.69C202.979 231.467 215.265 231.232 223.556 233.206C255.845 240.923 292.374 247.383 327.7 253.634C345.213 256.734 363.272 259.938 380.62 263.246C414.332 269.694 472.232 292.502 462.71 313.112C456.143 327.263 430.804 337.11 410.72 342.865C386.161 349.72 359.168 354.354 331.093 356.531C257.514 361.945 141.467 332.298 56.7509 310.667C39.4029 306.233 23.0397 302.062 9.16679 298.74C6.07477 297.994 3.01007 297.275 0 296.569V300.95L5.4727 302.258C19.1542 305.553 35.572 309.725 52.838 314.133C131.48 334.22 236.745 361.108 312.514 361.108C319.136 361.12 325.749 360.889 332.297 360.415C380.894 356.845 457.812 341.531 470.618 313.963C481.371 290.88 420.68 266.66 383.658 259.585Z" fill="#DB008f"/>
<path d="M202.651 248.521L197.178 247.828L180.158 245.657C131.726 239.51 65.3976 231.101 32.3978 217.618C20.2488 212.543 8.59203 203.794 0 194.745V203.52C7.8531 210.307 17.2387 216.467 27.3629 220.521C61.7038 234.58 129.071 243.133 178.27 249.371C184.263 250.129 189.954 250.849 195.236 251.542L200.708 252.235C229.658 255.923 254.668 259.114 248.238 276.01C245.502 282.85 236.827 288.84 222.763 293.339C201.556 300.126 169.213 303.069 144.094 300.492C104.335 296.504 65.6713 281.359 28.4302 266.699C18.8531 262.946 9.27605 259.232 0 255.727V260.722C7.66161 263.639 15.4054 266.673 23.2312 269.733C61.2932 284.681 100.669 300.139 142.206 304.389C149.205 305.094 156.342 305.441 163.494 305.423C186.016 305.463 208.092 302.423 227.113 296.66C243.066 291.56 253.081 284.681 256.091 276.769C263.944 256.368 231.382 252.17 202.651 248.521Z" fill="#DB008f"/>
</svg>
