<svg width="22" height="22" viewBox="0 0 22 22" fill="none" xmlns="http://www.w3.org/2000/svg">
<path d="M14.7964 15.9733L11.4845 12.6614C11.3635 12.5404 11.2205 12.5184 11.1434 12.5184C11.0664 12.5184 10.9234 12.5404 10.8024 12.6614L7.47947 15.9843C7.10538 16.3584 6.52222 16.9636 4.57471 16.9636L8.65679 21.0346C9.2757 21.6528 10.1147 22 10.9894 22C11.8641 22 12.7031 21.6528 13.322 21.0346L17.4151 16.9526C16.4138 16.9526 15.5776 16.7545 14.7964 15.9733ZM7.47947 6.01568L10.8024 9.33856C10.8904 9.42658 11.0224 9.4816 11.1434 9.4816C11.2645 9.4816 11.3965 9.42658 11.4845 9.33856L14.7744 6.04869C15.5556 5.23448 16.4468 5.04743 17.4481 5.04743L13.355 0.965351C12.7361 0.347206 11.8971 0 11.0224 0C10.1477 0 9.30871 0.347206 8.68979 0.965351L4.60772 5.03643C6.54423 5.03643 7.13838 5.67459 7.47947 6.01568Z" fill="#32BCAD"/>
<path d="M21.0236 8.63488L18.548 6.14823H17.1616C16.5675 6.14823 15.9733 6.39029 15.5662 6.8194L12.2653 10.1203C11.9573 10.4284 11.5501 10.5824 11.143 10.5824C10.7238 10.5765 10.3226 10.4113 10.0207 10.1203L6.69786 6.78639C6.27975 6.36828 5.7076 6.12622 5.10244 6.12622H3.48502L0.965351 8.65689C0.347206 9.2758 0 10.1148 0 10.9895C0 11.8642 0.347206 12.7032 0.965351 13.3221L3.48502 15.8528H5.11345C5.7076 15.8528 6.27975 15.6107 6.70887 15.1926L10.0317 11.8697C10.3398 11.5617 10.7469 11.4076 11.154 11.4076C11.5611 11.4076 11.9683 11.5617 12.2763 11.8697L15.5882 15.1816C16.0063 15.5997 16.5785 15.8418 17.1836 15.8418H18.57L21.0457 13.3551C21.6669 12.7254 22.0134 11.8751 22.0093 10.9905C22.0052 10.1058 21.6508 9.25884 21.0236 8.63488Z" fill="#32BCAD"/>
</svg>
