<svg width="28" height="28" viewBox="0 0 28 28" fill="none" xmlns="http://www.w3.org/2000/svg">
<path d="M18.8244 20.3217L14.6109 16.1082C14.4569 15.9542 14.275 15.9262 14.177 15.9262C14.079 15.9262 13.897 15.9542 13.743 16.1082L9.51559 20.3357C9.03965 20.8116 8.29775 21.5815 5.82007 21.5815L11.0134 26.7608C11.8008 27.5472 12.8681 27.989 13.981 27.989C15.0939 27.989 16.1612 27.5472 16.9486 26.7608L22.1559 21.5675C20.8821 21.5675 19.8182 21.3155 18.8244 20.3217ZM9.51559 7.65331L13.743 11.8808C13.855 11.9927 14.023 12.0627 14.177 12.0627C14.331 12.0627 14.4989 11.9927 14.6109 11.8808L18.7964 7.6953C19.7903 6.65944 20.9241 6.42147 22.1979 6.42147L16.9906 1.22814C16.2032 0.441724 15.1359 0 14.023 0C12.9101 0 11.8428 0.441724 11.0554 1.22814L5.86206 6.40747C8.32574 6.40747 9.08165 7.21937 9.51559 7.65331Z" fill="#32BCAD"/>
<path d="M26.7468 10.9846L23.5972 7.82097H21.8335C21.0776 7.82097 20.3217 8.12892 19.8037 8.67485L15.6043 12.8743C15.2123 13.2663 14.6944 13.4622 14.1765 13.4622C13.6431 13.4547 13.1326 13.2445 12.7486 12.8743L8.5212 8.63286C7.98927 8.10093 7.26136 7.79297 6.49146 7.79297H4.43373L1.22814 11.0125C0.441724 11.7999 0 12.8673 0 13.9802C0 15.093 0.441724 16.1604 1.22814 16.9478L4.43373 20.1674H6.50546C7.26136 20.1674 7.98927 19.8594 8.5352 19.3275L12.7626 15.1C13.1546 14.7081 13.6725 14.5121 14.1905 14.5121C14.7084 14.5121 15.2263 14.7081 15.6183 15.1L19.8317 19.3135C20.3637 19.8454 21.0916 20.1534 21.8615 20.1534H23.6252L26.7748 16.9898C27.5652 16.1886 28.0061 15.1068 28.0008 13.9814C27.9956 12.8559 27.5447 11.7784 26.7468 10.9846Z" fill="#32BCAD"/>
</svg>
