<svg width="734" height="509" viewBox="0 0 734 509" fill="none" xmlns="http://www.w3.org/2000/svg">
<path d="M286.888 12.5892C276.022 14.1168 265.782 14.9711 255.973 16.5925C246.182 18.2255 236.953 20.3022 228.061 22.9676C210.299 28.1112 193.387 36.1252 173.5 43.036C168.676 44.8084 163.37 46.4374 158.433 47.8596C153.483 49.3285 148.382 50.6048 143.246 51.8281C132.979 54.2815 122.324 56.1425 111.42 57.1248C100.525 58.0901 89.3457 58.0815 78.3264 56.6967C72.3499 55.9295 66.4288 54.7109 60.6986 53.044L64.1979 56.8832L71.4555 64.8531C73.9015 67.4912 76.4485 70.0523 78.9383 72.6571L93.9701 88.2196C97.3601 91.7966 100.92 95.2335 104.479 98.6763C104.479 98.6763 107.395 101.547 109.729 103.34C128.939 99.7398 145.195 92.4434 161.241 83.8875C171.099 78.6109 180.856 72.8529 191.068 67.1622L194.919 65.0265L199.044 62.9096C201.795 61.4894 204.566 60.096 207.357 58.7355C213.145 56.2504 218.738 53.5157 224.775 51.3509C248.362 42.0307 275.509 37.4121 302.033 39.215C328.622 41.1594 353.59 48.718 376.138 60.0748C350.553 60.1821 326.236 59.0262 303.371 61.4192C291.955 62.6646 280.883 64.4815 270.085 67.1956C259.27 69.7956 248.657 73.0962 238.251 77.1489C232.962 78.9403 227.894 81.3712 222.711 83.4908C217.598 86.0092 212.68 88.092 207.222 90.7453C196.463 95.8101 185.16 100.747 173.04 104.633C160.987 108.564 147.988 111.408 134.631 111.937C128.866 112.167 123.039 111.903 117.322 111.134C125.117 118.615 133.07 125.96 141.023 133.305C146.012 137.842 151.066 142.325 156.156 146.771L156.557 146.64C156.657 146.883 156.738 147.13 156.834 147.375C157.865 148.274 158.917 149.152 159.953 150.043C180.187 146.3 197.143 138.742 213.768 129.772C223.358 124.731 232.708 119.075 242.454 113.581C247.312 110.742 252.161 108.052 257.38 105.246C262.764 102.357 268.346 99.8107 274.004 97.441C296.571 87.9142 321.288 82.0331 346.64 81.1942C359.284 80.7356 372.064 81.6086 384.514 83.8801C396.952 86.177 409.116 89.8196 420.18 95.4697C407.756 96.5525 396.059 97.5126 384.641 99.0989C373.237 100.612 362.189 102.655 351.341 104.961C329.71 109.736 308.776 115.887 288.758 123.785C283.776 125.784 278.911 127.964 274.108 130.177C269.149 132.493 263.914 135.061 258.612 137.373C248.053 142.19 236.907 146.62 225.176 150.263C213.417 153.804 200.943 156.45 188.119 157.014C180.995 157.34 173.772 156.963 166.763 155.798C180.525 167.47 194.605 178.842 209.113 189.76C210.663 189.727 212.197 189.617 213.735 189.54C234.129 185.272 251.359 177.334 268.302 168.09C278.25 162.792 287.949 156.887 298.05 151.155C303.074 148.199 308.116 145.384 313.474 142.467C319.019 139.46 324.755 136.781 330.58 134.289C353.768 124.178 379.219 117.864 405.388 116.441C418.457 115.744 431.688 116.336 444.643 118.431C457.58 120.523 470.286 124.024 481.903 129.625C469.065 130.954 456.969 132.154 445.169 134.021C433.379 135.774 421.961 138.142 410.743 140.697C388.35 145.994 366.721 152.77 345.931 161.108C340.768 163.239 335.712 165.533 330.723 167.872C325.549 170.325 320.145 172.985 314.655 175.408C303.735 180.442 292.223 185.077 280.133 188.939C268.01 192.689 255.178 195.576 241.941 196.374C233.36 196.911 224.601 196.51 216.199 194.948C227.46 203.254 238.934 211.329 250.632 219.126C253.995 219.18 257.33 219.121 260.649 218.979C279.62 215.38 296.193 208.773 312.508 201.128C331.81 192.08 350.576 181.553 371.126 171.99L378.95 168.433L386.955 165.099C392.328 162.914 397.769 160.805 403.353 158.933C414.517 155.19 426.213 152.292 438.277 150.521C450.322 148.738 462.777 148.094 475.203 149.125C487.599 150.2 500.006 152.679 511.317 157.865C499.5 160.994 488.66 163.751 478.15 166.963C467.656 170.125 457.526 173.457 447.47 176.95C437.425 180.457 427.474 184.136 417.432 187.836L402.332 193.456L387.232 199.404C366.906 207.548 345.558 216.23 322.198 221.663C310.537 224.327 298.374 226.206 286.007 226.315C277.082 226.422 268.055 225.598 259.468 223.556C258.666 223.482 257.858 223.475 257.059 223.377C257.403 223.598 257.74 223.831 258.084 224.052L258.201 223.989C258.254 224.066 258.295 224.147 258.344 224.226C265.999 229.21 273.71 234.119 281.548 238.868C290.133 244.073 298.875 249.058 307.688 253.94C311.208 253.9 314.685 253.734 318.14 253.504C336.019 249.961 351.787 243.722 367.287 236.496C386.352 227.613 404.875 217.234 425.19 207.818L432.926 204.312L440.839 201.032C446.155 198.885 451.54 196.814 457.061 194.978C468.128 191.352 479.672 188.464 491.615 186.785C503.533 185.073 515.853 184.504 528.126 185.599C540.368 186.737 552.607 189.276 563.737 194.488C552.04 197.525 541.315 200.195 530.928 203.324C520.555 206.4 510.542 209.648 500.609 213.058C490.696 216.501 480.84 220.039 470.947 223.711L456.034 229.219L441.121 235.057C421.047 243.056 399.943 251.612 376.831 256.908C365.294 259.505 353.257 261.313 341.033 261.351C333.1 261.405 325.087 260.696 317.398 259.043C317.237 259.028 317.076 259.033 316.919 259.015C336.917 269.742 357.444 279.647 378.44 288.679C395.911 285.857 411.707 280.962 427.094 274.922C446.011 267.522 464.252 258.597 483.337 249.858C488.13 247.604 493.04 245.469 498.006 243.365C502.983 241.248 508.011 239.162 513.18 237.255C523.527 233.439 534.429 230.268 545.822 228.153C557.195 226.032 569.112 224.984 581.088 225.752C593.023 226.556 605.039 228.957 615.644 234.249C604.3 237.029 594.161 239.762 584.401 243.05C574.663 246.296 565.33 249.829 555.992 253.53L527.857 264.986L513.439 270.74C508.608 272.713 503.74 274.694 498.781 276.59C478.863 284.418 457.664 291.674 434.879 295.367C423.508 297.167 411.769 298.095 400.038 297.417C399.987 297.414 399.936 297.41 399.886 297.406C413.269 302.719 426.781 307.774 440.489 312.382C442.788 312.598 445.076 312.757 447.358 312.868C462.322 311.27 475.49 307.25 488.205 301.896C503.845 295.398 518.925 287.174 535.922 279.845L542.433 277.128L549.11 274.635C553.605 273.024 558.167 271.488 562.855 270.192C572.226 267.597 582.082 265.861 592.157 265.245C612.185 264.019 633.66 267.292 650.675 277.932C640.754 279.702 631.751 281.118 623.076 282.985C614.417 284.804 606.145 286.816 597.977 289.035C589.815 291.262 581.771 293.706 573.662 296.232L561.462 300.131L549.255 304.407C532.773 310.372 515.11 317.098 495.522 320.397C487.424 321.729 478.997 322.392 470.572 322.023C476.219 323.769 481.851 325.538 487.529 327.213L495.95 329.631L496.157 329.218C498.321 330.019 500.519 330.731 502.729 331.375C508.768 331.861 514.562 331.949 520.163 331.552C527.984 330.988 535.431 329.668 542.805 327.825C557.562 324.194 571.995 318.642 588.36 314.159C592.499 313.004 596.731 312.018 601.029 311.162C605.326 310.297 609.683 309.518 614.127 309.007C623.011 308.001 632.188 307.813 641.339 308.814C659.563 310.754 677.92 317.258 690.724 329.378C681.532 329.519 673.262 329.409 665.247 329.754C657.256 330.059 649.619 330.599 642.077 331.369C634.54 332.173 627.087 333.142 619.584 334.313C615.829 334.889 612.048 335.467 608.261 336.135L596.863 338.361C588.748 340.057 580.212 341.946 571.304 343.396C572.217 343.567 573.145 343.694 574.053 343.874C592.932 347.52 611.345 352.503 629.392 358.558C647.466 364.523 665.3 371.186 682.738 378.985C700.151 386.856 717.352 395.356 733.655 406.432C728.427 406.423 723.262 406.239 718.142 405.919L718.125 405.917C714.783 405.709 711.464 405.426 708.166 405.106C707.573 405.048 706.976 404.992 706.384 404.933C699.82 404.262 693.321 403.409 686.863 402.43C686.118 402.317 685.375 402.202 684.627 402.087C681.499 401.6 678.376 401.098 675.263 400.568C670.517 399.74 665.79 398.845 661.087 397.884C646.984 395.001 633.074 391.54 619.305 387.684C605.512 383.895 591.925 379.503 578.588 374.404C574.14 372.701 569.723 370.921 565.333 369.057C560.937 367.214 556.578 365.257 552.254 363.2C547.929 361.142 543.646 358.979 539.391 356.725C537.553 355.738 535.722 354.732 533.902 353.705C532.374 352.845 530.858 351.959 529.344 351.061C529.114 350.927 528.885 350.794 528.656 350.654C526.963 349.648 525.288 348.602 523.616 347.532C523.577 347.508 523.541 347.482 523.502 347.459C521.786 346.359 520.081 345.218 518.394 344.037C518.272 344.003 518.152 343.972 518.033 343.941C519.554 345.343 521.021 346.787 522.393 348.288C522.946 348.882 523.467 349.489 523.998 350.095C524.141 350.198 524.27 350.312 524.413 350.416C525.196 350.989 525.946 351.597 526.704 352.2C527.551 352.872 528.386 353.549 529.205 354.254C529.911 354.859 530.598 355.467 531.28 356.09C532.182 356.918 533.057 357.76 533.919 358.619C534.445 359.142 534.98 359.655 535.496 360.186C536.855 361.6 538.181 363.041 539.44 364.511C547.835 374.393 553.954 385.069 559.389 395.299C561.201 398.712 562.939 402.071 564.656 405.338L569.86 414.888C571.653 418.018 573.522 421.086 575.368 424.132C577.209 427.184 579.084 430.198 581.003 433.185C582.918 436.169 584.876 439.13 586.888 442.078C588.909 445.019 590.996 447.94 593.165 450.864C595.336 453.791 597.592 456.718 599.952 459.676C604.654 465.634 609.909 471.484 615.517 478.154C610.937 477.753 606.436 476.882 602.061 475.618C588.938 471.828 576.935 464.491 567.171 455.614C560.608 449.681 555.049 442.99 550.368 436.006C548.036 432.505 545.984 428.903 544.041 425.282C542.093 421.669 540.297 418.026 538.703 414.34C535.514 407.086 532.852 400.006 530.226 393.142C527.598 386.274 525.008 379.617 521.958 373.203C519.689 368.379 517.145 363.711 514.164 359.169C513.169 357.652 512.123 356.153 511.027 354.666C509.933 353.187 508.77 351.724 507.55 350.283C506.375 348.893 505.134 347.516 503.841 346.147C503.793 346.098 503.752 346.045 503.704 345.996C501.016 343.165 498.082 340.383 494.904 337.622C494.884 337.617 494.87 337.612 494.852 337.609C483.902 334.562 472.968 331.416 462.073 328.119C462.13 328.166 462.183 328.222 462.238 328.265C464.28 329.919 466.254 331.658 468.108 333.498C471.578 336.908 474.688 340.592 477.479 344.438C479.234 346.854 480.824 349.347 482.345 351.86C483.244 353.349 484.146 354.841 484.971 356.349C488.28 362.469 491.01 368.68 493.364 374.874C497.297 385.201 500.212 395.491 503.105 405.265L506.659 416.758L510.54 428.023C511.86 431.747 513.189 435.449 514.551 439.131C515.912 442.812 517.312 446.481 518.778 450.131C520.252 453.786 521.782 457.43 523.398 461.088C525.008 464.746 526.703 468.418 528.495 472.133C532.05 479.603 536.197 487.046 540.584 495.369C538.145 494.607 535.762 493.728 533.442 492.737C525.552 489.367 518.419 484.698 512.026 479.289C505.273 473.576 499.347 467.032 494.44 460.108C489.823 453.592 486.041 446.705 482.952 439.673C482.372 438.345 481.77 437.024 481.242 435.688C480.409 433.581 479.645 431.468 478.929 429.346C478.215 427.221 477.551 425.091 476.911 422.965L475.098 416.581L473.583 410.189C469.835 393.354 468.019 377.392 464.358 362.048C463.766 359.502 463.089 356.978 462.362 354.466C462.184 353.841 461.998 353.212 461.808 352.592C460.265 347.528 458.399 342.519 456.096 337.561C455.821 336.969 455.544 336.382 455.256 335.794C454.061 333.345 452.791 330.901 451.356 328.466C451.036 328.157 450.736 327.827 450.403 327.522C449.402 326.606 448.379 325.711 447.405 324.774C447.405 324.774 447.386 324.756 447.376 324.743C447.009 324.374 446.604 324.05 446.188 323.735C445.774 323.423 445.347 323.121 444.947 322.798C443.709 322.402 442.461 322.035 441.223 321.634C433.414 319.132 425.661 316.487 417.947 313.738C417.771 313.675 417.598 313.616 417.425 313.556C409.645 310.777 401.914 307.882 394.224 304.886C394.436 305.08 394.621 305.295 394.83 305.492C397.345 307.796 399.779 310.173 402.043 312.678L402.048 312.684C405.814 316.81 409.223 321.174 412.332 325.688C415.44 330.203 418.248 334.861 420.811 339.588C423.36 344.332 425.651 349.135 427.734 353.973C428.772 356.392 429.762 358.816 430.702 361.252C435.405 373.415 438.923 385.721 441.949 397.786C443.202 402.561 444.324 407.318 445.434 412.047L448.864 426.074L455.353 453.58C456.472 458.116 457.631 462.622 458.871 467.135C460.108 471.646 461.425 476.163 462.866 480.71C464.291 485.279 465.899 489.836 467.68 494.5C469.46 499.165 471.414 503.937 473.535 508.938C462.604 504.244 453.384 496.802 445.628 488.478C443.688 486.385 441.859 484.228 440.118 482.02C434.903 475.39 430.558 468.295 426.931 461.067C424.499 456.239 422.378 451.35 420.517 446.433C418.661 441.517 417.067 436.572 415.698 431.631C414.332 426.693 413.202 421.75 412.135 416.835C411.063 411.933 410.051 407.055 409.213 402.187C405.664 382.959 402.783 364.242 398.149 345.93C397.31 342.599 396.389 339.294 395.413 335.993C395.258 335.468 395.106 334.946 394.941 334.423C391.696 323.796 387.609 313.309 382.053 302.821C380.683 301.33 379.298 299.839 377.843 298.412C359.907 290.993 342.308 282.892 325.027 274.244C325.045 274.274 325.059 274.3 325.074 274.326C329.221 278.506 332.93 283.089 336.188 287.877C337.803 290.234 339.317 292.641 340.729 295.089C343.551 299.981 345.981 305.023 348.119 310.122C349.185 312.674 350.18 315.232 351.111 317.802C352.955 322.956 354.543 328.123 355.937 333.279C356.634 335.857 357.286 338.432 357.893 341.004C360.938 353.862 362.971 366.608 364.999 378.929L367.5 393.519L370.309 407.933C372.162 417.501 374.119 426.974 376.188 436.441C377.247 441.172 378.352 445.899 379.524 450.645C380.696 455.391 381.934 460.155 383.266 464.965C384.578 469.796 386.036 474.632 387.59 479.586C389.15 484.541 390.806 489.614 392.504 494.926C389.809 493.477 387.236 491.887 384.769 490.179C382.302 488.471 379.945 486.642 377.689 484.721C373.173 480.875 369.061 476.651 365.271 472.242C359.61 465.591 354.803 458.422 350.75 450.997C349.399 448.524 348.13 446.02 346.943 443.497C342.145 433.404 338.69 422.984 336.178 412.531C335.565 409.916 335.022 407.295 334.527 404.674C334.038 402.055 333.595 399.432 333.178 396.817L332.6 392.899L332.019 388.978L331.164 381.154C329.628 365.664 329.13 350.658 328.187 335.939C327.873 331.033 327.507 326.157 327.038 321.307C327.036 321.276 327.03 321.248 327.029 321.218C326.825 319.099 326.592 316.991 326.345 314.884C326.268 314.209 326.178 313.533 326.093 312.854C325.899 311.307 325.687 309.757 325.459 308.214C325.357 307.5 325.251 306.788 325.143 306.08C324.822 304.044 324.479 302.015 324.085 299.982C324.015 299.61 323.938 299.243 323.865 298.874C323.497 297.029 323.093 295.184 322.658 293.342C322.48 292.584 322.287 291.828 322.094 291.071C321.727 289.618 321.336 288.168 320.918 286.717C320.701 285.958 320.488 285.195 320.255 284.443C319.631 282.394 318.965 280.345 318.227 278.293C317.596 277.381 316.909 276.501 316.252 275.609C315.392 274.446 314.559 273.269 313.646 272.147C311.939 270.052 310.148 268.009 308.249 266.06L308.613 265.798C302.992 262.821 297.399 259.79 291.851 256.698C286.302 253.607 280.799 250.449 275.349 247.214C272.884 245.733 270.464 244.191 268.025 242.68C268.54 243.44 268.994 244.232 269.481 245.003C269.901 245.667 270.329 246.319 270.729 246.991C272.041 249.175 273.288 251.393 274.41 253.647C279.523 263.819 282.77 274.568 285.022 285.245C287.78 298.636 288.932 311.915 289.506 324.891C289.735 330.084 289.872 335.225 289.986 340.309C290.042 342.849 290.094 345.377 290.142 347.885L290.551 362.762L291.29 377.499C291.816 387.281 292.322 396.981 293.048 406.69C293.789 416.398 294.718 426.101 295.982 436.027C297.193 445.989 299.003 456.03 300.852 467.025C294.631 462.618 289.37 457.368 284.697 451.729C281.87 448.318 279.212 444.8 276.832 441.144C273.696 436.273 270.972 431.222 268.622 426.061C266.271 420.9 264.295 415.63 262.648 410.322C261.816 407.665 261.068 404.999 260.397 402.322C259.726 399.644 259.133 396.966 258.611 394.281C257.572 388.913 256.822 383.533 256.346 378.171C255.865 372.809 255.684 367.463 255.608 362.143L255.578 354.178L255.848 346.267C256.768 325.399 259.409 305.595 260.337 285.969C260.486 282.81 260.577 279.659 260.622 276.511C260.633 275.923 260.632 275.329 260.637 274.741C260.702 264.694 260.116 254.645 258.216 244.407C257.78 243.506 257.298 242.629 256.837 241.737C256.227 240.559 255.64 239.369 254.984 238.222C253.759 236.089 252.468 233.995 251.069 231.963C240.481 225.1 230.048 218.049 219.82 210.764L219.823 210.767C220.644 212.496 221.375 214.266 222.06 216.046C222.226 216.472 222.385 216.898 222.544 217.324C223.193 219.105 223.803 220.899 224.321 222.71L224.324 222.729C226.702 230.966 227.77 239.384 228.018 247.703C228.102 250.477 228.095 253.235 228.013 255.971C227.906 258.709 227.734 261.433 227.505 264.137C227.044 269.542 226.355 274.877 225.5 280.114C225.072 282.731 224.597 285.33 224.093 287.903C223.644 290.472 223.116 293.043 222.578 295.578C222.033 298.113 221.488 300.612 220.988 303.023C220.046 307.699 219.16 312.419 218.505 317.185C217.882 321.964 217.395 326.762 217.03 331.573C215.94 346.012 215.988 360.596 216.992 375.29C217.736 385.092 218.86 394.981 220.608 405.032C221.498 410.051 222.461 415.132 223.594 420.274L227.219 436.032C220.337 430.295 214.455 423.712 209.382 416.639C207.691 414.287 206.09 411.877 204.569 409.427C203.061 406.972 201.635 404.477 200.295 401.942C197.612 396.876 195.275 391.662 193.298 386.349C192.307 383.692 191.413 381.015 190.606 378.314C184.025 356.697 182.973 334.115 186.449 312.299C187.305 306.832 188.366 301.384 189.857 296.003C191.314 290.775 192.741 285.925 194.333 281.014C195.824 276.116 197.38 271.296 198.882 266.511C200.382 261.723 201.829 256.97 203.096 252.211C203.668 250.159 204.207 248.107 204.722 246.051C204.914 245.283 205.101 244.508 205.285 243.736C205.591 242.461 205.877 241.18 206.156 239.904C206.363 238.939 206.579 237.978 206.77 237.014C207.001 235.849 207.199 234.684 207.404 233.513C207.74 231.578 208.037 229.634 208.291 227.682C208.38 227.003 208.469 226.329 208.546 225.649C208.709 224.234 208.848 222.809 208.958 221.381C208.998 220.91 209.02 220.436 209.054 219.963C209.267 216.735 209.364 213.473 209.29 210.154L209.291 210.148C208.757 208.483 208.178 206.835 207.545 205.207C206.88 203.524 206.184 201.855 205.404 200.217C198.145 194.831 190.988 189.334 183.918 183.756C179.872 180.562 175.92 177.281 171.936 174.028C169.123 171.733 166.262 169.486 163.479 167.168C164.174 168.94 164.784 170.74 165.344 172.551C165.466 172.941 165.585 173.329 165.698 173.721C166.231 175.547 166.721 177.384 167.119 179.228C168.969 187.687 169.497 196.256 169.217 204.679C169.125 207.486 168.938 210.281 168.686 213.045C167.551 224.113 165.415 234.859 162.726 245.187C161.493 250.346 159.962 255.513 158.639 260.379C158.014 262.731 157.399 265.097 156.825 267.474C156.251 269.851 155.706 272.238 155.218 274.644C151.456 293.926 149.803 313.593 149.816 333.533C149.916 343.511 150.349 353.598 151.445 363.87C152.465 374.173 154.233 384.566 156.037 395.621C153.842 393.557 151.765 391.404 149.799 389.171C145.87 384.713 142.383 379.945 139.283 374.988C137.73 372.51 136.278 369.981 134.909 367.415C132.184 362.279 129.819 356.987 127.814 351.594C125.813 346.2 124.175 340.703 122.908 335.153C120.965 326.817 119.821 318.389 119.401 309.956C118.702 295.901 120.029 281.828 123.105 268.145C124.316 262.657 125.741 257.203 127.581 251.827C128.478 249.225 129.365 246.706 130.266 244.228C131.168 241.75 132.086 239.314 133.044 236.861C133.948 234.414 134.873 231.988 135.796 229.573C138.563 222.332 141.347 215.211 143.727 208.057C144.459 205.943 145.151 203.832 145.826 201.713C146.047 201.018 146.256 200.322 146.468 199.629C146.918 198.165 147.348 196.695 147.762 195.227C147.99 194.421 148.214 193.618 148.429 192.811C148.854 191.223 149.239 189.632 149.611 188.031C149.786 187.276 149.971 186.519 150.134 185.762C150.537 183.887 150.9 181.995 151.224 180.101C151.386 179.159 151.518 178.208 151.657 177.258C151.84 175.997 152.01 174.73 152.156 173.455C152.271 172.432 152.383 171.412 152.472 170.376C152.593 168.998 152.671 167.605 152.737 166.21C152.78 165.322 152.852 164.438 152.871 163.541C152.208 161.092 151.473 158.659 150.578 156.275C144.553 151.07 138.587 145.815 132.705 140.491L116.514 125.566C115.779 124.894 115.074 124.192 114.363 123.496L114.362 123.502C114.984 126.408 115.421 129.343 115.686 132.277C115.955 135.244 116.062 138.208 116.023 141.161C115.944 147.067 115.295 152.923 114.229 158.645C113.695 161.508 113.059 164.335 112.339 167.121C109.517 178.315 105.429 188.917 101.125 199.051C99.4212 202.915 98.0314 206.472 96.5275 210.046C96.0275 211.234 95.5176 212.431 94.9729 213.637C94.1122 216.057 93.1685 218.466 92.2697 220.878C91.3708 223.29 90.5159 225.71 89.845 228.156C88.237 233.005 86.8434 237.877 85.6581 242.771C84.4728 247.665 83.4984 252.584 82.7238 257.521C82.3061 259.991 81.9511 262.467 81.6546 264.957C80.7691 272.418 80.4148 279.968 80.4415 287.648C80.6291 308.146 84.9502 329.486 88.0196 352.104C72.5517 333.6 61.014 312.485 55.5307 289.235C53.536 280.529 52.5389 271.638 52.461 262.759C52.3335 247.966 54.7666 233.215 59.4189 219.462C60.2474 216.657 61.2484 213.94 62.3011 211.24C63.3538 208.541 64.4549 205.864 65.4787 203.155C66.6436 200.519 67.855 197.896 69.0945 195.289L70.9339 191.379L72.8307 187.713C77.8992 177.98 83.0948 168.645 87.7451 159.278C88.7648 157.22 89.7422 155.163 90.6992 153.1C90.9645 152.526 91.2264 151.955 91.4884 151.383C92.3017 149.6 93.0855 147.813 93.837 146.018C93.9928 145.649 94.1579 145.279 94.3137 144.911C95.165 142.849 95.9577 140.773 96.7157 138.686C96.9326 138.09 97.1352 137.49 97.3436 136.89C97.9282 135.212 98.4722 133.522 98.9848 131.819C99.1546 131.259 99.3302 130.7 99.4915 130.136C100.101 128.008 100.642 125.853 101.126 123.673C101.253 123.092 101.358 122.502 101.477 121.918C101.683 120.889 101.844 119.836 102.022 118.797C101.822 117.318 101.591 115.841 101.314 114.373C101.01 112.814 100.677 111.26 100.28 109.718C100.171 109.61 100.022 109.463 99.8442 109.285C99.3065 108.754 98.5108 107.968 97.773 107.244C96.7873 106.279 95.9165 105.422 95.9165 105.422C92.3331 101.912 88.7523 98.4064 85.3373 94.7686L70.276 78.9788C67.7793 76.3369 65.2253 73.7386 62.7757 71.0608L57.2781 64.9545C57.3301 65.1275 57.355 65.3 57.4069 65.473C58.2295 68.237 58.9489 71.0263 59.5018 73.8416C60.903 81.1389 61.4365 88.5338 61.2814 95.8634C61.2326 98.308 61.1032 100.745 60.907 103.163C60.1075 112.855 58.2985 122.352 55.8214 131.525C55.2044 133.818 54.5705 136.102 53.9026 138.37C53.2347 140.638 52.5311 142.88 51.7739 145.093C51.0388 147.301 50.25 149.592 49.4146 151.87C48.5758 154.151 47.6903 156.42 46.7585 158.586C43.1395 167.496 39.1894 175.755 35.4807 183.772C31.7719 191.789 28.3044 199.564 25.6532 207.509C22.8945 215.467 20.8132 223.705 19.2455 232.43C18.8546 234.614 18.5241 236.822 18.2199 239.057C17.609 243.524 17.1198 248.095 16.5434 252.796C16.257 255.145 15.9479 257.527 15.5942 259.949C9.80068 251.47 5.60613 242.245 3.01736 232.536C1.7721 227.687 0.936522 222.712 0.528961 217.697C0.115443 212.682 0.135896 207.629 0.600973 202.614C0.839599 200.195 1.17306 197.788 1.57871 195.407C1.59255 195.327 1.59788 195.243 1.61175 195.164C2.07051 192.503 2.65136 189.876 3.30099 187.277C4.45766 182.66 5.87413 178.153 7.51865 173.834C9.17955 169.306 11.0286 164.948 12.9073 160.706C14.7884 156.467 16.6999 152.338 18.4984 148.263L23.7146 136.048L28.8782 123.574C32.2509 115.298 35.5394 107.106 38.3346 98.7916C39.2471 96.1461 40.0978 93.4893 40.9137 90.8219C41.0819 90.274 41.2416 89.7219 41.4038 89.1732C42.1777 86.5484 42.9159 83.9188 43.5829 81.2584C43.5895 81.2321 43.5995 81.2033 43.6069 81.1711C45.0891 75.2274 46.2853 69.1669 47.1391 62.9154L47.1432 62.9067L47.1206 62.8072C46.7938 60.771 46.4079 58.7478 45.9569 56.7372C45.5574 54.9689 45.0929 53.213 44.5963 51.4709C44.5166 51.1916 44.4588 50.906 44.3757 50.6292L40.9716 46.845C31.459 35.9639 22.3147 24.8393 12.9681 13.8477L17.5853 10.9156L21.4286 8.47691C30.8535 19.2919 40.1359 30.1994 49.6753 40.9272L53.5421 45.1722L53.75 45.1306C53.777 45.2429 53.788 45.3622 53.8184 45.472L55.36 47.1673C73.4237 45.6202 89.7641 42.0272 105.856 37.2205C115.144 34.5087 124.291 31.3673 133.528 28.1474L147.444 23.2232L161.072 18.2575C170.16 14.8426 179.468 11.0103 189.592 7.81022C199.642 4.51855 210.588 2.02074 221.844 0.871437C233.12 -0.229874 244.637 0.249737 255.644 2.1854C266.656 4.22425 277.172 7.68776 286.888 12.5892Z" fill="url(#paint0_linear_503_574)"/>
<defs>
<linearGradient id="paint0_linear_503_574" x1="526.365" y1="368.205" x2="139.324" y2="160.648" gradientUnits="userSpaceOnUse">
<stop offset="0.2261" stop-color="#591C66"/>
<stop offset="0.894" stop-color="#3B1443"/>
<stop offset="1" stop-color="#36133D"/>
</linearGradient>
</defs>
</svg>
