<svg width="560" height="589" viewBox="0 0 560 589" fill="none" xmlns="http://www.w3.org/2000/svg">
<path d="M71.7634 286.492C70.2974 296.287 68.4089 305.367 67.2951 314.272C66.1964 323.163 65.6261 331.682 65.652 340.059C65.5474 356.747 68.1469 373.434 69.0273 392.412C69.3239 397.041 69.3728 402.05 69.3373 406.687C69.339 411.346 69.135 416.087 68.8761 420.845C68.3653 430.359 67.2423 440.056 65.2943 449.744C63.3338 459.42 60.457 469.093 56.4295 478.275C54.2311 483.252 51.6561 488.064 48.7418 492.597L52.9647 490.551L61.7294 486.308C64.6418 484.866 67.5135 483.317 70.4083 481.828L87.7436 472.8C91.7115 470.781 95.6015 468.579 99.4966 466.379C99.4966 466.379 102.731 464.59 104.882 463.028C106.696 445.482 104.549 429.548 101.258 413.472C99.2189 403.591 96.7367 393.673 94.4299 383.379L93.5686 379.5L92.7943 375.388C92.2703 372.645 91.7749 369.89 91.3131 367.126C90.6466 361.482 89.7137 355.942 89.3886 350.163C87.3714 327.366 90.3394 302.69 98.7085 280.195C107.217 257.681 120.171 238.006 135.794 221.396C129.32 243.566 122.077 264.316 118.281 284.717C116.429 294.916 115.161 304.962 114.74 315.002C114.215 325.028 114.35 335.056 115.188 345.099C115.382 350.135 116.187 355.143 116.692 360.171C117.561 365.24 118.102 370.029 118.999 375.431C120.624 386.038 121.998 397.083 122.253 408.566C122.563 420.004 121.689 431.981 118.719 443.676C117.439 448.724 115.714 453.7 113.581 458.451C122.061 453.618 130.462 448.614 138.864 443.61C144.074 440.453 149.254 437.225 154.41 433.957L154.4 433.577C154.636 433.553 154.87 433.545 155.108 433.525C156.151 432.863 157.181 432.177 158.219 431.509C160.171 413.039 157.977 396.432 154.476 379.749C152.572 370.16 150.074 360.62 147.818 350.781C146.606 345.85 145.521 340.965 144.431 335.731C143.31 330.332 142.538 324.85 141.938 319.347C139.48 297.379 140.731 274.484 146.512 252.328C149.36 241.268 153.396 230.431 158.559 220.236C163.74 210.059 170.017 200.464 177.75 192.334C175.499 203.363 173.328 213.732 171.771 224.019C170.154 234.276 169.088 244.361 168.3 254.339C166.883 274.281 166.837 293.971 168.539 313.317C168.991 318.14 169.631 322.908 170.314 327.631C171.047 332.515 171.928 337.702 172.569 342.883C174.03 353.253 175.006 364.033 175.149 375.117C175.198 386.2 174.288 397.672 171.485 408.915C169.938 415.164 167.758 421.318 164.95 427.086C178.591 418.162 192.052 408.885 205.232 399.122C205.601 397.772 205.899 396.416 206.227 395.065C207.766 376.324 205.314 359.381 201.657 342.353C199.622 332.388 196.998 322.484 194.626 312.276C193.356 307.171 192.212 302.088 191.061 296.704C189.881 291.136 189.033 285.487 188.37 279.808C185.565 257.154 186.63 233.512 192.114 210.5C194.865 199.011 198.774 187.711 203.913 177.035C209.046 166.374 215.339 156.273 223.171 147.652C221.026 159.103 218.961 169.878 217.549 180.567C216.041 191.22 215.161 201.708 214.495 212.069C213.334 232.805 213.651 253.257 215.535 273.383C216.056 278.396 216.745 283.358 217.49 288.275C218.286 293.38 219.203 298.737 219.892 304.108C221.448 314.847 222.507 325.996 222.749 337.447C222.885 348.898 222.091 360.742 219.385 372.402C217.648 379.966 215.052 387.444 211.543 394.316C221.627 386.694 231.564 378.83 241.319 370.7C242.229 367.804 243.034 364.902 243.762 361.993C245.515 344.654 244.047 328.621 241.614 312.546C238.733 293.526 234.433 274.592 231.426 254.361L230.354 246.68L229.521 238.899C229.008 233.69 228.578 228.442 228.39 223.13C228.014 212.511 228.506 201.647 230.069 190.753C231.617 179.872 234.256 168.929 238.338 158.438C242.45 147.985 247.782 137.881 255.176 129.418C254.853 140.446 254.458 150.533 254.542 160.45C254.587 170.341 254.873 179.961 255.317 189.557C255.775 199.148 256.407 208.701 257.034 218.338L258.025 232.844L259.3 247.434C261.136 267.109 263.175 287.805 261.884 309.411C261.199 320.185 259.703 331.193 256.624 341.924C254.426 349.675 251.396 357.277 247.423 364.186C247.153 364.861 246.94 365.559 246.65 366.226C246.93 365.984 247.218 365.752 247.498 365.511L247.473 365.393C247.553 365.367 247.634 365.353 247.715 365.33C253.996 359.98 260.226 354.562 266.35 348.994C273.061 342.895 279.622 336.604 286.113 330.226C286.981 327.169 287.73 324.118 288.417 321.069C289.938 304.688 288.582 289.447 286.303 274.184C283.503 255.411 279.27 236.726 276.33 216.735L275.279 209.144L274.469 201.456C273.975 196.306 273.563 191.116 273.39 185.868C273.091 175.363 273.552 164.633 275.164 153.867C276.74 143.115 279.41 132.307 283.508 121.965C287.636 111.661 292.976 101.719 300.346 93.4198C299.974 104.319 299.533 114.285 299.577 124.074C299.578 133.838 299.821 143.335 300.225 152.804C300.662 162.264 301.196 171.699 301.837 181.2L302.78 195.516L304.007 209.915C305.783 229.335 307.775 249.788 306.43 271.145C305.717 281.794 304.194 292.673 301.089 303.263C299.099 310.142 296.429 316.896 293.024 323.127C292.969 323.263 292.933 323.403 292.877 323.535C307.299 308.971 321.145 293.739 334.356 277.878C336.396 262.037 336.211 247.114 334.931 232.252C333.378 213.987 330.33 195.918 327.66 177.165C326.939 172.44 326.35 167.645 325.803 162.809C325.247 157.96 324.731 153.075 324.406 148.114C323.757 138.183 323.809 127.936 324.902 117.535C325.984 107.15 328.136 96.5677 331.874 86.3995C335.634 76.2765 340.797 66.4909 348.102 58.6663C347.598 69.1954 347.362 78.6697 347.705 87.9569C348.017 97.2151 348.681 106.197 349.489 115.225L352.189 142.505L353.47 156.455C353.94 161.14 354.406 165.86 354.775 170.637C356.441 189.877 357.284 210.08 354.634 230.744C353.275 241.046 351.065 251.442 347.467 261.422C347.451 261.465 347.434 261.508 347.418 261.551C355.454 251.327 363.3 240.927 370.809 230.241C371.586 228.307 372.311 226.368 372.993 224.42C375.449 211.061 375.348 198.637 373.975 186.262C372.362 171.065 369.111 155.91 367.126 139.325L366.444 132.995L366 126.579C365.758 122.277 365.599 117.935 365.68 113.547C365.838 104.773 366.864 95.7989 368.916 86.9219C372.995 69.2751 381.342 51.5269 394.923 39.5227C393.909 48.5612 392.825 56.7152 392.215 64.7007C391.568 72.66 391.187 80.3337 391.013 87.9699C390.846 95.6035 390.898 103.191 391.004 110.855L391.249 122.411L391.819 134.069C392.754 149.859 394.046 166.866 391.875 184.663C390.95 192.012 389.361 199.475 386.879 206.672C389.841 202.231 392.818 197.809 395.726 193.324L399.981 186.654L399.677 186.37C400.926 184.701 402.107 182.981 403.232 181.233C405.203 176.131 406.766 171.139 407.86 166.19C409.379 159.277 410.147 152.494 410.443 145.642C411.087 131.941 409.983 118.03 410.301 102.72C410.363 98.8417 410.596 94.9275 410.958 90.9886C411.311 87.0488 411.755 83.0787 412.454 79.1017C413.863 71.1557 416.055 63.1652 419.271 55.5012C425.628 40.2259 435.972 26.0023 449.755 18.0213C447.517 26.0125 445.3 33.1418 443.541 40.1663C441.754 47.1606 440.261 53.9082 438.993 60.6319C437.755 67.3604 436.681 74.0592 435.769 80.8516C435.304 84.2494 434.834 87.6692 434.441 91.1172L433.443 101.552C432.829 109.008 432.274 116.879 431.243 124.959C431.625 124.213 431.974 123.443 432.363 122.702C440.365 107.296 449.407 92.6354 459.283 78.5654C469.087 64.4488 479.435 50.7184 490.664 37.6214C501.95 24.5645 513.726 11.8526 527.503 0.575489C526.153 5.09816 524.668 9.52125 523.077 13.8701L523.07 13.8849C522.033 16.7235 520.936 19.5234 519.812 22.2966C519.609 22.7947 519.408 23.2965 519.205 23.7946C516.939 29.3031 514.533 34.7099 512.027 40.0482C511.738 40.6647 511.448 41.2777 511.156 41.8956C509.931 44.4784 508.695 47.0531 507.437 49.6118C505.502 53.5069 503.514 57.3691 501.474 61.1936C495.357 72.662 488.79 83.8152 481.917 94.7453C475.096 105.713 467.804 116.349 459.966 126.587C457.35 130.001 454.674 133.368 451.933 136.691C449.208 140.024 446.395 143.296 443.503 146.512C440.612 149.729 437.639 152.882 434.595 155.988C433.269 157.326 431.927 158.654 430.571 159.966C429.433 161.069 428.277 162.154 427.111 163.235C426.936 163.399 426.762 163.564 426.583 163.726C425.277 164.934 423.941 166.116 422.585 167.289C422.554 167.317 422.523 167.341 422.492 167.369C421.099 168.573 419.674 169.757 418.218 170.915C418.157 171.012 418.099 171.107 418.042 171.203C419.647 170.245 421.274 169.345 422.926 168.541C423.582 168.214 424.242 167.918 424.902 167.614C425.029 167.517 425.161 167.434 425.287 167.337C425.984 166.806 426.703 166.312 427.42 165.811C428.22 165.25 429.02 164.7 429.841 164.172C430.546 163.716 431.249 163.277 431.964 162.846C432.912 162.277 433.866 161.735 434.83 161.209C435.419 160.887 436 160.556 436.593 160.244C438.166 159.43 439.754 158.651 441.35 157.938C452.063 153.2 462.879 150.634 473.133 148.548C476.554 147.853 479.908 147.207 483.179 146.557L492.785 144.496C495.956 143.745 499.092 142.913 502.204 142.093C505.319 141.281 508.411 140.429 511.49 139.533C514.565 138.638 517.633 137.701 520.702 136.715C523.767 135.717 526.833 134.658 529.922 133.529C533.014 132.399 536.127 131.195 539.295 129.91C545.661 127.363 552.076 124.312 559.292 121.165C557.769 125.026 555.86 128.699 553.642 132.162C546.992 142.55 537.557 151.061 527.363 157.24C520.541 161.403 513.32 164.503 506.07 166.768C502.44 167.89 498.794 168.744 495.159 169.5C491.53 170.262 487.914 170.884 484.313 171.321C477.213 172.225 470.398 172.718 463.78 173.235C457.158 173.753 450.728 174.292 444.391 175.29C439.631 176.02 434.935 177.028 430.236 178.446C428.668 178.92 427.101 179.442 425.532 180.009C423.97 180.578 422.405 181.21 420.844 181.897C419.339 182.559 417.828 183.281 416.31 184.05C416.255 184.079 416.198 184.1 416.144 184.129C413.003 185.732 409.84 187.559 406.634 189.603C406.624 189.619 406.616 189.631 406.609 189.645C401.159 198.342 395.629 207.001 389.978 215.586C390.033 215.549 390.094 215.517 390.146 215.481C392.103 214.137 394.115 212.873 396.184 211.74C400.028 209.608 404.016 207.86 408.064 206.427C410.606 205.527 413.173 204.788 415.74 204.115C417.26 203.717 418.784 203.318 420.301 202.99C426.451 201.692 432.53 200.918 438.498 200.465C448.451 199.702 458.11 199.812 467.318 199.808L478.183 199.672L488.934 199.195C492.498 199.005 496.045 198.802 499.583 198.565C503.121 198.328 506.657 198.055 510.194 197.72C513.738 197.379 517.286 196.987 520.869 196.525C524.45 196.067 528.065 195.539 531.742 194.938C539.123 193.772 546.633 192.087 554.967 190.42C553.681 192.335 552.308 194.173 550.855 195.927C545.911 201.894 540.037 206.873 533.712 211.022C527.031 215.405 519.843 218.86 512.588 221.335C505.76 223.665 498.825 225.176 491.942 226.051C490.644 226.213 489.345 226.397 488.052 226.512C486.013 226.694 483.988 226.814 481.966 226.891C479.943 226.965 477.928 226.995 475.922 227.006L469.929 226.941L464.004 226.618C448.463 225.555 434.174 223.044 419.946 222.288C417.59 222.149 415.23 222.089 412.867 222.076C412.281 222.07 411.689 222.07 411.103 222.076C406.321 222.115 401.505 222.45 396.62 223.174C396.036 223.261 395.457 223.35 394.874 223.449C392.447 223.857 390.004 224.332 387.527 224.95C387.177 225.149 386.814 225.323 386.465 225.533C385.415 226.166 384.377 226.822 383.315 227.425C383.315 227.425 383.295 227.437 383.281 227.443C382.867 227.665 382.483 227.934 382.103 228.213C381.727 228.491 381.356 228.783 380.974 229.047C380.313 230.018 379.675 231.004 379.009 231.972C374.839 238.091 370.558 244.124 366.197 250.097C366.098 250.233 366.002 250.368 365.906 250.502C361.503 256.525 357.011 262.475 352.442 268.364C352.665 268.23 352.899 268.125 353.123 267.995C355.764 266.407 358.446 264.909 361.197 263.59L361.204 263.587C365.744 261.384 370.398 259.549 375.105 258.014C379.813 256.478 384.567 255.239 389.319 254.23C394.082 253.238 398.829 252.484 403.553 251.919C405.914 251.639 408.268 251.402 410.618 251.212C422.359 250.253 433.919 250.355 445.144 250.823C449.6 250.96 454.008 251.206 458.388 251.454L471.416 252.074L496.901 253.494C501.117 253.686 505.317 253.835 509.544 253.917C513.767 254 518.018 254.015 522.325 253.932C526.647 253.867 531.006 253.641 535.503 253.293C540 252.945 544.634 252.475 549.509 251.918C542.638 260.178 533.827 266.254 524.628 270.837C522.317 271.981 519.98 273.012 517.621 273.954C510.541 276.771 503.281 278.717 496.09 280.007C491.285 280.877 486.507 281.462 481.771 281.815C477.038 282.163 472.346 282.279 467.716 282.199C463.089 282.118 458.519 281.832 453.988 281.498C449.468 281.172 444.983 280.8 440.553 280.281C422.99 278.433 406.042 276.14 388.994 275.466C385.894 275.34 382.796 275.291 379.687 275.292C379.192 275.291 378.701 275.29 378.206 275.298C368.17 275.389 358.039 276.243 347.53 278.369C345.887 279.174 344.241 279.991 342.632 280.885C331.603 294.51 320.07 307.669 308.147 320.413C308.176 320.406 308.203 320.4 308.229 320.394C312.913 317.874 317.834 315.836 322.817 314.24C325.273 313.446 327.746 312.751 330.228 312.155C335.189 310.965 340.179 310.152 345.143 309.605C347.627 309.336 350.098 309.129 352.562 308.981C357.498 308.703 362.381 308.65 367.204 308.763C369.615 308.819 372.013 308.913 374.396 309.046C386.313 309.7 397.873 311.2 409.063 312.596L422.34 314.164L435.544 315.42C444.305 316.263 453.011 316.993 461.74 317.624C466.109 317.917 470.487 318.17 474.898 318.37C479.308 318.57 483.752 318.717 488.259 318.794C492.779 318.895 497.341 318.869 502.03 318.792C506.722 318.709 511.541 318.574 516.577 318.463C514.63 320.425 512.593 322.245 510.48 323.943C508.368 325.641 506.179 327.213 503.936 328.675C499.446 331.599 494.733 334.077 489.942 336.229C482.729 339.428 475.287 341.754 467.817 343.362C465.329 343.899 462.835 344.357 460.345 344.739C450.372 346.31 440.462 346.635 430.765 346.135C428.343 345.996 425.934 345.796 423.537 345.554C421.143 345.307 418.759 345.02 416.386 344.712L412.845 344.21L409.301 343.71L402.305 342.448C388.497 339.816 375.374 336.408 362.385 333.459C358.056 332.476 353.74 331.546 349.419 330.711C349.392 330.705 349.366 330.702 349.339 330.696C347.452 330.331 345.567 329.992 343.678 329.668C343.074 329.562 342.466 329.466 341.856 329.367C340.466 329.139 339.07 328.926 337.675 328.728C337.03 328.634 336.387 328.543 335.745 328.456C333.9 328.213 332.055 327.991 330.193 327.811C329.853 327.777 329.516 327.75 329.178 327.719C327.485 327.565 325.784 327.444 324.077 327.348C323.375 327.309 322.671 327.282 321.966 327.256C320.613 327.201 319.257 327.169 317.893 327.16C317.18 327.153 316.465 327.143 315.753 327.152C313.819 327.168 311.874 327.22 309.907 327.334C308.955 327.647 308.017 328.016 307.076 328.357C305.848 328.803 304.615 329.223 303.409 329.726C301.156 330.668 298.928 331.695 296.752 332.841L296.619 332.458C292.598 336.561 288.537 340.627 284.436 344.638C280.335 348.649 276.188 352.604 271.987 356.494C270.072 358.248 268.115 359.948 266.181 361.672C266.972 361.42 267.774 361.23 268.567 361.006C269.249 360.812 269.923 360.609 270.609 360.435C272.837 359.858 275.077 359.345 277.318 358.952C287.439 357.128 297.58 357.067 307.405 357.85C319.709 358.888 331.505 361.288 342.89 364.11C347.445 365.24 351.933 366.437 356.365 367.638C358.579 368.239 360.781 368.841 362.966 369.441L375.954 372.893L388.906 376.023C397.512 378.07 406.042 380.113 414.637 381.968C423.234 383.81 431.875 385.488 440.796 386.933C449.733 388.433 458.894 389.435 468.89 390.647C463.477 394.904 457.58 398.114 451.497 400.716C447.817 402.29 444.089 403.691 440.312 404.816C435.289 406.283 430.215 407.349 425.143 408.063C420.07 408.777 414.999 409.139 409.979 409.207C407.465 409.247 404.964 409.212 402.473 409.109C399.982 409.005 397.511 408.832 395.052 408.598C390.137 408.124 385.284 407.397 380.519 406.437C375.752 405.481 371.076 404.271 366.449 402.976L359.544 400.965L352.762 398.707C334.926 392.573 318.454 385.222 301.696 379.398C298.999 378.461 296.293 377.577 293.578 376.733C293.072 376.573 292.557 376.422 292.049 376.267C283.366 373.641 274.513 371.577 265.159 370.603C264.267 370.75 263.384 370.943 262.493 371.114C261.316 371.34 260.135 371.544 258.973 371.818C256.811 372.333 254.667 372.915 252.548 373.606C243.887 381.014 235.103 388.239 226.169 395.228L226.173 395.226C227.88 394.957 229.601 394.777 231.318 394.64C231.73 394.606 232.14 394.577 232.55 394.548C234.258 394.442 235.968 394.373 237.669 394.388L237.686 394.39C245.431 394.439 252.994 395.668 260.263 397.582C262.686 398.218 265.073 398.929 267.421 399.701C269.765 400.494 272.08 401.339 274.363 402.229C278.925 404.01 283.368 405.972 287.684 408.051C289.841 409.091 291.969 410.167 294.068 411.261C296.178 412.307 298.268 413.421 300.326 414.536C302.382 415.655 304.406 416.766 306.365 417.816C310.173 419.827 314.033 421.802 317.992 423.587C321.971 425.349 326.001 426.998 330.073 428.544C342.299 433.18 354.94 436.87 367.923 439.759C376.602 441.623 385.455 443.179 394.608 444.238C399.183 444.751 403.83 445.217 408.574 445.552L423.151 446.445C416.416 450.934 409.205 454.341 401.778 456.922C399.307 457.784 396.809 458.553 394.297 459.243C391.784 459.92 389.257 460.516 386.719 461.027C381.642 462.053 376.527 462.742 371.419 463.094C368.864 463.272 366.316 463.362 363.769 463.369C343.36 463.535 323.534 458.669 305.533 450.08C301.019 447.941 296.573 445.629 292.296 442.963C288.142 440.364 284.309 437.889 280.464 435.255C276.605 432.711 272.83 430.132 269.072 427.608C265.31 425.085 261.566 422.617 257.769 420.303C256.14 419.284 254.5 418.292 252.852 417.32C252.236 416.957 251.613 416.597 250.992 416.241C249.966 415.65 248.931 415.075 247.898 414.507C247.115 414.081 246.338 413.649 245.552 413.236C244.603 412.738 243.644 412.269 242.682 411.792C241.093 411.007 239.486 410.252 237.861 409.533C237.296 409.282 236.735 409.033 236.165 408.792C234.982 408.289 233.784 407.804 232.576 407.344C232.178 407.189 231.773 407.048 231.372 406.898C228.631 405.888 225.831 404.97 222.938 404.185L222.933 404.183C221.354 404.219 219.778 404.299 218.206 404.43C216.578 404.575 214.954 404.751 213.335 405.006C206.807 409.911 200.211 414.699 193.566 419.391C189.761 422.075 185.905 424.657 182.066 427.273C179.356 429.12 176.676 431.021 173.954 432.837C175.667 432.688 177.382 432.621 179.094 432.6C179.463 432.594 179.829 432.59 180.198 432.593C181.916 432.598 183.633 432.644 185.332 432.771C193.133 433.334 200.688 435.069 207.912 437.466C210.319 438.264 212.691 439.14 215.02 440.066C224.313 443.879 233.071 448.476 241.325 453.445C245.476 455.832 249.558 458.478 253.433 460.868C255.309 462.011 257.2 463.148 259.111 464.253C261.022 465.358 262.949 466.44 264.908 467.478C280.64 475.666 297.249 482.127 314.52 487.216C323.187 489.682 332.032 491.887 341.209 493.566C350.394 495.319 359.848 496.447 369.885 497.713C367.534 499.085 365.136 500.332 362.698 501.463C357.829 503.722 352.805 505.521 347.717 506.936C345.171 507.646 342.609 508.256 340.035 508.784C334.888 509.829 329.698 510.522 324.514 510.878C319.328 511.23 314.148 511.241 309.016 510.919C301.299 510.467 293.706 509.302 286.296 507.508C273.944 504.518 262.098 499.77 251.037 493.608C246.595 491.155 242.239 488.528 238.055 485.56C236.032 484.118 234.078 482.706 232.163 481.292C230.249 479.878 228.374 478.461 226.497 477.004C224.609 475.596 222.746 474.174 220.892 472.758C215.331 468.511 209.879 464.28 204.294 460.39C202.651 459.216 201.001 458.077 199.339 456.951C198.794 456.582 198.245 456.223 197.699 455.862C196.547 455.098 195.384 454.351 194.219 453.616C193.579 453.213 192.941 452.814 192.298 452.421C191.031 451.648 189.753 450.907 188.462 450.176C187.853 449.831 187.245 449.478 186.631 449.143C185.111 448.314 183.566 447.516 182.008 446.751C181.234 446.37 180.445 446.012 179.657 445.65C178.612 445.168 177.559 444.698 176.492 444.245C175.636 443.883 174.781 443.526 173.907 443.183C172.745 442.726 171.558 442.302 170.367 441.888C169.609 441.625 168.862 441.336 168.09 441.09C165.799 441.037 163.504 441.051 161.209 441.216C155.155 445.099 149.073 448.918 142.953 452.647L125.872 462.842C125.101 463.306 124.313 463.737 123.527 464.174L123.532 464.177C126.208 464.382 128.863 464.754 131.471 465.275C134.11 465.801 136.704 466.467 139.251 467.256C144.345 468.835 149.251 470.895 153.932 473.281C156.274 474.475 158.559 475.749 160.787 477.085C169.757 482.39 177.889 488.639 185.56 494.957C188.47 497.42 191.193 499.533 193.902 501.748C194.803 502.485 195.708 503.232 196.613 504.012C198.488 505.376 200.332 506.809 202.19 508.204C204.048 509.599 205.925 510.958 207.87 512.164C211.657 514.796 215.518 517.248 219.452 519.526C223.386 521.804 227.396 523.905 231.473 525.838C233.505 526.832 235.558 527.772 237.638 528.666C243.872 531.341 250.319 533.579 256.977 535.52C274.776 540.601 294.366 542.319 314.741 545.448C294.746 554.102 273.499 558.687 251.957 557.485C243.906 556.985 235.951 555.573 228.241 553.369C215.397 549.696 203.247 543.817 192.532 536.273C190.316 534.838 188.219 533.277 186.152 531.675C184.084 530.074 182.048 528.436 179.965 526.857C177.982 525.175 176.021 523.455 174.081 521.716L171.167 519.124L168.479 516.544C161.351 509.668 154.601 502.784 147.683 496.363C146.163 494.954 144.632 493.582 143.091 492.226C142.662 491.85 142.234 491.477 141.806 491.104C140.471 489.944 139.124 488.809 137.763 487.699C137.484 487.47 137.206 487.232 136.926 487.003C135.359 485.739 133.765 484.522 132.152 483.332C131.692 482.992 131.224 482.663 130.758 482.329C129.455 481.394 128.131 480.491 126.788 479.612C126.347 479.322 125.908 479.027 125.461 478.743C123.775 477.671 122.047 476.652 120.283 475.675C119.813 475.416 119.329 475.175 118.853 474.923C118.015 474.481 117.144 474.072 116.291 473.653C114.958 473.448 113.62 473.27 112.278 473.134C110.849 472.998 109.418 472.888 107.981 472.838C107.86 472.904 107.694 472.996 107.494 473.104C106.897 473.434 106.012 473.921 105.195 474.375C104.106 474.981 103.14 475.515 103.14 475.515C99.1816 477.719 95.2262 479.921 91.1994 481.946L73.6596 490.942C70.7309 492.427 67.8252 493.973 64.8775 495.408L58.1784 498.604C58.3416 498.603 58.4973 498.626 58.6605 498.625C61.2652 498.62 63.8655 498.711 66.4454 498.953C73.1245 499.607 79.6655 501.037 85.9731 503.046C88.0776 503.713 90.1547 504.448 92.1989 505.237C100.386 508.408 108.147 512.403 115.455 516.893C117.282 518.013 119.098 519.146 120.89 520.304C122.683 521.462 124.443 522.645 126.166 523.866C127.889 525.067 129.67 526.336 131.429 527.642C133.189 528.951 134.927 530.298 136.563 531.658C143.351 537.069 149.489 542.601 155.48 547.861C161.471 553.122 167.314 558.111 173.514 562.438C179.697 566.861 186.298 570.77 193.451 574.358C195.242 575.255 197.069 576.106 198.927 576.941C202.638 578.612 206.471 580.205 210.394 581.906C212.355 582.755 214.339 583.632 216.345 584.557C207.515 587.402 198.45 588.673 189.378 588.43C184.859 588.267 180.336 587.718 175.888 586.788C171.439 585.863 167.068 584.553 162.845 582.867C160.811 582.042 158.813 581.138 156.854 580.178C156.789 580.145 156.718 580.119 156.652 580.087C154.465 579.009 152.34 577.835 150.256 576.608C146.554 574.426 143.015 572.047 139.697 569.519C136.202 566.923 132.902 564.208 129.711 561.497C126.523 558.785 123.438 556.074 120.37 553.476L111.13 545.837L101.654 538.177C95.3522 533.141 89.1025 528.2 82.6192 523.654C80.5625 522.188 78.48 520.772 76.3794 519.383C75.9481 519.098 75.511 518.818 75.0775 518.537C73.0029 517.196 70.9152 515.885 68.7825 514.627C68.7615 514.615 68.739 514.599 68.713 514.584C63.9462 511.781 59.0049 509.195 53.8101 506.857L53.8037 506.852L53.7117 506.846C51.8644 506.608 50.0133 506.424 48.1563 506.3C46.5225 506.194 44.8827 506.146 43.2466 506.131C42.9841 506.128 42.7221 506.105 42.461 506.106L38.3102 508.084C26.4455 513.534 14.4645 518.602 2.5468 523.88L1.19267 519.134L0.0672232 515.184C11.8522 509.793 23.6806 504.55 35.4193 499.038L40.0879 496.777L40.1053 496.587C40.2094 496.592 40.3156 496.613 40.4185 496.615L42.2823 495.714C45.5789 479.685 46.6614 464.624 46.629 449.468C46.6646 440.736 46.2919 432.016 45.8742 423.198L45.1815 409.895L44.3793 396.83C43.7545 388.091 42.8247 379.056 42.652 369.475C42.3808 359.936 43.0273 349.823 44.9209 339.788C46.8614 329.747 50.2327 319.903 54.7343 310.871C59.3263 301.862 65.0248 293.647 71.7634 286.492Z" fill="url(#paint0_linear_503_572)"/>
<defs>
<linearGradient id="paint0_linear_503_572" x1="441.194" y1="170.198" x2="162.352" y2="452.316" gradientUnits="userSpaceOnUse">
<stop offset="0.2261" stop-color="#591C66"/>
<stop offset="0.894" stop-color="#3B1443"/>
<stop offset="1" stop-color="#36133D"/>
</linearGradient>
</defs>
</svg>
