<svg width="1374" height="361" viewBox="0 0 1374 361" fill="none" xmlns="http://www.w3.org/2000/svg">
<path d="M570.684 296.838C527.45 296.838 514.48 289.742 499.54 276.142C498.607 275.202 498.385 274.222 498.889 273.26C499.39 272.298 500.607 271.371 502.468 270.533C504.424 269.48 507.875 268.673 512.072 268.288C530.132 267.097 548.657 267.01 566.579 266.924C591.206 266.808 614.52 266.7 637.395 264.036C644.98 263.039 652.294 261.905 659.285 260.643C680.191 257.099 703.86 253.085 725.203 254.962C739.569 256.225 747.504 258.073 748.818 260.455C751.855 265.978 717.186 272.366 694.256 276.597C690.179 277.319 686.649 277.997 683.912 278.539C674.912 280.432 666.367 282.471 658.328 284.646C638.709 289.699 616.435 295.474 590.249 296.448C583.769 296.7 577.232 296.83 570.684 296.838ZM514.097 270.389C512.127 270.651 510.548 271.081 509.61 271.609C506.991 272.797 506.225 274.208 507.475 275.543C524.112 290.753 535.495 296.319 589.236 294.312C612.768 293.431 633.017 288.183 652.718 283.108C661.009 280.865 669.829 278.763 679.124 276.813C681.86 276.25 685.554 275.593 689.686 274.828C708.375 271.385 743.126 264.974 740.828 260.773C739.979 259.264 733.905 258.008 722.74 257.026C705.119 255.474 683.201 259.192 663.855 262.469C656.503 263.799 648.795 264.986 640.788 266.021C616.38 268.909 591.179 269.003 566.908 269.118C549.341 269.169 531.254 269.284 514.097 270.389Z" fill="#FFEFE9"/>
<path d="M1298.27 155.161C1286.46 155.143 1274.98 154.149 1265.43 152.317C1229.86 145.698 1214.98 129.73 1212.1 122.208C1208.13 111.719 1223.43 103.316 1238.21 95.2019C1246.2 90.8129 1254.43 86.2794 1259.71 81.414C1264.15 77.3281 1264.58 72.1017 1265.19 66.5718C1266.31 53.7944 1267.59 39.3135 1320.62 34.6501C1332.39 33.6106 1337.04 34.2243 1341.67 35.1193C1342.24 35.2276 1342.82 35.3432 1343.44 35.4514C1343.72 35.4955 1343.97 35.5463 1344.21 35.603L1349.36 36.989C1349.54 37.0343 1349.71 37.0852 1349.85 37.1407C1356.61 39.7899 1353.71 45.038 1350.31 47.7307C1336.03 59.0281 1321.45 72.5276 1321.45 86.9653C1321.45 93.8376 1333.29 99.1578 1345.85 104.796C1366.07 113.884 1389 124.185 1360.96 142.695C1351.22 149.119 1334.88 153.256 1313.76 154.649C1308.69 154.987 1303.49 155.159 1298.27 155.161ZM1330.75 36.2671C1328.1 36.3084 1325.49 36.4544 1323 36.7003C1275.45 40.8872 1274.3 53.9677 1273.18 66.6223C1272.68 72.2966 1272.22 77.653 1267.49 82.0131C1262.01 87.0663 1253.61 91.6719 1245.59 96.1332C1230.65 104.348 1216.54 112.101 1220.28 121.991C1223.46 130.336 1239.44 144.824 1270.14 150.541C1276.04 151.675 1282.84 152.444 1290.03 152.792C1297.21 153.139 1304.6 153.056 1311.65 152.548C1334.99 151.011 1347.22 145.9 1353.21 141.886C1379.78 124.366 1358.88 114.974 1338.66 105.893C1326.1 100.255 1313.13 94.4295 1313.13 86.9653C1313.13 72.2172 1327.93 58.5083 1342.41 47.0449C1345.52 44.5832 1347.44 40.2664 1343.12 38.4328L1338.57 37.2128C1337.95 37.1046 1337.34 36.989 1336.74 36.8735C1335.09 36.4852 1332.96 36.2696 1330.75 36.2671Z" fill="#FFEFE9"/>
<path d="M558.207 200.337C556.494 200.339 554.784 200.307 553.09 200.243C540.284 199.76 531.2 197.486 526.165 193.479C521.13 189.473 530.05 185.632 538.697 181.929C544.17 179.605 549.232 177.403 550.518 175.353C561.901 157.306 522.17 145.539 432.391 140.277L428.67 140.06C415.372 139.288 401.635 138.493 389.787 136.689C388.936 136.557 388.154 136.397 387.461 136.212C385.896 135.814 384.813 135.301 384.356 134.74C383.899 134.179 384.085 133.594 384.895 133.061C385.702 132.529 387.092 132.071 388.89 131.747C390.688 131.424 392.811 131.249 394.986 131.246C415.125 131.109 432.446 130.719 447.742 130.38C498.337 129.261 534.866 128.452 612.14 137.512C663.308 143.511 680.547 154.18 666.264 171.094C661.877 176.362 653.805 181.369 642.458 185.856C631.376 190.065 590.14 200.337 558.207 200.337ZM493.056 131.852C478.69 131.852 464.406 132.17 448.454 132.524C433.048 132.87 415.618 133.245 395.205 133.397C394.631 133.388 394.061 133.426 393.574 133.507C393.09 133.588 392.712 133.707 392.496 133.847C392.283 133.988 392.242 134.143 392.379 134.29C392.515 134.437 392.825 134.569 393.262 134.667C393.454 134.717 393.664 134.76 393.892 134.797C404.645 136.436 417.752 137.194 430.421 137.93L434.17 138.147C528.983 143.705 570.986 156.338 558.618 175.685C557.058 178.154 551.284 180.63 545.702 183.034C537.657 186.477 530.078 189.733 533.936 192.779C537.985 195.984 544.635 197.717 554.267 198.085C581.465 199.117 624.234 188.968 635.699 184.6C646.395 180.334 654.035 175.587 658.246 170.596C671.682 154.649 656.44 145.041 608.801 139.461C556.975 133.397 524.769 131.852 493.056 131.852Z" fill="#FFEFE9"/>
<path d="M437.481 8.27997C431.626 10.886 425.551 13.5858 425.551 16.9425C425.551 19.5775 429.737 21.938 433.76 24.2263C437.125 25.905 439.602 27.6975 441.121 29.5539C444.267 34.607 432.911 38.9383 423.006 41.732C392.743 50.1419 330.218 56.4511 289.201 55.2384C268.542 54.6248 254.942 52.7984 247.636 49.6655C233.353 43.5511 245.721 33.387 258.417 24.3419C260.333 22.9847 262.193 21.4977 264.163 19.9239C271.032 14.4593 278.803 8.25835 291.527 4.82221C292.895 4.46122 294.536 4.04251 296.397 3.57329C300.31 2.5699 305.044 1.36437 309.723 0.0216196H298.532C295.795 0.743513 293.059 1.42209 290.843 2.01405C288.954 2.49769 287.258 2.93081 285.862 3.299C271.634 7.09606 263.534 13.5497 256.393 19.2454C254.45 20.8046 252.616 22.2701 250.756 23.5767C237.375 33.1128 224.378 43.8543 240.796 50.7988C249.415 54.4877 265.422 56.7038 288.462 57.3896C292.197 57.4985 295.951 57.5515 299.708 57.5484C342.34 57.5484 399.994 51.3113 429.135 43.219C445.307 38.729 452.312 33.8852 449.384 29.2073C447.751 27.1536 445.053 25.1691 441.367 23.3096C437.536 21.1439 433.897 19.1009 433.897 16.9425C433.897 14.1778 439.123 11.8894 444.678 9.38447C450.67 6.71353 457.292 3.74654 456.8 0H448.591C449.001 3.13296 443.282 5.64514 437.481 8.27997Z" fill="#FFEFE9"/>
<path d="M139.88 8.40257C149.621 10.2795 162.427 10.7054 177.914 9.6731C190.994 8.79958 205.606 4.86538 222.188 0.0214844H211.051C197.78 3.82582 185.521 6.92995 175.917 7.57236C162.7 8.45309 152.522 8.1499 144.723 6.65559C137.499 5.25519 132.793 2.90906 129.591 0.0214844H120.972C124.584 3.55874 130.33 6.56176 139.88 8.40257Z" fill="#FFEFE9"/>
<path d="M520.138 15.9297C517.644 20.3326 513.74 26.0347 505.552 31.0872C491.364 39.6426 472.935 47.6534 450.757 54.906C439.912 58.4499 424.919 61.5463 410.332 64.549C406.347 65.3646 402.443 66.1658 398.728 66.9669C385.552 69.8102 370.423 71.943 354.182 73.2467C265.28 80.3996 224.422 61.2504 184.919 42.7295C154.688 28.5681 126.139 15.1574 77.7159 13.5767C53.3145 12.7683 29.1031 13.5262 5 14.9481V17.1712C28.9404 15.7276 52.9891 14.9337 76.7125 15.7276C121.096 17.1712 148.669 30.1199 177.842 43.7978C211.326 59.4965 248.633 77 318.204 77C331.229 76.9653 344.162 76.4225 356.595 75.3904C373.839 74.0118 389.903 71.7489 403.88 68.728C407.567 67.9413 411.444 67.1474 415.375 66.3318C430.341 63.257 445.796 60.0811 457.156 56.3423C479.808 48.9209 498.63 40.7257 513.116 31.9749C521.684 26.6626 525.696 20.7801 528.245 16.2473C531.685 10.8748 531.905 5.39091 528.896 0H520.762C523.636 4.4245 523.744 9.643 520.138 15.9297Z" fill="#FFEFE9"/>
<path d="M1368.15 228.137C1357.94 227.931 1347.68 227.898 1337.45 228.036C1282.29 228.895 1232.76 235.976 1184.85 242.791C1150.26 247.721 1114.47 252.825 1077.28 255.438C985.645 261.892 912.203 254.319 864.947 233.536C849.924 226.938 839.499 221.734 841.934 214.703C845.41 204.596 859.337 195.934 874.086 186.802C881.419 182.254 888.999 177.547 895.183 172.646C903.693 165.903 904.979 159.442 906.347 152.599C906.785 150.433 907.222 148.123 907.961 145.857C909.22 141.807 914.091 137.707 918.907 133.743C922.806 130.682 925.985 127.56 928.429 124.395C935.954 113.495 915.267 94.1482 886.645 85.3485C850.526 74.2242 798.208 69.4234 731.169 71.0766C663.034 72.7588 601.139 80.5841 570.301 85.103C524.468 91.8237 443.337 101.706 415.18 92.4229C413.459 91.8693 412.205 91.226 411.497 90.5359C410.788 89.8451 410.646 89.1225 411.075 88.4165C413.456 83.4354 437.043 77.5882 450.588 74.8884C461.15 72.8021 472.478 70.7229 483.423 68.716C536.946 58.9128 592.274 48.7704 603.082 30.2325C609.841 18.6246 605.134 9.4278 591.48 0.0505371H582.614C596.679 9.38449 601.769 18.4441 594.955 29.9004C584.585 47.4926 530.843 57.3608 478.635 66.9113C467.689 68.9254 456.225 71.0188 445.553 73.127C441.53 73.9282 406.205 81.0677 402.812 88.1132C402.248 89.1073 402.478 90.1216 403.485 91.0918C404.494 92.0613 406.259 92.9643 408.667 93.744C423.717 98.7105 451.928 99.6273 492.563 96.4654C516.396 94.6102 543.841 91.4122 574.187 86.9655C604.532 82.5188 665.169 74.8451 731.825 73.2064C796.046 71.6179 846.011 76.1733 880.325 86.7272C907.14 94.9784 927.28 113.783 920.247 123.976C917.856 127.052 914.758 130.087 910.971 133.065C906.128 137.144 901.12 141.359 899.78 145.647C899.041 147.95 898.576 150.246 898.138 152.462C896.825 159.154 895.566 165.456 887.384 171.953C881.31 176.768 873.703 181.431 866.534 185.936C852.195 194.844 837.337 204.055 833.698 214.493C830.962 222.16 842.536 227.913 857.832 234.634C895.785 251.316 949.799 259.849 1016.18 259.849C1037.53 259.802 1058.76 259.018 1079.34 257.517C1117.48 254.839 1153.68 249.671 1188.79 244.682C1235.91 237.962 1284.56 231.01 1337.97 230.187C1348 230.05 1358.06 230.084 1368.07 230.288L1368.15 228.137Z" fill="#FFEFE9"/>
<path d="M1368.15 192.274C1325.06 196.077 1283.31 200.864 1243.38 206.582C1229.21 208.685 1215.59 211.036 1202.61 213.62C1188.57 216.284 1174.07 219.041 1158.58 221.084C1109.49 227.581 1020.45 227.581 979.242 217.922C923.202 204.777 939.538 188.614 955.327 172.978C961.347 167.03 971.444 159.63 982.17 151.791C1019 124.821 1064.86 91.2537 1014.51 71.3295C958.446 49.146 834.847 50.3516 737.872 58.877C730.156 59.5556 720.579 60.6962 710.509 61.9089C679.179 65.641 636.355 70.7664 612.714 66.0886C605.627 64.6882 601.768 63.2011 600.893 61.5985C599.197 58.4078 609.293 54.885 619.035 51.4922C622.865 50.1639 626.477 48.9006 629.46 47.6373C633.455 45.9553 637.669 44.2589 642.047 42.4614C670.094 31.034 701.917 18.0906 696.089 4.20163C695.476 2.79027 694.461 1.39311 693.052 0.0219727H684.542C686.137 1.47201 687.272 2.95462 687.935 4.4543C693.407 17.5493 662.46 30.1461 635.151 41.2703C630.719 43.075 626.532 44.7786 622.51 46.4751C619.773 47.6589 616.189 48.8789 612.495 50.1783C601.714 53.9321 590.604 57.8158 592.766 61.9017C593.943 64.0673 599.005 66.0814 607.788 67.8211C635.151 73.2644 678.932 68.0593 713.848 63.8797C723.781 62.6957 733.138 61.5768 740.444 60.9344C834.546 52.6616 954.177 51.3622 1007.67 72.5353C1055.72 91.5497 1010.65 124.547 974.426 151.054C963.672 158.937 953.493 166.387 947.391 172.422C930.974 188.686 913.954 205.513 973.797 219.539C994.593 224.419 1027.48 227.329 1066.34 227.733C1069.35 227.733 1072.36 227.783 1075.37 227.783C1107.38 227.783 1139.29 226.044 1162.25 223.019C1178.34 220.897 1193.11 218.088 1207.4 215.374C1220.09 212.85 1233.4 210.549 1247.24 208.487C1285.98 202.951 1326.43 198.289 1368.15 194.555V192.274Z" fill="#FFEFE9"/>
<path d="M1346.38 0H1345.74C1345.74 2.86961 1339.77 5.66746 1328.17 8.42219C1275.02 21.0196 1203.17 18.8961 1133.61 16.8372C1099.65 15.8328 1064.55 14.7926 1032.87 15.5746C1005.04 16.292 981.226 19.7641 958.181 23.1431C935.136 26.522 913.915 29.6498 888.571 30.4102C855.457 31.4146 819.859 30.647 793.431 28.3729C757.357 25.2666 737.193 19.6135 733.493 11.5644C731.696 7.6833 734.444 3.91696 737.88 0H729.74C726.437 3.83803 723.741 7.77655 725.617 11.837C733.255 28.5594 803.394 33 859.13 33C869.257 33 879.376 32.8515 889.443 32.5552C916.32 31.7446 939.523 28.337 961.96 25.037C985.323 21.6079 1007.39 18.3653 1033.58 17.7196C1064.47 16.9591 1097.64 17.9348 1132.74 18.975C1204.09 21.0841 1277.72 23.2794 1333.4 10.0363C1338.36 8.88886 1342.73 7.56389 1346.38 6.09788C1350.03 4.63187 1346.38 0 1346.38 0Z" fill="#FFEFE9"/>
<path d="M1017.52 0.0214844C1012.71 0.440193 1007.75 0.873314 1002.66 1.33533C960.224 5.11798 912.12 9.41316 874.058 3.3999C868.399 2.55271 863.477 1.40181 859.61 0.0214844H849.814C854.518 2.23232 861.49 4.04863 869.926 5.2624C884.568 7.52103 901.292 8.66773 918.249 8.57581C947.145 8.57581 977.381 5.87598 1005.29 3.38549C1014.07 2.59859 1022.39 1.85508 1030.38 1.21981C1037.2 0.697492 1044.15 0.297094 1051.18 0.0214844H1017.52Z" fill="#FFEFE9"/>
<path d="M1368.15 51.9971C1367.83 52.2858 1367.44 52.5818 1367.11 52.8778C1356.77 62.4355 1358.33 73.0908 1368.15 83.6519V51.9971Z" fill="#FFEFE9"/>
<path d="M1368.15 182.081L1363.94 182.377C1344.79 183.763 1327.55 186.412 1310.99 188.967C1302.78 190.216 1294.57 191.516 1286.04 192.627C1237.11 199.081 1122.71 206.841 1079.88 195.515C982.06 169.737 1042.86 129.65 1087.24 100.364C1090.45 98.198 1094.52 96.1262 1098.82 93.8667C1107.3 89.456 1116.06 84.8937 1118.36 80.0571C1122.51 71.2787 1095.34 66.341 1071.37 61.9448C1043.65 56.8916 1019.71 52.5603 1036.95 43.4284C1041.52 41.0102 1048.74 38.7363 1055.75 36.5273C1057.94 35.8054 1060.13 35.1485 1062.21 34.4627C1072.44 31.0843 1091.32 31.8423 1107.96 32.5064C1110.86 32.6219 1113.65 32.7374 1116.33 32.824C1152.75 34.0296 1238.07 38.3175 1243.92 52.221C1248.25 62.4501 1230.02 69.9504 1210.76 77.8842C1202.89 81.0143 1195.63 84.2497 1189.03 87.5791C1182.91 90.8492 1176.91 93.8667 1171.14 96.7542C1132.64 115.963 1107.22 128.654 1160.91 153.436C1173.68 159.341 1201.18 169.722 1241.71 172.927C1275.09 175.569 1321.96 174.025 1368.18 169.318V166.936C1322.68 171.707 1275.99 173.389 1244.06 170.863C1206.27 167.874 1180.2 157.992 1168.02 152.368C1116.58 128.618 1139.84 116.996 1178.39 97.7721C1184.22 94.8845 1190.24 91.8527 1196.42 88.597C1202.86 85.3311 1209.95 82.157 1217.66 79.0898C1236.81 71.1487 1256.68 63.0059 1252.05 52.0189C1245.57 36.5851 1155.68 31.9794 1117.34 30.7162C1114.61 30.6295 1111.87 30.514 1109.13 30.4057C1091.24 29.6839 1068.94 28.7887 1055.72 33.1488C1053.7 33.8202 1051.56 34.4916 1049.4 35.1774C1041.74 37.4071 1035.08 39.8635 1029.56 42.4973C1009.12 53.2749 1038.37 58.6097 1066.64 63.7639C1090.83 68.1818 1113.7 72.3474 1110.15 79.8261C1108.04 84.2873 1099.61 88.6763 1091.43 92.9211C1087.24 95.0867 1082.92 97.3606 1079.56 99.5696C1034.32 129.405 972.374 170.256 1074.08 197.074C1091.7 201.73 1119.56 203.477 1150.21 203.477C1200.06 203.477 1257.28 198.843 1289.76 194.569C1298.46 193.421 1306.97 192.108 1315.18 190.837C1331.27 188.347 1348.01 185.784 1366.16 184.47L1368.21 184.319L1368.15 182.081Z" fill="#FFEFE9"/>
<path d="M1368.15 337.22C1357.59 337.834 1347.06 338.426 1336.69 339.004C1287.3 341.768 1240.67 344.381 1209.45 348.503C1186.03 351.588 1165.03 355.815 1147.58 360.963H1158.91C1174.57 356.665 1192.9 353.105 1213.11 350.438C1243.4 346.446 1289.54 343.862 1338.38 341.126C1348.21 340.577 1358.17 340.014 1368.15 339.437V337.22Z" fill="#FFEFE9"/>
<path d="M843.248 353.239C833.808 340.794 786.552 337.221 744.741 334.073C713.438 331.705 683.858 329.475 676.142 323.924C669.739 319.34 678.112 312.561 701.754 303.205C712.565 298.809 727.697 295.268 745.535 292.962C768.957 289.872 789.699 285.296 808.907 278.965C814.927 276.987 819.169 274.474 823.273 272.049C833.042 266.274 842.427 260.759 874.688 260.759C879.537 260.766 884.377 260.873 889.163 261.076C913.79 262.073 926.596 265.162 940.195 268.432C960.855 273.406 982.225 278.539 1044.37 275.817C1107.74 273.031 1175.71 265.032 1235.91 257.979L1246.53 256.731C1259.18 255.165 1271.48 253.405 1283.36 251.461C1303.03 248.378 1323.39 245.181 1346.29 243.982C1353.65 243.592 1361.01 243.304 1368.18 243.109V240.943C1360.36 241.152 1352.47 241.456 1344.57 241.874C1320.38 243.145 1299.42 246.437 1279.14 249.613C1267.54 251.515 1255.52 253.236 1243.16 254.767L1232.51 256.016C1172.95 263.018 1105.39 270.959 1043.03 273.695C984.879 276.258 965.862 271.688 945.75 266.844C931.85 263.502 917.484 260.051 890.449 258.947C839.937 256.889 827.104 264.484 815.803 271.183C812.399 273.467 807.942 275.632 802.532 277.629C784.062 283.707 764.224 288.096 741.895 291.042C722.837 293.526 706.652 297.312 695.022 302.007C669.465 312.114 661.037 319.332 668.507 324.674C677.674 331.251 709.196 333.633 742.552 336.152C783.925 339.278 826.721 342.512 835.176 353.665C836.993 356.074 838.211 358.512 838.815 360.963H847.024C846.409 358.37 845.147 355.789 843.248 353.239Z" fill="#FFEFE9"/>
<path d="M1368.15 317.787C1359.59 318.747 1351.13 319.715 1342.82 320.675C1289.68 326.76 1239.49 332.506 1180.36 335.632C1148.76 337.3 1111.95 338.953 1105.82 338.794C1085.03 335.004 1056.57 321.945 1051.1 316.091C1039.3 303.653 1084.64 294.918 1121.09 287.901C1127.25 286.71 1133.08 285.591 1138.44 284.487C1158.66 280.343 1179.98 279.636 1202.55 278.885C1216.77 278.534 1230.83 277.808 1244.5 276.719C1261.54 275.086 1278.15 273.157 1294.22 270.944C1314.06 268.36 1334.55 265.689 1354.8 264.353C1359.15 264.065 1363.64 263.848 1368.18 263.668V261.502C1363.01 261.691 1357.87 261.952 1352.8 262.282C1331.71 263.675 1310.8 266.396 1290.58 269.031C1274.85 271.198 1258.58 273.086 1241.9 274.683C1228.73 275.732 1215.2 276.43 1201.51 276.77C1178.83 277.528 1155.41 278.307 1133.41 282.819C1128.15 283.895 1122.46 284.985 1116.25 286.19C1077.94 293.59 1030 302.794 1043.13 316.654C1049.15 323.021 1078.46 336.614 1101.8 340.721C1102.29 340.808 1103.09 340.945 1106.78 340.945C1114.03 340.945 1132.56 340.396 1181.97 337.79C1241.98 334.621 1292.55 328.832 1346.15 322.696L1368.24 320.184L1368.15 317.787Z" fill="#FFEFE9"/>
<path d="M1368.15 302.339C1358.22 303.343 1348.4 304.382 1338.66 305.407C1297.97 309.738 1255.86 314.178 1211.2 315.246C1180.69 315.968 1162.33 315.03 1160.8 312.648C1157.54 307.594 1215.33 296.196 1249.43 293.944C1282.04 291.778 1316.66 289.338 1348.84 285.945C1353.68 285.433 1360.33 284.797 1368.15 284.097V281.838C1358.03 282.726 1350.09 283.476 1345.8 283.931C1314.06 287.281 1279.77 289.706 1247.43 291.872C1215.08 294.037 1148.13 305.912 1152.72 313.037C1155.21 316.928 1175.3 317.715 1192.26 317.715C1200.25 317.715 1207.53 317.542 1211.94 317.434C1257.8 316.336 1300.46 311.817 1341.72 307.45C1350.45 306.526 1359.26 305.595 1368.15 304.685V302.339Z" fill="#FFEFE9"/>
<path d="M1275.58 360.964H1275.12C1270.78 360.692 1266.27 360.704 1261.96 361L1275.58 360.964Z" fill="#FFEFE9"/>
<path d="M1368.15 354.712C1359.12 356.121 1352.02 358.256 1347.9 360.805C1347.83 360.856 1347.76 360.909 1347.71 360.963H1356.63C1359.39 359.546 1363.33 358.312 1368.15 357.354V354.712Z" fill="#FFEFE9"/>
<path d="M1026.66 332.716C1005.29 328.493 992.048 324.378 980.938 318.509C971.252 313.398 966.108 307.948 961.128 302.678C954.779 295.936 948.185 288.963 932.068 282.581C925.337 279.917 914.775 278.38 900.655 278.004C875.071 277.34 846.695 280.726 841.961 281.975C833.15 284.299 824.942 286.198 817.69 287.873C796.238 292.839 780.75 296.427 772.186 305.465C765.454 312.554 798.235 317.629 832.932 322.999C862.648 327.605 893.377 332.384 897.809 338.217C900.245 341.22 897.508 347.969 894.772 355.751C894.143 357.433 893.486 359.18 892.857 360.963H901.066C901.668 359.252 902.297 357.577 902.899 355.96C905.991 347.666 908.371 341.111 905.936 337.791C900.765 330.983 868.421 325.981 837.146 321.13C805.158 316.185 774.977 311.507 780.203 305.97C788.138 297.589 802.093 294.362 823.163 289.482C830.496 287.786 838.815 285.873 847.79 283.483C850.854 282.675 873.101 280.069 893.979 280.069C895.976 280.069 897.946 280.069 899.889 280.141C911.409 280.444 919.974 281.664 925.282 283.751C940.605 289.814 946.707 296.297 953.192 303.162C958.282 308.547 963.508 314.113 973.605 319.44C985.344 325.634 999.299 329.973 1021.74 334.412C1045.41 339.09 1041.22 350.972 1034.71 360.927H1042.92C1049.73 350.525 1053.61 338.051 1026.66 332.716Z" fill="#FFEFE9"/>
<path d="M805.049 238.113C769.669 231.89 715.709 240.279 663.527 248.335C634.139 252.89 606.366 257.185 585.597 258.181C530.543 260.824 480.55 260.087 422.486 258.181C410.446 257.784 396.71 256.398 382.207 254.933C356.623 252.349 330.218 249.685 306.986 251.728C280.937 254.016 273.795 267.609 268.076 278.524C265.34 283.491 262.987 288.19 259.347 290.161C257.815 290.623 249.031 291.85 240.576 293.048C200.544 298.672 117.251 310.374 87.9997 331.156C78.0669 338.209 69.2015 346.973 88.9574 352.178C113.584 358.675 164.233 352.322 194.497 348.532C199.422 347.911 203.691 347.377 207.166 346.987C271.633 339.696 361.411 332.709 422.869 340.815C453.68 344.88 484.764 352.9 507.913 360.977H518.284C494.122 352.185 460.575 343.371 426.536 338.881C405.794 336.145 382.153 335.033 357.417 335.033C305.427 335.033 248.676 339.935 203.937 344.995C200.325 345.399 196.002 345.948 190.967 346.576C162.646 350.12 115.253 356.054 94.7584 350.647C78.3406 346.316 86.5497 338.375 95.6889 331.914C123.873 311.875 205.223 300.448 244.434 294.947C259.977 292.781 264.984 292.059 266.626 291.164C270.895 288.905 273.357 284.227 276.203 278.813C281.347 269.031 288.38 255.633 309.586 253.771C329.999 251.973 355.036 254.493 379.252 256.947C394.275 258.463 408.421 259.892 421.446 260.325C480.304 262.26 530.898 263.004 587.075 260.325C609.266 259.264 637.642 254.868 667.686 250.219C715.353 242.834 769.395 234.46 800.479 239.925C826.119 244.437 807.101 254.117 794.514 260.52C793.201 261.184 791.97 261.813 790.875 262.39C774.621 270.966 726.709 286.674 691.52 290.796L686.622 291.366C652.746 295.308 596.077 301.906 590.495 312.229C583.052 325.944 630.336 335.726 680.383 346.056C703.532 350.828 726.9 355.672 744.85 360.977H755.796C736.833 354.95 710.811 349.579 685.472 344.374C637.341 334.448 591.891 325.071 598.649 312.568C603.602 303.429 659.779 296.889 689.96 293.38L694.885 292.803C732.236 288.421 781.051 272.453 798.236 263.386L801.82 261.545C814.9 254.846 836.79 243.701 805.049 238.113Z" fill="#FFEFE9"/>
<path d="M623.303 354.012C611.838 349.774 601.659 345.082 591.808 340.541C585.678 337.719 579.33 334.766 572.654 332.023C560.888 327.056 555.634 321.339 550.572 315.802C544.935 309.695 539.134 303.379 524.577 298.001C504.41 290.544 477.567 287.172 451.627 283.852C435.893 281.852 419.585 279.78 404.535 276.806C399.664 275.839 394.301 273.962 388.637 271.977C374.408 266.981 356.677 260.766 331.749 264.036C318.834 265.74 310.981 267.833 307.752 270.439C302.279 274.771 311.555 279.477 319.627 283.614C325.921 286.826 331.859 289.872 328.548 291.627C322.719 294.702 305.18 296.153 289.692 297.402C282.52 297.932 275.513 298.608 268.732 299.423C254.887 301.249 133.75 317.679 146.118 331.749C146.517 332.362 147.517 332.938 149.019 333.418C150.522 333.897 152.475 334.265 154.683 334.485C171.429 336.116 206.317 329.742 243.64 322.494C250.229 321.135 257.089 319.87 264.19 318.704C315.249 311.976 389.786 307.955 432.774 315.044C512.975 328.269 531.992 337.639 560.778 351.817C566.524 354.647 572.654 357.664 579.686 360.92H589.154C581.164 357.267 574.35 353.918 568.002 350.814C539.654 336.845 519.186 326.753 437.124 313.218C419.037 310.244 397.338 309.096 374.956 309.096C332.351 309.096 287.394 313.247 260.523 316.784C252.932 317.993 245.621 319.321 238.633 320.762C215.128 325.331 171.375 333.828 157.392 332.463C156.464 332.366 155.655 332.203 155.052 331.993C154.449 331.783 154.076 331.534 153.972 331.272C145.079 321.166 227.469 307.284 272.262 301.372C278.665 300.615 285.268 299.983 292.018 299.481C309.038 298.073 328.356 296.478 335.799 292.579C340.998 289.843 334.13 286.328 326.851 282.603C319.573 278.878 311.172 274.59 315.495 271.096C317.986 269.075 324.498 267.393 335.334 265.964C352.791 263.654 365.679 267.53 382.015 273.247C388.035 275.362 393.727 277.362 399.528 278.51C415.206 281.614 431.871 283.729 447.987 285.772C474.147 289.093 498.855 292.226 517.818 299.228C531.5 304.281 536.808 310.107 542.445 316.286C547.671 321.989 553.089 327.879 565.567 333.142C572.052 335.878 578.345 338.78 584.42 341.588C594.38 346.172 604.668 350.915 616.38 355.239C622.121 357.248 628.442 359.138 635.288 360.891L635.452 360.934H646.89C645.002 360.407 643.059 359.888 641.171 359.375C634.716 357.707 628.743 355.914 623.303 354.012Z" fill="#FFEFE9"/>
<path d="M222.243 358.639C210.865 358.975 199.741 359.758 189.243 360.963H217.756C219.479 360.891 221.203 360.826 222.9 360.797C238.886 360.486 254.945 360.542 270.895 360.963H319.382C287.671 358.841 254.885 358.056 222.243 358.639Z" fill="#FFEFE9"/>
<path d="M193.977 244.885C185.33 243.658 177.176 242.495 169.897 241.34C154.6 238.822 139.973 236.032 126.116 232.988C92.2409 225.878 60.1986 219.157 0 220.196V222.362C57.4625 221.337 86.9051 227.523 120.972 234.685C135.124 237.786 150.053 240.631 165.656 243.203C173.126 244.379 181.362 245.549 190.091 246.812C210.504 249.7 231.628 252.717 244.325 256.067C246.76 256.709 246.267 259.315 246.021 260.571C246.021 261.041 245.857 261.466 245.857 261.806C245.857 270.822 236.8 278.734 192.609 288.068C184.4 289.8 174.412 290.796 163.85 291.843C152.385 292.991 140.509 294.175 130.823 296.406C58.2834 313.131 -18.8531 337.719 17.9503 360.963H26.925C-11.2462 338.657 64.8777 314.489 136.377 298.015C144.915 296.037 155.531 294.976 166.887 293.85C177.586 292.782 188.778 291.684 197.862 289.735C231.683 282.596 254.203 275.117 254.203 261.784C254.203 261.474 254.203 261.062 254.367 260.658C254.777 258.492 255.27 255.836 250.263 254.515C236.581 250.941 214.937 247.866 193.977 244.885Z" fill="#FFEFE9"/>
<path d="M0 302.801V305.234C1.82488 305.522 3.51486 305.866 5.0348 306.259C7.05982 306.8 7.77115 308.02 6.62192 309.688C5.23884 311.604 3.01648 313.472 0 315.253V320.227C7.05982 316.755 12.9155 312.972 14.7214 310.034C16.2263 307.587 14.9129 305.804 10.8359 304.728C7.69255 303.919 4.02188 303.266 0 302.801Z" fill="#FFEFE9"/>
<path d="M90.5992 254.182C85.1265 251.742 79.4896 249.216 68.4349 247.469C52.2359 244.906 28.1838 243.455 0.0273438 243.296V245.462C24.8184 245.621 48.4053 246.812 64.2483 249.317C73.4971 250.761 78.3677 252.926 83.5394 255.28C86.4181 256.639 89.6646 257.941 93.2533 259.178C113.83 265.963 121.164 271.45 115.144 275.492C103.597 283.072 47.3926 285.295 0.218836 286.949V289.114C49.8282 287.374 109.452 285.065 122.833 276.279C130.276 271.392 122.833 265.35 99.8752 257.799C96.4593 256.653 93.3595 255.445 90.5992 254.182Z" fill="#FFEFE9"/>
<path d="M708.703 103.641C703.012 103.085 697.758 102.457 692.614 101.851C680.191 100.371 668.452 98.9631 652.609 98.6021C611.975 97.6275 562.311 99.6633 509.856 101.814C418.792 105.554 324.608 109.409 256.583 99.1579C206.837 91.6576 182.429 78.4905 158.815 65.7634C135.83 53.3831 114.159 41.6886 71.2535 34.8885C51.3058 31.7266 26.214 30.5572 0.109543 30.7448V32.9105C22.6841 32.7589 47.2287 33.6324 67.1761 36.7509C108.057 43.2479 129.236 54.6392 151.646 66.7235C175.808 79.7176 200.9 93.2096 252.725 101.042C323.267 111.675 423.17 107.539 511.333 103.93C563.323 101.764 612.577 99.7788 652.089 100.732C666.564 101.078 677.701 102.399 689.467 103.792C694.694 104.413 700.111 105.056 706.022 105.64C762.773 111.257 794.432 116.664 811.917 123.731C831.29 131.563 834.683 141.973 822.862 157.493C816.678 165.629 804.474 172.046 791.559 178.839C782.701 183.286 774.834 187.866 767.999 192.555C763.75 195.84 760.16 199.182 757.245 202.568C750.733 209.541 744.002 216.745 726.325 222.058C674.8 237.601 597.938 246.451 504.055 247.664C424.1 248.689 334.404 243.946 258.006 234.67C229.85 231.277 203.034 226.693 177.176 222.232C142.288 216.24 106.415 210.046 65.6712 206.48C46.5171 204.791 24.2985 204.257 0 204.863V207.029C23.5323 206.422 44.848 206.92 63.154 208.53C102.803 212.017 138.348 218.131 172.606 224.044C198.793 228.534 225.745 233.19 254.477 236.684C325.976 245.312 403.57 249.862 482.192 250.039C489.67 250.039 497.069 249.99 504.383 249.894C600.537 248.66 679.507 239.55 732.427 223.553C751.417 217.835 758.395 210.364 765.126 203.145C767.969 199.835 771.477 196.567 775.633 193.356C782.357 188.736 790.095 184.224 798.81 179.843C811.397 173.216 824.449 166.372 830.825 157.948C843.056 141.828 839.28 130.921 818.648 122.576C800.151 115.09 767.315 109.43 708.703 103.641Z" fill="#FFEFE9"/>
<path d="M584.776 118.411C549.396 116.079 513.906 117.559 479.565 118.988C469.304 119.414 458.714 119.854 448.371 120.187C439.697 120.461 430.968 120.75 422.212 121.038C351.752 123.37 278.912 125.781 209.875 121.645C154.273 118.331 88.2185 105.879 73.8803 90.8131C70.104 86.8283 70.5965 82.1505 71.1439 77.0974C72.2659 66.471 73.5519 54.4228 26.3779 49.7522C17.9088 48.9596 8.98644 48.5566 0 48.5611V50.7267C8.0209 50.7237 15.983 51.0876 23.5323 51.8023C65.206 55.9315 64.1114 66.1895 62.9622 77.0685C62.4424 81.9845 61.9225 87.0594 65.9723 91.3401C74.9473 100.804 100.915 107.943 121.136 112.275C146.885 117.804 178.599 121.984 208.069 123.753C278.501 127.976 352.081 125.543 423.225 123.19C431.981 122.894 440.71 122.612 449.329 122.338C459.836 122.006 470.508 121.558 480.851 121.125C514.371 119.732 549.04 118.288 582.778 120.511C617.612 122.807 653.567 128.784 678.96 136.501C706.843 144.962 719.512 154.548 714.532 163.536C706.898 177.663 676.689 190.014 624.726 200.236C531.692 218.521 394.876 224.636 307.588 221.228C268.158 219.705 231.355 214.796 195.728 210.09C182.348 208.307 168.365 206.48 154.683 204.827C133.203 202.279 114.049 197.608 93.7458 192.685C65.6712 185.777 36.557 178.731 0 177.461V179.67C33.766 180.998 61.3754 187.711 88.2731 194.208C108.139 199.045 128.716 204.048 151.4 206.74C165.081 208.35 178.763 210.184 192.034 211.959C228.235 216.782 265.64 221.77 306.494 223.365C395.451 226.837 535.03 220.608 629.761 201.969C682.763 191.537 714.915 178.349 722.795 163.832C727.967 154.231 714.586 144.016 685.171 135.072C658.711 127.073 621.141 120.836 584.776 118.411Z" fill="#FFEFE9"/>
<path d="M383.657 143.287C366.282 141.453 348.085 139.677 330.546 137.966C295.521 134.537 259.128 130.993 227.113 126.784C216.934 125.442 203.581 125.579 190.666 125.716C183.373 125.864 176.043 125.828 168.775 125.608C149.95 124.778 126.882 121.399 108.878 118.555C77.1365 113.502 38.6094 101.389 31.7683 90.5387C30.2635 88.1782 29.4699 85.6588 28.5944 82.9951C26.1044 75.0977 23.2585 66.2688 0 61.2517V64.2691C15.8433 68.882 18.1964 76.1228 20.4676 83.19C21.3434 85.8971 22.1915 88.4525 23.7238 90.8997C30.9751 102.363 71.3904 115.148 104.719 120.417C123.325 123.363 147.268 126.864 167.489 127.752C175.326 127.999 183.234 128.044 191.104 127.889C202.979 127.766 215.265 127.636 223.556 128.726C255.845 132.985 292.374 136.552 327.7 140.002C345.213 141.713 363.272 143.482 380.62 145.308C414.331 148.867 472.232 161.456 462.709 172.833C456.142 180.644 430.804 186.08 410.72 189.256C386.161 193.04 359.168 195.598 331.093 196.8C257.514 199.788 141.467 183.423 56.7509 171.483C39.4029 169.036 23.0397 166.733 9.16678 164.9C6.07477 164.488 3.01007 164.091 0 163.702V166.12L5.4727 166.842C19.1542 168.661 35.572 170.964 52.838 173.396C131.48 184.485 236.745 199.326 312.513 199.326C319.135 199.333 325.749 199.205 332.297 198.944C380.894 196.973 457.811 188.52 470.617 173.303C481.371 160.561 420.68 147.192 383.657 143.287Z" fill="#FFEFE9"/>
<path d="M202.651 137.18L197.178 136.797L180.158 135.599C131.726 132.206 65.3975 127.564 32.3977 120.122C20.2488 117.321 8.59203 112.491 0 107.496V112.34C7.8531 116.086 17.2387 119.487 27.3629 121.724C61.7037 129.485 129.071 134.206 178.27 137.649C184.263 138.068 189.954 138.465 195.235 138.847L200.708 139.23C229.658 141.266 254.668 143.027 248.238 152.354C245.502 156.129 236.827 159.436 222.763 161.919C201.556 165.665 169.213 167.29 144.094 165.867C104.335 163.666 65.6713 155.306 28.4302 147.214C18.8531 145.142 9.27605 143.092 0 141.157V143.915C7.66161 145.525 15.4054 147.2 23.2312 148.889C61.2932 157.14 100.669 165.673 142.206 168.019C149.205 168.408 156.341 168.599 163.494 168.589C186.016 168.611 208.092 166.933 227.113 163.752C243.066 160.937 253.081 157.14 256.091 152.773C263.944 141.511 231.382 139.194 202.651 137.18Z" fill="#FFEFE9"/>
</svg>
