<svg width="52" height="52" viewBox="0 0 52 52" fill="none" xmlns="http://www.w3.org/2000/svg">
<path d="M25.9094 51.8656C40.2187 51.8656 51.8187 40.2656 51.8187 25.9562C51.8187 11.6469 40.2187 0.046875 25.9094 0.046875C11.6 0.046875 0 11.6469 0 25.9562C0 40.2656 11.6 51.8656 25.9094 51.8656Z" fill="url(#paint0_radial_764_4100)"/>
<path opacity="0.2" d="M25.9094 1.34624C39.4791 1.34624 50.5194 12.3865 50.5194 25.9562C50.5194 39.526 39.4791 50.5662 25.9094 50.5662C12.3397 50.5662 1.29937 39.526 1.29937 25.9562C1.29937 12.3865 12.3397 1.34624 25.9094 1.34624ZM25.9094 0.046875C11.599 0.046875 0 11.6502 0 25.9562C0 40.2623 11.599 51.8656 25.9094 51.8656C40.2197 51.8656 51.8187 40.2666 51.8187 25.9562C51.8187 11.6459 40.2154 0.046875 25.9094 0.046875Z" fill="#434343"/>
<path d="M25.9111 44.0008C35.8764 44.0008 43.9549 35.9223 43.9549 25.957C43.9549 15.9916 35.8764 7.91309 25.9111 7.91309C15.9457 7.91309 7.86719 15.9916 7.86719 25.957C7.86719 35.9223 15.9457 44.0008 25.9111 44.0008Z" fill="#FEFCE9"/>
<path d="M25.9085 37.5261C32.2978 37.5261 37.4772 32.3466 37.4772 25.9574C37.4772 19.5682 32.2978 14.3887 25.9085 14.3887C19.5193 14.3887 14.3398 19.5682 14.3398 25.9574C14.3398 32.3466 19.5193 37.5261 25.9085 37.5261Z" fill="url(#paint1_radial_764_4100)"/>
<path d="M25.9088 29.4259C27.8248 29.4259 29.3781 27.8727 29.3781 25.9566C29.3781 24.0406 27.8248 22.4873 25.9088 22.4873C23.9927 22.4873 22.4395 24.0406 22.4395 25.9566C22.4395 27.8727 23.9927 29.4259 25.9088 29.4259Z" fill="#FEFCE9"/>
<path d="M45.8547 6.14295L46.0063 2.4874C46.0756 0.841534 44.6116 -0.323565 42.9874 0.0835696L39.9729 0.832871C38.9334 1.09274 38.1018 1.93733 37.8636 2.98116L34.5762 17.4215L34.6022 17.4085L45.8633 6.14728L45.8547 6.14295Z" fill="#09BCD4"/>
<path d="M45.8586 6.14224L49.5141 5.99065C51.16 5.92135 52.3251 7.3853 51.918 9.00951L51.1687 12.024C50.9088 13.0635 50.0642 13.8951 49.0204 14.1333L34.5801 17.4207L34.5931 17.3948L45.8542 6.13358L45.8586 6.14224Z" fill="#38A4DD"/>
<path d="M26.4835 26.4463C25.8771 26.9877 25.0325 26.1431 25.5696 25.5368L41.8247 7.58384C42.5393 6.86919 43.7001 6.86919 44.4147 7.58384C45.1294 8.29849 45.1294 9.45926 44.4147 10.1739L26.4835 26.4463Z" fill="#1B87C9"/>
<path opacity="0.2" d="M43.6309 0.866244C44.0597 0.866244 44.4495 1.0265 44.731 1.32102C45.0125 1.61121 45.1555 2.01402 45.1381 2.45147L44.9866 6.09836C44.9779 6.26728 45.0212 6.43187 45.1035 6.57046C45.1425 6.63543 45.1858 6.69174 45.2378 6.74371C45.398 6.9083 45.6232 7.00792 45.8571 7.00792H45.8918L49.5387 6.85633H49.6123C50.0974 6.85633 50.5219 7.05556 50.8034 7.41505C51.0979 7.78754 51.1932 8.29429 51.0676 8.79671L50.3183 11.8112C50.1407 12.5259 49.5387 13.1193 48.8197 13.2839L36.8482 16.0125C36.7009 16.0472 36.5667 16.1165 36.4584 16.2161L29.2339 22.7822L35.774 15.5578C35.8737 15.4495 35.943 15.3152 35.9776 15.1679L38.7106 3.17045C38.8752 2.45147 39.4642 1.84943 40.1832 1.67185L43.1978 0.92255C43.3407 0.883569 43.488 0.866244 43.6309 0.866244ZM43.6309 0C43.4187 0 43.2021 0.0259874 42.9855 0.0822932L39.971 0.831595C38.9315 1.09147 38.0999 1.93606 37.8617 2.97988L35.1287 14.9774L25.5697 25.5326C25.1496 26.0047 25.5654 26.6154 26.0548 26.6154C26.1977 26.6154 26.345 26.5634 26.4792 26.4421L37.0431 16.8614L49.0146 14.1328C50.0541 13.8946 50.903 13.063 51.1629 12.0235L51.9122 9.00894C52.3063 7.41938 51.2019 5.99008 49.6166 5.99008C49.582 5.99008 49.543 5.99008 49.504 5.99441L45.8571 6.14601H45.8485V6.13734L46.0001 2.49045C46.0607 1.06115 44.9779 0 43.6309 0Z" fill="#434343"/>
<defs>
<radialGradient id="paint0_radial_764_4100" cx="0" cy="0" r="1" gradientUnits="userSpaceOnUse" gradientTransform="translate(18.5051 13.8128) scale(26.9324 26.9324)">
<stop offset="0.4707" stop-color="#EF5451"/>
<stop offset="0.8338" stop-color="#E53A35"/>
</radialGradient>
<radialGradient id="paint1_radial_764_4100" cx="0" cy="0" r="1" gradientUnits="userSpaceOnUse" gradientTransform="translate(23.6728 21.4901) scale(13.2761 13.2761)">
<stop offset="0.4707" stop-color="#EF5451"/>
<stop offset="0.8338" stop-color="#E53A35"/>
</radialGradient>
</defs>
</svg>
